<svg width="48" height="24" viewBox="0 0 48 24" fill="none" xmlns="http://www.w3.org/2000/svg">
<path d="M22.323 1.16512C22.0226 1.16188 21.73 1.2607 21.4931 1.44539C21.2563 1.63007 21.0891 1.8897 21.019 2.18177C20.9488 2.47385 20.9799 2.78108 21.1071 3.05318C21.2344 3.32529 21.4502 3.54615 21.7193 3.67963V9.56259H22.8112V3.72163C23.0961 3.60673 23.3324 3.39645 23.4796 3.12671C23.6267 2.85697 23.6757 2.5445 23.618 2.24267C23.5604 1.94085 23.3997 1.66841 23.1635 1.47187C22.9273 1.27534 22.6302 1.16691 22.323 1.16512Z" fill="currentColor"/>
<path d="M26.9968 1.16507C26.6969 1.16305 26.4052 1.26273 26.1692 1.44784C25.9332 1.63295 25.767 1.89256 25.6975 2.18432C25.6281 2.47608 25.6596 2.78276 25.7869 3.05432C25.9141 3.32588 26.1297 3.54629 26.3984 3.67959V9.56254H27.492V3.72158C27.7775 3.60645 28.0141 3.39558 28.1612 3.12512C28.3083 2.85466 28.3567 2.54146 28.2982 2.23921C28.2396 1.93696 28.0777 1.6645 27.8403 1.46852C27.6029 1.27254 27.3047 1.16526 26.9968 1.16507Z" fill="currentColor"/>
<path d="M32.997 2.49223C32.9972 2.25181 32.9321 2.01584 32.8087 1.8095C32.6853 1.60316 32.5082 1.43419 32.2963 1.32062C32.0844 1.20704 31.8456 1.15312 31.6055 1.1646C31.3653 1.17609 31.1328 1.25254 30.9327 1.38582C30.7326 1.5191 30.5724 1.7042 30.4692 1.92137C30.3661 2.13854 30.3238 2.37964 30.3469 2.61896C30.37 2.85827 30.4577 3.08682 30.6005 3.28022C30.7434 3.47362 30.936 3.62462 31.1579 3.71712V9.56333H32.2498V3.68037C32.473 3.57203 32.6614 3.40326 32.7935 3.19323C32.9255 2.9832 32.9961 2.74034 32.997 2.49223Z" fill="currentColor"/>
<path d="M47.5522 0.0490839C45.9755 1.28415 44.3143 2.40738 42.5809 3.41052C41.5975 3.97922 40.6385 4.47967 39.7164 4.92063L21.6231 5.00288C19.7554 5.01491 17.9325 5.5761 16.3814 6.61657C14.8304 7.65704 13.6197 9.13081 12.9001 10.8543H4.69861C4.37395 10.4277 3.92361 10.1136 3.41102 9.95639C2.89843 9.79919 2.34943 9.80678 1.84139 9.97809C1.33334 10.1494 0.891843 10.4758 0.579104 10.9113C0.266365 11.3468 0.0981445 11.8694 0.0981445 12.4056C0.0981445 12.9417 0.266365 13.4644 0.579104 13.8999C0.891843 14.3353 1.33334 14.6617 1.84139 14.833C2.34943 15.0044 2.89843 15.0119 3.41102 14.8547C3.92361 14.6975 4.37395 14.3835 4.69861 13.9568H12.1897C12.1792 14.1353 12.1739 14.3167 12.1739 14.501V15.4249C12.1767 17.6981 13.0809 19.8774 14.6883 21.4847C16.2957 23.0921 18.475 23.9963 20.7481 23.9991H33.0967C33.9694 24.0134 34.8362 23.8538 35.6467 23.5296C36.4571 23.2055 37.1948 22.7233 37.817 22.1112C38.4392 21.4991 38.9334 20.7693 39.2707 19.9643C39.608 19.1593 39.7817 18.2952 39.7817 17.4224C39.7817 16.5495 39.608 15.6855 39.2707 14.8804C38.9334 14.0754 38.4392 13.3456 37.817 12.7335C37.1948 12.1214 36.4571 11.6392 35.6467 11.3151C34.8362 10.9909 33.9694 10.8314 33.0967 10.8456H16.4208C16.6361 10.5401 16.8766 10.2533 17.14 9.98817C17.7294 9.39263 18.4308 8.91953 19.2038 8.5961C19.9768 8.27267 20.8061 8.10529 21.644 8.10359L39.9964 8.0231C41.1932 8.59179 42.3559 9.22982 43.4785 9.93392C44.9038 10.8281 46.2639 11.8222 47.5487 12.9086C47.5817 12.937 47.6227 12.9546 47.6661 12.9589C47.7094 12.9633 47.7531 12.9544 47.7912 12.9332C47.8293 12.9121 47.86 12.8798 47.8792 12.8407C47.8984 12.8015 47.9052 12.7575 47.8986 12.7144V0.250315C47.9062 0.207295 47.9003 0.162999 47.8819 0.123402C47.8635 0.0838052 47.8333 0.0508136 47.7956 0.0288781C47.7578 0.00694263 47.7142 -0.00288121 47.6707 0.000731917C47.6272 0.00434505 47.5858 0.0212213 47.5522 0.0490839ZM33.0985 13.9498C33.5613 13.9394 34.0215 14.0216 34.4521 14.1915C34.8828 14.3615 35.2751 14.6157 35.6061 14.9394C35.9371 15.263 36.2001 15.6495 36.3796 16.0762C36.5592 16.5029 36.6516 16.9612 36.6516 17.4241C36.6516 17.887 36.5592 18.3453 36.3796 18.772C36.2001 19.1987 35.9371 19.5852 35.6061 19.9088C35.2751 20.2325 34.8828 20.4867 34.4521 20.6567C34.0215 20.8266 33.5613 20.9088 33.0985 20.8984H20.7481C19.2972 20.8966 17.9063 20.3192 16.8805 19.2931C15.8547 18.267 15.2778 16.8758 15.2764 15.4249V14.501C15.2764 14.326 15.2764 14.1318 15.2991 13.9498H33.0985Z" fill="currentColor"/>
</svg>
