<svg width="26" height="24" viewBox="0 0 26 24" fill="none" xmlns="http://www.w3.org/2000/svg">
<path fill-rule="evenodd" clip-rule="evenodd" d="M9.33027 0H16.6697C22.7859 0 25.2324 2.44648 25.2324 8.56269V15.9021C25.2324 20.526 23.8379 23.0581 20.5107 24C20.2416 20.8196 16.9755 18.3119 13 18.3119C9.02446 18.3119 5.75841 20.8196 5.48929 24C2.16207 23.0581 0.767578 20.526 0.767578 15.9021V8.56269C0.767578 2.44648 3.21406 0 9.33027 0ZM8.62079 10.4954C8.62079 12.9175 10.578 14.8868 13 14.8868C15.2706 14.8868 17.1327 13.1559 17.3566 10.9439C17.3609 10.9019 17.3645 10.8597 17.3676 10.8173C17.3753 10.7108 17.3793 10.6033 17.3793 10.4948C17.3793 8.07282 15.4221 6.11561 13.0001 6.11561C10.7175 6.11561 8.84776 7.85394 8.64002 10.0814C8.6273 10.2177 8.62079 10.3558 8.62079 10.4954Z" fill="currentColor"/>
</svg>
