<svg width="66" height="66" viewBox="0 0 66 66" fill="none" xmlns="http://www.w3.org/2000/svg">
<mask id="path-1-outside-1_248_1848" maskUnits="userSpaceOnUse" x="0" y="0" width="66" height="66" fill="black">
<rect fill="white" width="66" height="66"/>
<path d="M2.06663 54.3335C1.4775 54.3335 1 54.811 1 55.4001C1 55.9892 1.47763 56.4667 2.06663 56.4667H5.37326C5.80476 58.5597 7.44026 60.1952 9.53327 60.6267V63.9334C9.53327 64.5225 10.0109 65 10.5999 65C11.189 65 11.6665 64.5225 11.6665 63.9334V60.7334H15.9332V63.9334C15.9332 64.5225 16.4108 65 16.9998 65C17.5889 65 18.0664 64.5225 18.0664 63.9334V60.7334H22.333V63.9334C22.333 64.5225 22.8107 65 23.3997 65C23.9887 65 24.4663 64.5225 24.4663 63.9334V60.7334H28.7329V63.9334C28.7329 64.5225 29.2104 65 29.7996 65C30.3887 65 30.8662 64.5225 30.8662 63.9334V60.7334H35.1328V63.9334C35.1328 64.5225 35.6103 65 36.1994 65C36.7886 65 37.2661 64.5225 37.2661 63.9334V60.7334H41.5327V63.9334C41.5327 64.5225 42.0102 65 42.5993 65C43.1885 65 43.666 64.5225 43.666 63.9334V60.7334H47.9326V63.9334C47.9326 64.5225 48.4102 65 48.9992 65C49.5882 65 50.0658 64.5225 50.0658 63.9334V60.7334H54.3325V63.9334C54.3325 64.5225 54.81 65 55.3991 65C55.9882 65 56.4657 64.5225 56.4657 63.9334V60.6267C58.5587 60.1952 60.1942 58.5597 60.6257 56.4667H63.9324C64.5215 56.4667 64.999 55.9891 64.999 55.4001C64.999 54.8111 64.5215 54.3335 63.9324 54.3335H60.7324V50.0668H63.9324C64.5215 50.0668 64.999 49.5893 64.999 49.0002C64.999 48.4111 64.5215 47.9336 63.9324 47.9336H60.7324V43.667H63.9324C64.5215 43.667 64.999 43.1895 64.999 42.6003C64.999 42.0112 64.5215 41.5337 63.9324 41.5337H60.7324V37.2671H63.9324C64.5215 37.2671 64.999 36.7894 64.999 36.2004C64.999 35.6114 64.5215 35.1338 63.9324 35.1338H60.7324V30.8672H63.9324C64.5215 30.8672 64.999 30.3896 64.999 29.8006C64.999 29.2116 64.5215 28.7339 63.9324 28.7339H60.7324V24.4673H63.9324C64.5215 24.4673 64.999 23.9898 64.999 23.4007C64.999 22.8115 64.5215 22.334 63.9324 22.334H60.7324V18.0674H63.9324C64.5215 18.0674 64.999 17.5898 64.999 17.0008C64.999 16.4117 64.5215 15.9342 63.9324 15.9342H60.7324V11.6666H63.9324C64.5215 11.6666 64.999 11.1891 64.999 10.6C64.999 10.0109 64.5215 9.53339 63.9324 9.53339H60.6257C60.1942 7.44039 58.5587 5.80488 56.4657 5.37338V2.06663C56.4657 1.4775 55.9881 1 55.3991 1C54.8101 1 54.3325 1.47763 54.3325 2.06663V5.26663H50.0658V2.06663C50.0667 1.47763 49.5892 1 49.0001 1C48.411 1 47.9335 1.47763 47.9335 2.06663V5.26663H43.6668V2.06663C43.6668 1.4775 43.1893 1 42.6002 1C42.0111 1 41.5336 1.47763 41.5336 2.06663V5.26663H37.2669V2.06663C37.2669 1.4775 36.7893 1 36.2003 1C35.6113 1 35.1337 1.47763 35.1337 2.06663V5.26663H30.8671V2.06663C30.8671 1.4775 30.3894 1 29.8004 1C29.2114 1 28.7338 1.47763 28.7338 2.06663V5.26663H24.4672V2.06663C24.4672 1.4775 23.9897 1 23.4005 1C22.8114 1 22.3339 1.47763 22.3339 2.06663V5.26663H18.0673V2.06663C18.0667 1.47763 17.5892 1 17 1C16.4109 1 15.9334 1.47763 15.9334 2.06663V5.26663H11.6666V2.06663C11.6666 1.47763 11.1891 1 10.6 1C10.0109 1 9.53339 1.47763 9.53339 2.06663V5.37326C7.44039 5.80476 5.80488 7.44026 5.37338 9.53327H2.06663C1.47763 9.53339 1 10.0109 1 10.6C1 11.1891 1.47763 11.6666 2.06663 11.6666H5.26663V15.9333H2.06663C1.47763 15.9334 1 16.4109 1 17C1 17.5892 1.47763 18.0667 2.06663 18.0667H5.26663V22.3333H2.06663C1.47763 22.3334 1 22.8109 1 23.4C1 23.9892 1.47763 24.4667 2.06663 24.4667H5.26663V28.7333H2.06663C1.4775 28.7333 1 29.2108 1 29.7999C1 30.3891 1.47763 30.8666 2.06663 30.8666H5.26663V35.1332H2.06663C1.4775 35.1332 1 35.6107 1 36.1998C1 36.7889 1.47763 37.2664 2.06663 37.2664H5.26663V41.5331H2.06663C1.4775 41.5331 1 42.0106 1 42.5997C1 43.1888 1.47763 43.6663 2.06663 43.6663H5.26663V47.933H2.06663C1.47763 47.9335 1 48.411 1 49.0001C1 49.5892 1.47763 50.0667 2.06663 50.0667H5.26663V54.3334H2.06663V54.3335ZM10.6 7.40001H55.4001C57.1674 7.40001 58.6001 8.83277 58.6001 10.6V55.4001C58.6001 57.1674 57.1674 58.6001 55.4001 58.6001H10.6C8.83277 58.6001 7.40001 57.1674 7.40001 55.4001V10.6C7.40001 8.83277 8.83277 7.40001 10.6 7.40001Z"/>
</mask>
<path d="M2.06663 54.3335C1.4775 54.3335 1 54.811 1 55.4001C1 55.9892 1.47763 56.4667 2.06663 56.4667H5.37326C5.80476 58.5597 7.44026 60.1952 9.53327 60.6267V63.9334C9.53327 64.5225 10.0109 65 10.5999 65C11.189 65 11.6665 64.5225 11.6665 63.9334V60.7334H15.9332V63.9334C15.9332 64.5225 16.4108 65 16.9998 65C17.5889 65 18.0664 64.5225 18.0664 63.9334V60.7334H22.333V63.9334C22.333 64.5225 22.8107 65 23.3997 65C23.9887 65 24.4663 64.5225 24.4663 63.9334V60.7334H28.7329V63.9334C28.7329 64.5225 29.2104 65 29.7996 65C30.3887 65 30.8662 64.5225 30.8662 63.9334V60.7334H35.1328V63.9334C35.1328 64.5225 35.6103 65 36.1994 65C36.7886 65 37.2661 64.5225 37.2661 63.9334V60.7334H41.5327V63.9334C41.5327 64.5225 42.0102 65 42.5993 65C43.1885 65 43.666 64.5225 43.666 63.9334V60.7334H47.9326V63.9334C47.9326 64.5225 48.4102 65 48.9992 65C49.5882 65 50.0658 64.5225 50.0658 63.9334V60.7334H54.3325V63.9334C54.3325 64.5225 54.81 65 55.3991 65C55.9882 65 56.4657 64.5225 56.4657 63.9334V60.6267C58.5587 60.1952 60.1942 58.5597 60.6257 56.4667H63.9324C64.5215 56.4667 64.999 55.9891 64.999 55.4001C64.999 54.8111 64.5215 54.3335 63.9324 54.3335H60.7324V50.0668H63.9324C64.5215 50.0668 64.999 49.5893 64.999 49.0002C64.999 48.4111 64.5215 47.9336 63.9324 47.9336H60.7324V43.667H63.9324C64.5215 43.667 64.999 43.1895 64.999 42.6003C64.999 42.0112 64.5215 41.5337 63.9324 41.5337H60.7324V37.2671H63.9324C64.5215 37.2671 64.999 36.7894 64.999 36.2004C64.999 35.6114 64.5215 35.1338 63.9324 35.1338H60.7324V30.8672H63.9324C64.5215 30.8672 64.999 30.3896 64.999 29.8006C64.999 29.2116 64.5215 28.7339 63.9324 28.7339H60.7324V24.4673H63.9324C64.5215 24.4673 64.999 23.9898 64.999 23.4007C64.999 22.8115 64.5215 22.334 63.9324 22.334H60.7324V18.0674H63.9324C64.5215 18.0674 64.999 17.5898 64.999 17.0008C64.999 16.4117 64.5215 15.9342 63.9324 15.9342H60.7324V11.6666H63.9324C64.5215 11.6666 64.999 11.1891 64.999 10.6C64.999 10.0109 64.5215 9.53339 63.9324 9.53339H60.6257C60.1942 7.44039 58.5587 5.80488 56.4657 5.37338V2.06663C56.4657 1.4775 55.9881 1 55.3991 1C54.8101 1 54.3325 1.47763 54.3325 2.06663V5.26663H50.0658V2.06663C50.0667 1.47763 49.5892 1 49.0001 1C48.411 1 47.9335 1.47763 47.9335 2.06663V5.26663H43.6668V2.06663C43.6668 1.4775 43.1893 1 42.6002 1C42.0111 1 41.5336 1.47763 41.5336 2.06663V5.26663H37.2669V2.06663C37.2669 1.4775 36.7893 1 36.2003 1C35.6113 1 35.1337 1.47763 35.1337 2.06663V5.26663H30.8671V2.06663C30.8671 1.4775 30.3894 1 29.8004 1C29.2114 1 28.7338 1.47763 28.7338 2.06663V5.26663H24.4672V2.06663C24.4672 1.4775 23.9897 1 23.4005 1C22.8114 1 22.3339 1.47763 22.3339 2.06663V5.26663H18.0673V2.06663C18.0667 1.47763 17.5892 1 17 1C16.4109 1 15.9334 1.47763 15.9334 2.06663V5.26663H11.6666V2.06663C11.6666 1.47763 11.1891 1 10.6 1C10.0109 1 9.53339 1.47763 9.53339 2.06663V5.37326C7.44039 5.80476 5.80488 7.44026 5.37338 9.53327H2.06663C1.47763 9.53339 1 10.0109 1 10.6C1 11.1891 1.47763 11.6666 2.06663 11.6666H5.26663V15.9333H2.06663C1.47763 15.9334 1 16.4109 1 17C1 17.5892 1.47763 18.0667 2.06663 18.0667H5.26663V22.3333H2.06663C1.47763 22.3334 1 22.8109 1 23.4C1 23.9892 1.47763 24.4667 2.06663 24.4667H5.26663V28.7333H2.06663C1.4775 28.7333 1 29.2108 1 29.7999C1 30.3891 1.47763 30.8666 2.06663 30.8666H5.26663V35.1332H2.06663C1.4775 35.1332 1 35.6107 1 36.1998C1 36.7889 1.47763 37.2664 2.06663 37.2664H5.26663V41.5331H2.06663C1.4775 41.5331 1 42.0106 1 42.5997C1 43.1888 1.47763 43.6663 2.06663 43.6663H5.26663V47.933H2.06663C1.47763 47.9335 1 48.411 1 49.0001C1 49.5892 1.47763 50.0667 2.06663 50.0667H5.26663V54.3334H2.06663V54.3335ZM10.6 7.40001H55.4001C57.1674 7.40001 58.6001 8.83277 58.6001 10.6V55.4001C58.6001 57.1674 57.1674 58.6001 55.4001 58.6001H10.6C8.83277 58.6001 7.40001 57.1674 7.40001 55.4001V10.6C7.40001 8.83277 8.83277 7.40001 10.6 7.40001Z" fill="#FC6238"/>
<path d="M2.06663 54.3335C1.4775 54.3335 1 54.811 1 55.4001C1 55.9892 1.47763 56.4667 2.06663 56.4667H5.37326C5.80476 58.5597 7.44026 60.1952 9.53327 60.6267V63.9334C9.53327 64.5225 10.0109 65 10.5999 65C11.189 65 11.6665 64.5225 11.6665 63.9334V60.7334H15.9332V63.9334C15.9332 64.5225 16.4108 65 16.9998 65C17.5889 65 18.0664 64.5225 18.0664 63.9334V60.7334H22.333V63.9334C22.333 64.5225 22.8107 65 23.3997 65C23.9887 65 24.4663 64.5225 24.4663 63.9334V60.7334H28.7329V63.9334C28.7329 64.5225 29.2104 65 29.7996 65C30.3887 65 30.8662 64.5225 30.8662 63.9334V60.7334H35.1328V63.9334C35.1328 64.5225 35.6103 65 36.1994 65C36.7886 65 37.2661 64.5225 37.2661 63.9334V60.7334H41.5327V63.9334C41.5327 64.5225 42.0102 65 42.5993 65C43.1885 65 43.666 64.5225 43.666 63.9334V60.7334H47.9326V63.9334C47.9326 64.5225 48.4102 65 48.9992 65C49.5882 65 50.0658 64.5225 50.0658 63.9334V60.7334H54.3325V63.9334C54.3325 64.5225 54.81 65 55.3991 65C55.9882 65 56.4657 64.5225 56.4657 63.9334V60.6267C58.5587 60.1952 60.1942 58.5597 60.6257 56.4667H63.9324C64.5215 56.4667 64.999 55.9891 64.999 55.4001C64.999 54.8111 64.5215 54.3335 63.9324 54.3335H60.7324V50.0668H63.9324C64.5215 50.0668 64.999 49.5893 64.999 49.0002C64.999 48.4111 64.5215 47.9336 63.9324 47.9336H60.7324V43.667H63.9324C64.5215 43.667 64.999 43.1895 64.999 42.6003C64.999 42.0112 64.5215 41.5337 63.9324 41.5337H60.7324V37.2671H63.9324C64.5215 37.2671 64.999 36.7894 64.999 36.2004C64.999 35.6114 64.5215 35.1338 63.9324 35.1338H60.7324V30.8672H63.9324C64.5215 30.8672 64.999 30.3896 64.999 29.8006C64.999 29.2116 64.5215 28.7339 63.9324 28.7339H60.7324V24.4673H63.9324C64.5215 24.4673 64.999 23.9898 64.999 23.4007C64.999 22.8115 64.5215 22.334 63.9324 22.334H60.7324V18.0674H63.9324C64.5215 18.0674 64.999 17.5898 64.999 17.0008C64.999 16.4117 64.5215 15.9342 63.9324 15.9342H60.7324V11.6666H63.9324C64.5215 11.6666 64.999 11.1891 64.999 10.6C64.999 10.0109 64.5215 9.53339 63.9324 9.53339H60.6257C60.1942 7.44039 58.5587 5.80488 56.4657 5.37338V2.06663C56.4657 1.4775 55.9881 1 55.3991 1C54.8101 1 54.3325 1.47763 54.3325 2.06663V5.26663H50.0658V2.06663C50.0667 1.47763 49.5892 1 49.0001 1C48.411 1 47.9335 1.47763 47.9335 2.06663V5.26663H43.6668V2.06663C43.6668 1.4775 43.1893 1 42.6002 1C42.0111 1 41.5336 1.47763 41.5336 2.06663V5.26663H37.2669V2.06663C37.2669 1.4775 36.7893 1 36.2003 1C35.6113 1 35.1337 1.47763 35.1337 2.06663V5.26663H30.8671V2.06663C30.8671 1.4775 30.3894 1 29.8004 1C29.2114 1 28.7338 1.47763 28.7338 2.06663V5.26663H24.4672V2.06663C24.4672 1.4775 23.9897 1 23.4005 1C22.8114 1 22.3339 1.47763 22.3339 2.06663V5.26663H18.0673V2.06663C18.0667 1.47763 17.5892 1 17 1C16.4109 1 15.9334 1.47763 15.9334 2.06663V5.26663H11.6666V2.06663C11.6666 1.47763 11.1891 1 10.6 1C10.0109 1 9.53339 1.47763 9.53339 2.06663V5.37326C7.44039 5.80476 5.80488 7.44026 5.37338 9.53327H2.06663C1.47763 9.53339 1 10.0109 1 10.6C1 11.1891 1.47763 11.6666 2.06663 11.6666H5.26663V15.9333H2.06663C1.47763 15.9334 1 16.4109 1 17C1 17.5892 1.47763 18.0667 2.06663 18.0667H5.26663V22.3333H2.06663C1.47763 22.3334 1 22.8109 1 23.4C1 23.9892 1.47763 24.4667 2.06663 24.4667H5.26663V28.7333H2.06663C1.4775 28.7333 1 29.2108 1 29.7999C1 30.3891 1.47763 30.8666 2.06663 30.8666H5.26663V35.1332H2.06663C1.4775 35.1332 1 35.6107 1 36.1998C1 36.7889 1.47763 37.2664 2.06663 37.2664H5.26663V41.5331H2.06663C1.4775 41.5331 1 42.0106 1 42.5997C1 43.1888 1.47763 43.6663 2.06663 43.6663H5.26663V47.933H2.06663C1.47763 47.9335 1 48.411 1 49.0001C1 49.5892 1.47763 50.0667 2.06663 50.0667H5.26663V54.3334H2.06663V54.3335ZM10.6 7.40001H55.4001C57.1674 7.40001 58.6001 8.83277 58.6001 10.6V55.4001C58.6001 57.1674 57.1674 58.6001 55.4001 58.6001H10.6C8.83277 58.6001 7.40001 57.1674 7.40001 55.4001V10.6C7.40001 8.83277 8.83277 7.40001 10.6 7.40001Z" stroke="#FC6238" mask="url(#path-1-outside-1_248_1848)"/>
<path d="M11.6665 12.9829C12.3937 12.9829 12.9832 12.3934 12.9832 11.6662C12.9832 10.9391 12.3937 10.3496 11.6665 10.3496C10.9394 10.3496 10.3499 10.9391 10.3499 11.6662C10.3499 12.3934 10.9394 12.9829 11.6665 12.9829Z" fill="#FC6238" stroke="#FC6238" stroke-width="0.5"/>
<path d="M11.6665 55.6499C12.3937 55.6499 12.9832 55.0604 12.9832 54.3332C12.9832 53.6061 12.3937 53.0166 11.6665 53.0166C10.9394 53.0166 10.3499 53.6061 10.3499 54.3332C10.3499 55.0604 10.9394 55.6499 11.6665 55.6499Z" fill="#FC6238" stroke="#FC6238" stroke-width="0.5"/>
<path d="M54.3334 12.9829C55.0606 12.9829 55.65 12.3934 55.65 11.6662C55.65 10.9391 55.0606 10.3496 54.3334 10.3496C53.6063 10.3496 53.0168 10.9391 53.0168 11.6662C53.0168 12.3934 53.6063 12.9829 54.3334 12.9829Z" fill="#FC6238" stroke="#FC6238" stroke-width="0.5"/>
<path d="M54.3334 55.6499C55.0606 55.6499 55.65 55.0604 55.65 54.3332C55.65 53.6061 55.0606 53.0166 54.3334 53.0166C53.6063 53.0166 53.0168 53.6061 53.0168 54.3332C53.0168 55.0604 53.6063 55.6499 54.3334 55.6499Z" fill="#FC6238" stroke="#FC6238" stroke-width="0.5"/>
<mask id="path-6-outside-2_248_1848" maskUnits="userSpaceOnUse" x="11.7331" y="9.59961" width="43" height="47" fill="black">
<rect fill="white" x="11.7331" y="9.59961" width="43" height="47"/>
<path d="M12.7334 32.9998C12.7219 34.1755 13.0481 35.3298 13.6731 36.3257C12.3029 38.6273 12.4415 41.5253 14.0251 43.6857C14.051 43.7194 14.0581 43.7639 14.0444 43.804C13.9235 44.3107 13.863 44.8298 13.8641 45.3507C13.8944 48.7293 16.4103 51.5688 19.7607 52.0057C21.2849 54.2146 23.8315 55.4924 26.5135 55.3941C29.1955 55.2957 31.6417 53.8349 33.0002 51.5203C34.4094 53.9239 36.9872 55.4004 39.7736 55.3998C42.3822 55.3892 44.8221 54.1083 46.3122 51.9673C49.634 51.5289 52.1213 48.7044 52.1362 45.3539C52.1373 44.8327 52.0768 44.3132 51.956 43.8062C51.9425 43.7659 51.9497 43.7217 51.9752 43.6878C53.5482 41.5424 53.6971 38.6678 52.3538 36.3715C52.9518 35.3485 53.2671 34.1848 53.267 32.9998C53.2732 31.4243 52.7043 29.9008 51.667 28.715C51.977 27.9343 52.1355 27.1016 52.1342 26.2616C52.1137 23.456 50.2611 20.9936 47.5709 20.1965C47.6017 19.9759 47.6188 19.7536 47.6222 19.5309C47.5821 16.7271 45.4671 14.3887 42.6814 14.0685C41.9133 12.1969 40.1933 10.8867 38.1849 10.6434C36.1766 10.4 34.1934 11.2612 33.0004 12.8951C31.9458 11.4517 30.2653 10.5987 28.4778 10.5996C27.223 10.6026 26.0049 11.0229 25.0154 11.7942C24.2737 12.3765 23.7062 13.1514 23.3749 14.0342C20.5694 14.3575 18.4343 16.7041 18.3765 19.5276C18.3793 19.7591 18.3989 19.9901 18.4351 20.2189C15.7449 21.0015 13.8868 23.4566 13.8645 26.2584C13.855 27.0829 14.0189 27.9003 14.3456 28.6573C13.3064 29.8659 12.7348 31.4063 12.7334 32.9998ZM26.6 33.8532C26.6384 32.2782 27.0625 30.7365 27.8353 29.3635C27.8459 29.3464 27.8545 29.3304 27.864 29.3134C29.0448 27.1854 30.9307 25.5331 33.0001 25.5331C35.0694 25.5331 36.9553 27.1854 38.1361 29.3134C38.1457 29.3305 38.1542 29.3465 38.1648 29.3635C38.9376 30.7365 39.3617 32.2782 39.4001 33.8532C39.4338 37.0294 37.1872 39.7735 34.0667 40.3673V30.8665C34.0667 30.2774 33.5891 29.7999 33.0001 29.7999C32.4109 29.7999 31.9334 30.2775 31.9334 30.8665V40.3673C28.8129 39.7734 26.5663 37.0294 26.6 33.8532ZM15.5066 35.324C15.0883 34.6209 14.8671 33.818 14.8666 32.9998C14.8621 31.9146 15.2523 30.865 15.9643 30.0461C16.4673 29.4598 16.6018 28.6421 16.313 27.9256C16.1014 27.3953 15.9928 26.8295 15.993 26.2584C16.0088 24.3795 17.273 22.7408 19.0864 22.2488C20.0912 21.9416 20.7138 20.9388 20.5435 19.9021C20.5209 19.7768 20.508 19.6498 20.5052 19.5224C20.5807 17.7777 21.9128 16.3466 23.6475 16.1464C24.3868 16.0475 25.0155 15.5585 25.2934 14.8664C25.5178 14.319 25.877 13.8371 26.3377 13.4659C27.3755 12.6539 28.7843 12.5014 29.9718 13.0725C31.1593 13.6436 31.9198 14.8394 31.9333 16.157V18.0664C31.9333 18.6555 32.4109 19.133 32.9999 19.133C33.5891 19.133 34.0666 18.6554 34.0666 18.0664V16.157C34.0791 14.5151 35.2469 13.1094 36.8587 12.7961C38.4704 12.4829 40.0798 13.3486 40.7066 14.8664C40.9847 15.5579 41.6128 16.0466 42.3513 16.1464C44.0867 16.3484 45.4178 17.7821 45.4906 19.5278C45.4874 19.662 45.4761 19.796 45.4564 19.9289C45.3262 20.9511 45.9417 21.9215 46.9221 22.2393C48.7336 22.7374 49.9925 24.3798 50.0026 26.2585C50.0027 26.8299 49.8941 27.396 49.6826 27.9268C49.3941 28.643 49.5286 29.4603 50.0313 30.0463C50.7448 30.8645 51.1365 31.9143 51.1332 32.9999C51.1327 33.8182 50.9116 34.621 50.4932 35.3242C50.1081 35.9718 50.1101 36.7788 50.4986 37.4244C50.9168 38.1247 51.1362 38.9257 51.1332 39.7412C51.1318 40.709 50.8221 41.6513 50.249 42.4313C49.8568 42.972 49.7226 43.6579 49.8821 44.3065C49.9633 44.649 50.0038 44.9999 50.0026 45.3519C49.9926 47.6336 48.2978 49.5566 46.0357 49.8533C45.4064 49.9343 44.8414 50.2791 44.4816 50.8016C43.0649 52.8542 40.4804 53.7507 38.0971 53.0162C35.7137 52.2817 34.0821 50.0859 34.0667 47.5919V42.5242C36.0123 42.2685 37.8081 41.343 39.1451 39.9065L41.3104 40.9498L41.6368 43.7167C41.6999 44.2529 42.1539 44.6574 42.6939 44.6585C42.7363 44.6587 42.7788 44.6562 42.8208 44.651C43.4057 44.582 43.8241 44.052 43.7552 43.467L43.4288 40.7002C43.3459 39.9744 42.8953 39.3425 42.2363 39.0277L40.4229 38.154C41.1149 36.9007 41.4923 35.498 41.5227 34.0665H44.2961L46.1168 35.8873C46.5353 36.2915 47.2007 36.2858 47.6121 35.8743C48.0236 35.4628 48.0293 34.7975 47.6251 34.379L45.8001 32.5582C45.4011 32.1567 44.8578 31.9315 44.2918 31.933H41.3457C41.1419 30.8825 40.8019 29.863 40.3344 28.9005L42.0667 26.5998H44.7333C45.3224 26.5998 45.7999 26.1221 45.7999 25.5331C45.7999 24.9441 45.3223 24.4665 44.7333 24.4665H42.0667C41.3956 24.468 40.7639 24.7839 40.3601 25.3199L39.1483 26.9316C38.3551 25.837 37.3367 24.9248 36.1617 24.2564L37.1889 21.6623C37.4057 21.1144 37.1373 20.4945 36.5894 20.2778C36.0416 20.061 35.4217 20.3294 35.2049 20.8773L34.1564 23.5269C33.3923 23.3619 32.6017 23.3619 31.8375 23.5269L30.789 20.8773C30.5723 20.3294 29.9524 20.061 29.4045 20.2778C28.8567 20.4945 28.5883 21.1144 28.805 21.6623L29.8323 24.2564C28.6572 24.9248 27.6388 25.8369 26.8457 26.9316L25.6403 25.3199C25.2364 24.7839 24.6048 24.468 23.9337 24.4665H21.267C20.6779 24.4665 20.2004 24.9441 20.2004 25.5331C20.2004 26.1221 20.678 26.5998 21.267 26.5998H23.9337L25.6649 28.9005C25.1978 29.8631 24.8583 30.8826 24.6548 31.933H21.7087C21.1425 31.9315 20.5994 32.1565 20.2004 32.5582L18.3796 34.3789C18.1024 34.6468 17.9911 35.0433 18.0888 35.4163C18.1864 35.7892 18.4776 36.0805 18.8505 36.178C19.2235 36.2757 19.62 36.1644 19.8879 35.8872L21.7087 34.0664H24.482C24.5127 35.4979 24.8904 36.9005 25.5828 38.1539L23.7694 39.0275C23.1104 39.3424 22.6598 39.9744 22.5769 40.7L22.2505 43.4669C22.1817 44.0519 22.6 44.5819 23.1849 44.6509C23.227 44.6561 23.2694 44.6586 23.3118 44.6584C23.8518 44.6573 24.3057 44.2528 24.3689 43.7165L24.6889 40.9497L26.8553 39.9064C28.1923 41.3428 29.988 42.2684 31.9337 42.524V47.5918C31.9173 50.0854 30.2854 52.2803 27.9023 53.0142C25.5192 53.7481 22.9352 52.8516 21.5188 50.7992C21.1588 50.2778 20.5942 49.9338 19.9657 49.8531C17.7038 49.5569 16.0088 47.6349 15.9976 45.3538C15.9964 45.0022 16.0369 44.6517 16.1181 44.3095C16.2778 43.6605 16.1435 42.9743 15.7513 42.4333C15.1776 41.6528 14.8679 40.7097 14.867 39.741C14.866 38.925 15.0873 38.124 15.507 37.4243C15.8935 36.7777 15.8935 35.9707 15.5066 35.324Z"/>
</mask>
<path d="M12.7334 32.9998C12.7219 34.1755 13.0481 35.3298 13.6731 36.3257C12.3029 38.6273 12.4415 41.5253 14.0251 43.6857C14.051 43.7194 14.0581 43.7639 14.0444 43.804C13.9235 44.3107 13.863 44.8298 13.8641 45.3507C13.8944 48.7293 16.4103 51.5688 19.7607 52.0057C21.2849 54.2146 23.8315 55.4924 26.5135 55.3941C29.1955 55.2957 31.6417 53.8349 33.0002 51.5203C34.4094 53.9239 36.9872 55.4004 39.7736 55.3998C42.3822 55.3892 44.8221 54.1083 46.3122 51.9673C49.634 51.5289 52.1213 48.7044 52.1362 45.3539C52.1373 44.8327 52.0768 44.3132 51.956 43.8062C51.9425 43.7659 51.9497 43.7217 51.9752 43.6878C53.5482 41.5424 53.6971 38.6678 52.3538 36.3715C52.9518 35.3485 53.2671 34.1848 53.267 32.9998C53.2732 31.4243 52.7043 29.9008 51.667 28.715C51.977 27.9343 52.1355 27.1016 52.1342 26.2616C52.1137 23.456 50.2611 20.9936 47.5709 20.1965C47.6017 19.9759 47.6188 19.7536 47.6222 19.5309C47.5821 16.7271 45.4671 14.3887 42.6814 14.0685C41.9133 12.1969 40.1933 10.8867 38.1849 10.6434C36.1766 10.4 34.1934 11.2612 33.0004 12.8951C31.9458 11.4517 30.2653 10.5987 28.4778 10.5996C27.223 10.6026 26.0049 11.0229 25.0154 11.7942C24.2737 12.3765 23.7062 13.1514 23.3749 14.0342C20.5694 14.3575 18.4343 16.7041 18.3765 19.5276C18.3793 19.7591 18.3989 19.9901 18.4351 20.2189C15.7449 21.0015 13.8868 23.4566 13.8645 26.2584C13.855 27.0829 14.0189 27.9003 14.3456 28.6573C13.3064 29.8659 12.7348 31.4063 12.7334 32.9998ZM26.6 33.8532C26.6384 32.2782 27.0625 30.7365 27.8353 29.3635C27.8459 29.3464 27.8545 29.3304 27.864 29.3134C29.0448 27.1854 30.9307 25.5331 33.0001 25.5331C35.0694 25.5331 36.9553 27.1854 38.1361 29.3134C38.1457 29.3305 38.1542 29.3465 38.1648 29.3635C38.9376 30.7365 39.3617 32.2782 39.4001 33.8532C39.4338 37.0294 37.1872 39.7735 34.0667 40.3673V30.8665C34.0667 30.2774 33.5891 29.7999 33.0001 29.7999C32.4109 29.7999 31.9334 30.2775 31.9334 30.8665V40.3673C28.8129 39.7734 26.5663 37.0294 26.6 33.8532ZM15.5066 35.324C15.0883 34.6209 14.8671 33.818 14.8666 32.9998C14.8621 31.9146 15.2523 30.865 15.9643 30.0461C16.4673 29.4598 16.6018 28.6421 16.313 27.9256C16.1014 27.3953 15.9928 26.8295 15.993 26.2584C16.0088 24.3795 17.273 22.7408 19.0864 22.2488C20.0912 21.9416 20.7138 20.9388 20.5435 19.9021C20.5209 19.7768 20.508 19.6498 20.5052 19.5224C20.5807 17.7777 21.9128 16.3466 23.6475 16.1464C24.3868 16.0475 25.0155 15.5585 25.2934 14.8664C25.5178 14.319 25.877 13.8371 26.3377 13.4659C27.3755 12.6539 28.7843 12.5014 29.9718 13.0725C31.1593 13.6436 31.9198 14.8394 31.9333 16.157V18.0664C31.9333 18.6555 32.4109 19.133 32.9999 19.133C33.5891 19.133 34.0666 18.6554 34.0666 18.0664V16.157C34.0791 14.5151 35.2469 13.1094 36.8587 12.7961C38.4704 12.4829 40.0798 13.3486 40.7066 14.8664C40.9847 15.5579 41.6128 16.0466 42.3513 16.1464C44.0867 16.3484 45.4178 17.7821 45.4906 19.5278C45.4874 19.662 45.4761 19.796 45.4564 19.9289C45.3262 20.9511 45.9417 21.9215 46.9221 22.2393C48.7336 22.7374 49.9925 24.3798 50.0026 26.2585C50.0027 26.8299 49.8941 27.396 49.6826 27.9268C49.3941 28.643 49.5286 29.4603 50.0313 30.0463C50.7448 30.8645 51.1365 31.9143 51.1332 32.9999C51.1327 33.8182 50.9116 34.621 50.4932 35.3242C50.1081 35.9718 50.1101 36.7788 50.4986 37.4244C50.9168 38.1247 51.1362 38.9257 51.1332 39.7412C51.1318 40.709 50.8221 41.6513 50.249 42.4313C49.8568 42.972 49.7226 43.6579 49.8821 44.3065C49.9633 44.649 50.0038 44.9999 50.0026 45.3519C49.9926 47.6336 48.2978 49.5566 46.0357 49.8533C45.4064 49.9343 44.8414 50.2791 44.4816 50.8016C43.0649 52.8542 40.4804 53.7507 38.0971 53.0162C35.7137 52.2817 34.0821 50.0859 34.0667 47.5919V42.5242C36.0123 42.2685 37.8081 41.343 39.1451 39.9065L41.3104 40.9498L41.6368 43.7167C41.6999 44.2529 42.1539 44.6574 42.6939 44.6585C42.7363 44.6587 42.7788 44.6562 42.8208 44.651C43.4057 44.582 43.8241 44.052 43.7552 43.467L43.4288 40.7002C43.3459 39.9744 42.8953 39.3425 42.2363 39.0277L40.4229 38.154C41.1149 36.9007 41.4923 35.498 41.5227 34.0665H44.2961L46.1168 35.8873C46.5353 36.2915 47.2007 36.2858 47.6121 35.8743C48.0236 35.4628 48.0293 34.7975 47.6251 34.379L45.8001 32.5582C45.4011 32.1567 44.8578 31.9315 44.2918 31.933H41.3457C41.1419 30.8825 40.8019 29.863 40.3344 28.9005L42.0667 26.5998H44.7333C45.3224 26.5998 45.7999 26.1221 45.7999 25.5331C45.7999 24.9441 45.3223 24.4665 44.7333 24.4665H42.0667C41.3956 24.468 40.7639 24.7839 40.3601 25.3199L39.1483 26.9316C38.3551 25.837 37.3367 24.9248 36.1617 24.2564L37.1889 21.6623C37.4057 21.1144 37.1373 20.4945 36.5894 20.2778C36.0416 20.061 35.4217 20.3294 35.2049 20.8773L34.1564 23.5269C33.3923 23.3619 32.6017 23.3619 31.8375 23.5269L30.789 20.8773C30.5723 20.3294 29.9524 20.061 29.4045 20.2778C28.8567 20.4945 28.5883 21.1144 28.805 21.6623L29.8323 24.2564C28.6572 24.9248 27.6388 25.8369 26.8457 26.9316L25.6403 25.3199C25.2364 24.7839 24.6048 24.468 23.9337 24.4665H21.267C20.6779 24.4665 20.2004 24.9441 20.2004 25.5331C20.2004 26.1221 20.678 26.5998 21.267 26.5998H23.9337L25.6649 28.9005C25.1978 29.8631 24.8583 30.8826 24.6548 31.933H21.7087C21.1425 31.9315 20.5994 32.1565 20.2004 32.5582L18.3796 34.3789C18.1024 34.6468 17.9911 35.0433 18.0888 35.4163C18.1864 35.7892 18.4776 36.0805 18.8505 36.178C19.2235 36.2757 19.62 36.1644 19.8879 35.8872L21.7087 34.0664H24.482C24.5127 35.4979 24.8904 36.9005 25.5828 38.1539L23.7694 39.0275C23.1104 39.3424 22.6598 39.9744 22.5769 40.7L22.2505 43.4669C22.1817 44.0519 22.6 44.5819 23.1849 44.6509C23.227 44.6561 23.2694 44.6586 23.3118 44.6584C23.8518 44.6573 24.3057 44.2528 24.3689 43.7165L24.6889 40.9497L26.8553 39.9064C28.1923 41.3428 29.988 42.2684 31.9337 42.524V47.5918C31.9173 50.0854 30.2854 52.2803 27.9023 53.0142C25.5192 53.7481 22.9352 52.8516 21.5188 50.7992C21.1588 50.2778 20.5942 49.9338 19.9657 49.8531C17.7038 49.5569 16.0088 47.6349 15.9976 45.3538C15.9964 45.0022 16.0369 44.6517 16.1181 44.3095C16.2778 43.6605 16.1435 42.9743 15.7513 42.4333C15.1776 41.6528 14.8679 40.7097 14.867 39.741C14.866 38.925 15.0873 38.124 15.507 37.4243C15.8935 36.7777 15.8935 35.9707 15.5066 35.324Z" fill="#FC6238"/>
<path d="M12.7334 32.9998C12.7219 34.1755 13.0481 35.3298 13.6731 36.3257C12.3029 38.6273 12.4415 41.5253 14.0251 43.6857C14.051 43.7194 14.0581 43.7639 14.0444 43.804C13.9235 44.3107 13.863 44.8298 13.8641 45.3507C13.8944 48.7293 16.4103 51.5688 19.7607 52.0057C21.2849 54.2146 23.8315 55.4924 26.5135 55.3941C29.1955 55.2957 31.6417 53.8349 33.0002 51.5203C34.4094 53.9239 36.9872 55.4004 39.7736 55.3998C42.3822 55.3892 44.8221 54.1083 46.3122 51.9673C49.634 51.5289 52.1213 48.7044 52.1362 45.3539C52.1373 44.8327 52.0768 44.3132 51.956 43.8062C51.9425 43.7659 51.9497 43.7217 51.9752 43.6878C53.5482 41.5424 53.6971 38.6678 52.3538 36.3715C52.9518 35.3485 53.2671 34.1848 53.267 32.9998C53.2732 31.4243 52.7043 29.9008 51.667 28.715C51.977 27.9343 52.1355 27.1016 52.1342 26.2616C52.1137 23.456 50.2611 20.9936 47.5709 20.1965C47.6017 19.9759 47.6188 19.7536 47.6222 19.5309C47.5821 16.7271 45.4671 14.3887 42.6814 14.0685C41.9133 12.1969 40.1933 10.8867 38.1849 10.6434C36.1766 10.4 34.1934 11.2612 33.0004 12.8951C31.9458 11.4517 30.2653 10.5987 28.4778 10.5996C27.223 10.6026 26.0049 11.0229 25.0154 11.7942C24.2737 12.3765 23.7062 13.1514 23.3749 14.0342C20.5694 14.3575 18.4343 16.7041 18.3765 19.5276C18.3793 19.7591 18.3989 19.9901 18.4351 20.2189C15.7449 21.0015 13.8868 23.4566 13.8645 26.2584C13.855 27.0829 14.0189 27.9003 14.3456 28.6573C13.3064 29.8659 12.7348 31.4063 12.7334 32.9998ZM26.6 33.8532C26.6384 32.2782 27.0625 30.7365 27.8353 29.3635C27.8459 29.3464 27.8545 29.3304 27.864 29.3134C29.0448 27.1854 30.9307 25.5331 33.0001 25.5331C35.0694 25.5331 36.9553 27.1854 38.1361 29.3134C38.1457 29.3305 38.1542 29.3465 38.1648 29.3635C38.9376 30.7365 39.3617 32.2782 39.4001 33.8532C39.4338 37.0294 37.1872 39.7735 34.0667 40.3673V30.8665C34.0667 30.2774 33.5891 29.7999 33.0001 29.7999C32.4109 29.7999 31.9334 30.2775 31.9334 30.8665V40.3673C28.8129 39.7734 26.5663 37.0294 26.6 33.8532ZM15.5066 35.324C15.0883 34.6209 14.8671 33.818 14.8666 32.9998C14.8621 31.9146 15.2523 30.865 15.9643 30.0461C16.4673 29.4598 16.6018 28.6421 16.313 27.9256C16.1014 27.3953 15.9928 26.8295 15.993 26.2584C16.0088 24.3795 17.273 22.7408 19.0864 22.2488C20.0912 21.9416 20.7138 20.9388 20.5435 19.9021C20.5209 19.7768 20.508 19.6498 20.5052 19.5224C20.5807 17.7777 21.9128 16.3466 23.6475 16.1464C24.3868 16.0475 25.0155 15.5585 25.2934 14.8664C25.5178 14.319 25.877 13.8371 26.3377 13.4659C27.3755 12.6539 28.7843 12.5014 29.9718 13.0725C31.1593 13.6436 31.9198 14.8394 31.9333 16.157V18.0664C31.9333 18.6555 32.4109 19.133 32.9999 19.133C33.5891 19.133 34.0666 18.6554 34.0666 18.0664V16.157C34.0791 14.5151 35.2469 13.1094 36.8587 12.7961C38.4704 12.4829 40.0798 13.3486 40.7066 14.8664C40.9847 15.5579 41.6128 16.0466 42.3513 16.1464C44.0867 16.3484 45.4178 17.7821 45.4906 19.5278C45.4874 19.662 45.4761 19.796 45.4564 19.9289C45.3262 20.9511 45.9417 21.9215 46.9221 22.2393C48.7336 22.7374 49.9925 24.3798 50.0026 26.2585C50.0027 26.8299 49.8941 27.396 49.6826 27.9268C49.3941 28.643 49.5286 29.4603 50.0313 30.0463C50.7448 30.8645 51.1365 31.9143 51.1332 32.9999C51.1327 33.8182 50.9116 34.621 50.4932 35.3242C50.1081 35.9718 50.1101 36.7788 50.4986 37.4244C50.9168 38.1247 51.1362 38.9257 51.1332 39.7412C51.1318 40.709 50.8221 41.6513 50.249 42.4313C49.8568 42.972 49.7226 43.6579 49.8821 44.3065C49.9633 44.649 50.0038 44.9999 50.0026 45.3519C49.9926 47.6336 48.2978 49.5566 46.0357 49.8533C45.4064 49.9343 44.8414 50.2791 44.4816 50.8016C43.0649 52.8542 40.4804 53.7507 38.0971 53.0162C35.7137 52.2817 34.0821 50.0859 34.0667 47.5919V42.5242C36.0123 42.2685 37.8081 41.343 39.1451 39.9065L41.3104 40.9498L41.6368 43.7167C41.6999 44.2529 42.1539 44.6574 42.6939 44.6585C42.7363 44.6587 42.7788 44.6562 42.8208 44.651C43.4057 44.582 43.8241 44.052 43.7552 43.467L43.4288 40.7002C43.3459 39.9744 42.8953 39.3425 42.2363 39.0277L40.4229 38.154C41.1149 36.9007 41.4923 35.498 41.5227 34.0665H44.2961L46.1168 35.8873C46.5353 36.2915 47.2007 36.2858 47.6121 35.8743C48.0236 35.4628 48.0293 34.7975 47.6251 34.379L45.8001 32.5582C45.4011 32.1567 44.8578 31.9315 44.2918 31.933H41.3457C41.1419 30.8825 40.8019 29.863 40.3344 28.9005L42.0667 26.5998H44.7333C45.3224 26.5998 45.7999 26.1221 45.7999 25.5331C45.7999 24.9441 45.3223 24.4665 44.7333 24.4665H42.0667C41.3956 24.468 40.7639 24.7839 40.3601 25.3199L39.1483 26.9316C38.3551 25.837 37.3367 24.9248 36.1617 24.2564L37.1889 21.6623C37.4057 21.1144 37.1373 20.4945 36.5894 20.2778C36.0416 20.061 35.4217 20.3294 35.2049 20.8773L34.1564 23.5269C33.3923 23.3619 32.6017 23.3619 31.8375 23.5269L30.789 20.8773C30.5723 20.3294 29.9524 20.061 29.4045 20.2778C28.8567 20.4945 28.5883 21.1144 28.805 21.6623L29.8323 24.2564C28.6572 24.9248 27.6388 25.8369 26.8457 26.9316L25.6403 25.3199C25.2364 24.7839 24.6048 24.468 23.9337 24.4665H21.267C20.6779 24.4665 20.2004 24.9441 20.2004 25.5331C20.2004 26.1221 20.678 26.5998 21.267 26.5998H23.9337L25.6649 28.9005C25.1978 29.8631 24.8583 30.8826 24.6548 31.933H21.7087C21.1425 31.9315 20.5994 32.1565 20.2004 32.5582L18.3796 34.3789C18.1024 34.6468 17.9911 35.0433 18.0888 35.4163C18.1864 35.7892 18.4776 36.0805 18.8505 36.178C19.2235 36.2757 19.62 36.1644 19.8879 35.8872L21.7087 34.0664H24.482C24.5127 35.4979 24.8904 36.9005 25.5828 38.1539L23.7694 39.0275C23.1104 39.3424 22.6598 39.9744 22.5769 40.7L22.2505 43.4669C22.1817 44.0519 22.6 44.5819 23.1849 44.6509C23.227 44.6561 23.2694 44.6586 23.3118 44.6584C23.8518 44.6573 24.3057 44.2528 24.3689 43.7165L24.6889 40.9497L26.8553 39.9064C28.1923 41.3428 29.988 42.2684 31.9337 42.524V47.5918C31.9173 50.0854 30.2854 52.2803 27.9023 53.0142C25.5192 53.7481 22.9352 52.8516 21.5188 50.7992C21.1588 50.2778 20.5942 49.9338 19.9657 49.8531C17.7038 49.5569 16.0088 47.6349 15.9976 45.3538C15.9964 45.0022 16.0369 44.6517 16.1181 44.3095C16.2778 43.6605 16.1435 42.9743 15.7513 42.4333C15.1776 41.6528 14.8679 40.7097 14.867 39.741C14.866 38.925 15.0873 38.124 15.507 37.4243C15.8935 36.7777 15.8935 35.9707 15.5066 35.324Z" stroke="#FC6238" mask="url(#path-6-outside-2_248_1848)"/>
</svg>
