<svg width="64" height="65" viewBox="0 0 64 65" fill="none" xmlns="http://www.w3.org/2000/svg">
<g clip-path="url(#clip0_248_1900)">
<path d="M15.5862 29.0178C15.2444 28.5007 14.5381 28.3407 14.0054 28.6478L14.0054 28.6478C13.4288 28.9803 13.2426 29.7399 13.5907 30.3023L13.5907 30.3023C13.9298 30.8502 14.6624 31.0239 15.2123 30.6926C15.7825 30.3491 15.9601 29.5739 15.5862 29.0178Z" fill="#FC6238" stroke="#FC6238" stroke-width="0.5"/>
<path d="M17.7894 30.3361L17.7894 30.3361C17.4324 29.806 17.575 29.068 18.0957 28.705L17.7894 30.3361ZM17.7894 30.3361L17.7903 30.3374M17.7894 30.3361L17.7903 30.3374M17.7903 30.3374C18.1702 30.8935 18.9543 31.0357 19.4991 30.6187L19.4991 30.6186M17.7903 30.3374L19.4991 30.6186M19.4991 30.6186C20.0159 30.2228 20.1163 29.4575 19.7108 28.9439L19.7108 28.9439M19.4991 30.6186L19.7108 28.9439M19.7108 28.9439C19.3233 28.453 18.6086 28.3473 18.0958 28.705L19.7108 28.9439Z" fill="#FC6238" stroke="#FC6238" stroke-width="0.5"/>
<path d="M45.8282 30.8643C46.4841 30.8643 47.0157 30.3326 47.0157 29.6768C47.0157 29.021 46.4841 28.4893 45.8282 28.4893H29.707C29.0511 28.4893 28.5195 29.021 28.5195 29.6768C28.5195 30.3326 29.0511 30.8643 29.707 30.8643H45.8282Z" fill="#FC6238" stroke="#FC6238" stroke-width="0.5"/>
<path d="M15.6954 43.4205L15.6954 43.4204L15.6948 43.419C15.4557 42.8513 14.8056 42.5515 14.2173 42.7513L14.2172 42.7513C13.59 42.9644 13.2526 43.6718 13.4885 44.2937L13.4885 44.2937C13.7187 44.9004 14.4099 45.2159 15.0198 44.9847L15.0198 44.9847C15.6393 44.7496 15.9486 44.0326 15.6954 43.4205Z" fill="#FC6238" stroke="#FC6238" stroke-width="0.5"/>
<path d="M18.054 44.8164L18.054 44.8164C18.5927 45.2288 19.3877 45.0988 19.7649 44.5328L19.7649 44.5328C20.1224 43.9965 19.9781 43.2454 19.4355 42.8874C18.924 42.5433 18.2196 42.6636 17.8427 43.1418C17.4385 43.6545 17.5366 44.4202 18.054 44.8164Z" fill="#FC6238" stroke="#FC6238" stroke-width="0.5"/>
<path d="M45.8282 42.6875H29.707C29.0511 42.6875 28.5195 43.2192 28.5195 43.875C28.5195 44.5308 29.0511 45.0625 29.707 45.0625H45.8282C46.4841 45.0625 47.0157 44.5308 47.0157 43.875C47.0157 43.2192 46.484 42.6875 45.8282 42.6875Z" fill="#FC6238" stroke="#FC6238" stroke-width="0.5"/>
<path d="M15.6954 57.6176L15.6954 57.6176L15.6948 57.6162C15.4556 57.0486 14.8055 56.7487 14.2172 56.9485L14.2172 56.9485C13.59 57.1616 13.2526 57.8691 13.4885 58.4909L13.4885 58.4909C13.7187 59.0976 14.4097 59.4132 15.0197 59.182L15.0198 59.182C15.6391 58.9471 15.9489 58.23 15.6954 57.6176Z" fill="#FC6238" stroke="#FC6238" stroke-width="0.5"/>
<path d="M18.0549 59.0148L18.0549 59.0149C18.592 59.4223 19.3866 59.2989 19.7649 58.7312L19.7649 58.7312C20.1223 58.195 19.9782 57.4428 19.4355 57.0846C18.9242 56.7407 18.2189 56.8605 17.8424 57.3397C17.4415 57.8501 17.5333 58.6191 18.0549 59.0148ZM18.2054 58.8165L18.2056 58.8163L18.2054 58.8165ZM18.206 58.8157L18.2058 58.816L18.206 58.8157Z" fill="#FC6238" stroke="#FC6238" stroke-width="0.5"/>
<path d="M54.5311 5.36476L54.5311 5.36477C53.9445 6.38088 53.9445 7.64242 54.5311 8.65864L54.5311 8.65868C54.9121 9.31832 55.5063 9.81419 56.1963 10.0816V15.7208C56.1756 15.7201 56.1548 15.7198 56.1338 15.7198H52.4536C52.3934 15.5628 52.3208 15.4091 52.2348 15.2603C51.6483 14.2441 50.5556 13.6134 49.3824 13.6134C48.2091 13.6134 47.1164 14.2443 46.5299 15.2603C45.9431 16.2764 45.9431 17.5381 46.5299 18.5543C47.1165 19.5704 48.2092 20.2011 49.3824 20.2011C50.5557 20.2011 51.6482 19.5703 52.2348 18.5544C52.3208 18.4056 52.3934 18.2517 52.4536 18.0948H56.1338C56.168 18.0948 56.1963 18.123 56.1963 18.1573V28.4273C56.1963 28.4615 56.168 28.4898 56.1338 28.4898H53.9893C53.3333 28.4898 52.8018 29.0215 52.8018 29.6773C52.8018 30.3331 53.3333 30.8648 53.9893 30.8648H56.1338C57.4779 30.8648 58.5713 29.7715 58.5713 28.4273V10.0816C59.2612 9.81419 59.8554 9.31833 60.2362 8.65867C60.823 7.64255 60.823 6.38086 60.2362 5.36464C59.6496 4.34854 58.5571 3.71777 57.3838 3.71777C56.2106 3.71777 55.1179 4.34855 54.5311 5.36476ZM56.588 6.55243L56.588 6.55236C56.7515 6.26916 57.0569 6.0929 57.3839 6.0929C57.7108 6.0929 58.0161 6.26923 58.1796 6.55239C58.3431 6.83553 58.3431 7.188 58.1796 7.47131C58.0161 7.75434 57.7108 7.93065 57.3839 7.93065C57.0569 7.93065 56.7514 7.75428 56.588 7.47125C56.4245 7.18824 56.4245 6.83544 56.588 6.55243ZM50.1782 16.4481L50.1783 16.4482C50.3417 16.7312 50.3417 17.0836 50.1782 17.3669C50.0148 17.65 49.7094 17.8263 49.3825 17.8263C49.0556 17.8263 48.7502 17.6499 48.5868 17.3668C48.4233 17.0836 48.4233 16.731 48.5868 16.4479C48.7502 16.1648 49.0555 15.9885 49.3825 15.9885C49.7094 15.9885 50.0147 16.1648 50.1782 16.4481Z" fill="#FC6238" stroke="#FC6238" stroke-width="0.5"/>
<path d="M5.8959 8.65853L5.89589 8.65854C5.51491 9.31831 4.92069 9.81419 4.23077 10.0816V15.7208C4.25142 15.7201 4.27226 15.7198 4.29327 15.7198H7.97327C8.03349 15.5628 8.1061 15.409 8.192 15.2603C8.77854 14.2443 9.8712 13.6134 11.0445 13.6134C12.2178 13.6134 13.3105 14.2442 13.897 15.2604C14.4838 16.2764 14.4838 17.5381 13.897 18.5543C13.3104 19.5704 12.218 20.2011 11.0446 20.2011C9.87136 20.2011 8.77886 19.5704 8.19219 18.5544C8.10622 18.4056 8.03366 18.2518 7.97345 18.0949H4.29327C4.25903 18.0949 4.23077 18.1232 4.23077 18.1574V41.6613C4.23077 42.385 4.81985 42.9741 5.54364 42.9741H6.43777C7.09373 42.9741 7.62527 43.5058 7.62527 44.1616C7.62527 44.8174 7.09373 45.3491 6.43777 45.3491H5.54364C3.50995 45.3491 1.85577 43.6951 1.85577 41.6613V10.0816C1.16576 9.8142 0.571646 9.31832 0.19078 8.65856L5.8959 8.65853ZM5.8959 8.65853C6.48256 7.64241 6.48254 6.38087 5.89591 5.36455L5.89588 5.36449M5.8959 8.65853L5.89588 5.36449M5.89588 5.36449C5.30909 4.34854 4.21645 3.71777 3.04327 3.71777C1.86993 3.71777 0.777417 4.34869 0.190767 5.36463L0.190765 5.36464M5.89588 5.36449L0.190765 5.36464M0.190765 5.36464C-0.396011 6.38084 -0.396037 7.64251 0.190749 8.65851L0.190765 5.36464ZM10.2489 17.3667L10.2489 17.3667C10.0854 17.0835 10.0854 16.731 10.2489 16.4477C10.4124 16.1646 10.7177 15.9884 11.0446 15.9884C11.3715 15.9884 11.6769 16.1647 11.8404 16.448L11.8404 16.4481C12.0038 16.731 12.0039 17.0835 11.8404 17.3668C11.6769 17.6499 11.3716 17.8261 11.0446 17.8261C10.7177 17.8261 10.4124 17.6499 10.2489 17.3667ZM2.24752 6.55227C2.41098 6.26915 2.71631 6.0929 3.04327 6.0929C3.3702 6.0929 3.67567 6.26925 3.83913 6.55227C4.0026 6.83542 4.0026 7.188 3.83913 7.47115C3.67567 7.7543 3.3702 7.93065 3.04327 7.93065C2.71636 7.93065 2.411 7.75432 2.24752 7.47115C2.08405 7.188 2.08405 6.83542 2.24752 6.55227Z" fill="#FC6238" stroke="#FC6238" stroke-width="0.5"/>
<path d="M32.8804 4.90742C33.4671 3.89132 33.4671 2.62977 32.8804 1.61356L32.8804 1.6135C32.2936 0.597712 31.2011 -0.0332031 30.0279 -0.0332031C28.8547 -0.0332031 27.7621 0.597573 27.1753 1.61379L27.1753 1.61379C26.5886 2.6299 26.5886 3.89145 27.1753 4.90766L27.1753 4.9077C27.5563 5.56735 28.1505 6.06321 28.8404 6.33066V16.3015H23.8599C23.8257 16.3015 23.7974 16.2733 23.7974 16.239V14.02C24.4873 13.7526 25.0816 13.2567 25.4625 12.5969L25.4625 12.5969C26.0492 11.5808 26.0492 10.3193 25.4626 9.30295L25.4625 9.30289C24.8757 8.28694 23.7831 7.65617 22.6099 7.65617C21.4366 7.65617 20.3441 8.28708 19.7574 9.30302C19.1706 10.3191 19.1706 11.581 19.7574 12.5971C20.1383 13.2566 20.7325 13.7525 21.4224 14.02V16.239C21.4224 17.5832 22.5157 18.6765 23.8599 18.6765H28.8404V21.2397C28.8404 21.8955 29.3719 22.4272 30.0279 22.4272C30.6839 22.4272 31.2154 21.8955 31.2154 21.2397V18.6765H36.1958C37.54 18.6765 38.6333 17.5832 38.6333 16.239V14.02C39.3232 13.7526 39.9174 13.2567 40.2984 12.5969L40.2984 12.5969C40.8851 11.5808 40.8851 10.3193 40.2984 9.30295L40.2984 9.30289C39.7116 8.28694 38.619 7.65617 37.4458 7.65617C36.2725 7.65617 35.1799 8.28708 34.5933 9.30303C34.0065 10.3191 34.0065 11.581 34.5933 12.5971C34.9742 13.2567 35.5684 13.7526 36.2583 14.0201V16.2392C36.2583 16.2734 36.23 16.3017 36.1958 16.3017H31.2154V6.33053C31.9053 6.06309 32.4996 5.56722 32.8804 4.90742ZM32.8804 4.90742L32.6639 4.78242L32.8804 4.90742ZM38.2417 11.4094L38.2417 11.4094C38.0782 11.6926 37.7727 11.8689 37.4458 11.8689C37.1189 11.8689 36.8135 11.6926 36.65 11.4094C36.4866 11.1263 36.4866 10.7737 36.65 10.4905C36.8135 10.2074 37.1188 10.0312 37.4458 10.0312C37.7727 10.0312 38.0782 10.2075 38.2417 10.4905C38.4051 10.7737 38.4051 11.1264 38.2417 11.4094ZM29.232 2.80133L29.2321 2.80126C29.3955 2.51806 29.7009 2.3418 30.0279 2.3418C30.3548 2.3418 30.6602 2.51812 30.8237 2.80117C30.9871 3.08431 30.9871 3.4369 30.8236 3.72021C30.6602 4.00324 30.3548 4.17955 30.0279 4.17955C29.701 4.17955 29.3955 4.00318 29.232 3.72014C29.0686 3.43713 29.0686 3.08434 29.232 2.80133ZM23.4058 11.4094L23.4058 11.4094C23.2423 11.6926 22.9369 11.8689 22.6099 11.8689C22.283 11.8689 21.9777 11.6926 21.8142 11.4094C21.6507 11.1263 21.6507 10.7737 21.8142 10.4905C21.9776 10.2074 22.283 10.0312 22.6099 10.0312C22.9368 10.0312 23.2423 10.2075 23.4058 10.4905C23.5693 10.7737 23.5692 11.1264 23.4058 11.4094Z" fill="#FC6238" stroke="#FC6238" stroke-width="0.5"/>
<path d="M12.6206 64.4667H12.6204C10.5664 64.4667 8.89587 62.7963 8.89587 60.7424V55.4021C8.89587 53.6045 10.1753 52.1018 11.8711 51.7541V50.1927C10.1753 49.845 8.89587 48.3423 8.89587 46.5447V41.2045C8.89587 39.4069 10.1753 37.9042 11.8711 37.5565V35.9951C10.1753 35.6474 8.89587 34.1445 8.89587 32.347V27.0067C8.89587 24.9528 10.5664 23.2822 12.6204 23.2822H14.8746C15.5306 23.2822 16.0621 23.8139 16.0621 24.4697C16.0621 25.1255 15.5306 25.6572 14.8746 25.6572H12.6204C11.8764 25.6572 11.2709 26.2628 11.2709 27.0067V32.347C11.2709 33.0909 11.8764 33.6965 12.6204 33.6965H12.6891H12.7578H12.8265H12.8953H12.964H13.0327H13.1014H13.1702H13.2389H13.3076H13.3763H13.4451H13.5138H13.5825H13.6512H13.7199H13.7887H13.8574H13.9261H13.9948H14.0636H14.1323H14.201H14.2697H14.3385H14.4072H14.4759H14.5446H14.6133H14.6821H14.7508H14.8195H14.8882H14.957H15.0257H15.0944H15.1631H15.2319H15.3006H15.3693H15.438H15.5067H15.5755H15.6442H15.7129H15.7816H15.8504H15.9191H15.9878H16.0565H16.1253H16.194H16.2627H16.3314H16.4001H16.4689H16.5376H16.6063H16.675H16.7438H16.8125H16.8812H16.9499H17.0187H17.0874H17.1561H17.2248H17.2935H17.3623H17.431H17.4997H17.5684H17.6372H17.7059H17.7746H17.8433H17.9121H17.9808H18.0495H18.1182H18.1869H18.2557H18.3244H18.3931H18.4618H18.5306H18.5993H18.668H18.7367H18.8055H18.8742H18.9429H19.0116H19.0803H19.1491H19.2178H19.2865H19.3552H19.424H19.4927H19.5614H19.6301H19.6989H19.7676H19.8363H19.905H19.9738H20.0425H20.1112H20.1799H20.2486H20.3174H20.3861H20.4548H20.5235H20.5923H20.661H20.7297H20.7984H20.8672H20.9359H21.0046H21.0733H21.142H21.2108H21.2795H21.3482H21.4169H21.4857H21.5544H21.6231H21.6918H21.7606H21.8293H21.898H21.9667H22.0354H22.1042H22.1729H22.2416H22.3103H22.3791H22.4478H22.5165H22.5852H22.654H22.7227H22.7914H22.8601H22.9288H22.9976H23.0663H23.135H23.2037H23.2725H23.3412H23.4099H23.4786H23.5474H23.6161H23.6848H23.7535H23.8222H23.891H23.9597H24.0284H24.0971H24.1659H24.2346H24.3033H24.372H24.4408H24.5095H24.5782H24.6469H24.7156H24.7844H24.8531H24.9218H24.9905H25.0593H25.128H25.1967H25.2654H25.3342H25.4029H25.4716H25.5403H25.609H25.6778H25.7465H25.8152H25.8839H25.9527H26.0214H26.0901H26.1588H26.2276H26.2963H26.365H26.4337H26.5024H26.5712H26.6399H26.7086H26.7773H26.8461H26.9148H26.9835H27.0522H27.121H27.1897H27.2584H27.3271H27.3959H27.4646H27.5333H27.602H27.6707H27.7395H27.8082H27.8769H27.9456H28.0144H28.0831H28.1518H28.2205H28.2893H28.358H28.4267H28.4954H28.5641H28.6329H28.7016H28.7703H28.839H28.9078H28.9765H29.0452H29.1139H29.1827H29.2514H29.3201H29.3888H29.4575H29.5263H29.595H29.6637H29.7324H29.8012H29.8699H29.9386H30.0073H30.0761H30.1448H30.2135H30.2822H30.3509H30.4197H30.4884H30.5571H30.6258H30.6946H30.7633H30.832H30.9007H30.9695H31.0382H31.1069H31.1756H31.2443H31.3131H31.3818H31.4505H31.5192H31.588H31.6567H31.7254H31.7941H31.8629H31.9316H32.0003H32.069H32.1377H32.2065H32.2752H32.3439H32.4126H32.4814H32.5501H32.6188H32.6875H32.7563H32.825H32.8937H32.9624H33.0311H33.0999H33.1686H33.2373H33.306H33.3748H33.4435H33.5122H33.5809H33.6497H33.7184H33.7871H33.8558H33.9245H33.9933H34.062H34.1307H34.1994H34.2682H34.3369H34.4056H34.4743H34.5431H34.6118H34.6805H34.7492H34.818H34.8867H34.9554H35.0241H35.0928H35.1616H35.2303H35.299H35.3677H35.4365H35.5052H35.5739H35.6426H35.7114H35.7801H35.8488H35.9175H35.9862H36.055H36.1237H36.1924H36.2611H36.3299H36.3986H36.4673H36.536H36.6048H36.6735H36.7422H36.8109H36.8796H36.9484H37.0171H37.0858H37.1545H37.2233H37.292H37.3607H37.4294H37.4982H37.5669H37.6356H37.7043H37.773H37.8418H37.9105H37.9792H38.0479H38.1167H38.1854H38.2541H38.3228H38.3916H38.4603H38.529H38.5977H38.6664H38.7352H38.8039H38.8726H38.9413H39.0101H39.0788H39.1475H39.2162H39.285H39.3537H39.4224H39.4911H39.5598H39.6286H39.6973H39.766H39.8347H39.9035H39.9722H40.0409H40.1096H40.1784H40.2471H40.3158H40.3845H40.4532H40.522H40.5907H40.6594H40.7281H40.7969H40.8656H40.9343H41.003H41.0718H41.1405H41.2092H41.2779H41.3466H41.4154H41.4841H41.5528H41.6215H41.6903H41.759H41.8277H41.8964H41.9652H42.0339H42.1026H42.1713H42.2401H42.3088H42.3775H42.4462H42.5149H42.5837H42.6524H42.7211H42.7898H42.8586H42.9273H42.996H43.0647H43.1334H43.2022H43.2709H43.3396H43.4083H43.4771H43.5458H43.6145H43.6832H43.752H43.8207H43.8894H43.9581H44.0269H44.0956H44.1643H44.233H44.3017H44.3705H44.4392H44.5079H44.5766H44.6454H44.7141H44.7828H44.8515H44.9203H44.989H45.0577H45.1264H45.1951H45.2639H45.3326H45.4013H45.47H45.5388H45.6075H45.6762H45.7449H45.8137H45.8824H45.9511H46.0198H46.0885H46.1573H46.226H46.2947H46.3634H46.4322H46.5009H46.5696H46.6383H46.7071H46.7758H46.8445H46.9132H46.9819H47.0507H47.1194H47.1881H47.2568H47.3256H47.3943H47.463H47.5317H47.6005H47.6692H47.7379H47.8066C48.5506 33.6965 49.1561 33.0909 49.1561 32.347V27.0067C49.1561 26.2628 48.5506 25.6572 47.8066 25.6572H18.6244C17.9684 25.6572 17.4369 25.1255 17.4369 24.4697C17.4369 23.8139 17.9684 23.2822 18.6244 23.2822H47.8066C49.8606 23.2822 51.5311 24.9528 51.5311 27.0067V32.347C51.5311 34.1445 50.2517 35.6474 48.5559 35.9951V37.5565C50.2517 37.9042 51.5311 39.4069 51.5311 41.2045V44.0227L51.6738 43.8563C52.3922 43.0183 53.4375 42.5377 54.5412 42.5377H60.4721C62.5552 42.5377 64.2494 44.232 64.2492 46.3149V60.6486C64.2492 62.7316 62.5551 64.4257 60.472 64.4257H58.115C57.459 64.4257 56.9275 63.894 56.9275 63.2382C56.9275 62.5824 57.459 62.0507 58.115 62.0507H60.472C61.245 62.0507 61.8742 61.4215 61.8742 60.6486V46.3149C61.8742 45.5419 61.2449 44.9126 60.472 44.9126H54.5411C54.1312 44.9126 53.7434 45.0909 53.4767 45.402L51.5183 47.6858C51.0548 48.2265 50.3802 48.5367 49.668 48.5367H40.9198C40.1468 48.5367 39.5176 49.166 39.5176 49.939V60.6486C39.5176 61.4215 40.1468 62.0507 40.9198 62.0507H54.376C55.032 62.0507 55.5635 62.5824 55.5635 63.2382C55.5635 63.8939 55.0321 64.4256 54.3762 64.4257L12.6206 64.4667ZM12.6206 64.4667L54.376 64.4257L12.6206 64.4667ZM46.1809 36.0715V37.4801H14.2461V36.0715H46.1809ZM37.1427 51.6777H14.2461V50.2691H37.1427V51.6777ZM11.2709 60.7425V55.4022C11.2709 54.6584 11.8764 54.0529 12.6204 54.0529H37.1427V56.8848H29.7071C29.0512 56.8848 28.5196 57.4165 28.5196 58.0723C28.5196 58.7281 29.0512 59.2598 29.7071 59.2598H37.1427V60.6488C37.1427 61.1596 37.2449 61.6471 37.4296 62.092H12.6205C11.8764 62.0919 11.2709 61.4862 11.2709 60.7425ZM49.1561 41.2045V46.162H40.9198C39.5894 46.162 38.4188 46.8535 37.7461 47.8941H37.7372H37.6879H37.6386H37.5892H37.5399H37.4906H37.4412H37.3919H37.3425H37.2932H37.2439H37.1945H37.1452H37.0958H37.0465H36.9972H36.9478H36.8985H36.8491H36.7998H36.7505H36.7011H36.6518H36.6024H36.5531H36.5038H36.4544H36.4051H36.3557H36.3064H36.257H36.2077H36.1583H36.109H36.0597H36.0103H35.961H35.9116H35.8623H35.8129H35.7636H35.7142H35.6649H35.6156H35.5662H35.5169H35.4675H35.4182H35.3688H35.3195H35.2701H35.2208H35.1714H35.1221H35.0727H35.0234H34.974H34.9247H34.8753H34.826H34.7766H34.7273H34.6779H34.6286H34.5793H34.5299H34.4806H34.4312H34.3819H34.3325H34.2831H34.2338H34.1844H34.1351H34.0857H34.0364H33.987H33.9377H33.8883H33.839H33.7896H33.7403H33.6909H33.6416H33.5922H33.5429H33.4935H33.4442H33.3948H33.3455H33.2961H33.2468H33.1974H33.148H33.0987H33.0493H33H32.9506H32.9013H32.8519H32.8026H32.7532H32.7039H32.6545H32.6051H32.5558H32.5064H32.4571H32.4077H32.3584H32.309H32.2597H32.2103H32.1609H32.1116H32.0622H32.0129H31.9635H31.9142H31.8648H31.8154H31.7661H31.7167H31.6674H31.618H31.5687H31.5193H31.4699H31.4206H31.3712H31.3219H31.2725H31.2232H31.1738H31.1244H31.0751H31.0257H30.9764H30.927H30.8776H30.8283H30.7789H30.7296H30.6802H30.6309H30.5815H30.5321H30.4828H30.4334H30.3841H30.3347H30.2853H30.236H30.1866H30.1373H30.0879H30.0385H29.9892H29.9398H29.8905H29.8411H29.7917H29.7424H29.693H29.6437H29.5943H29.5449H29.4956H29.4462H29.3969H29.3475H29.2981H29.2488H29.1994H29.1501H29.1007H29.0513H29.002H28.9526H28.9033H28.8539H28.8045H28.7552H28.7058H28.6565H28.6071H28.5577H28.5084H28.459H28.4097H28.3603H28.3109H28.2616H28.2122H28.1629H28.1135H28.0641H28.0148H27.9654H27.9161H27.8667H27.8173H27.768H27.7186H27.6692H27.6199H27.5705H27.5212H27.4718H27.4224H27.3731H27.3237H27.2744H27.225H27.1756H27.1263H27.0769H27.0276H26.9782H26.9288H26.8795H26.8301H26.7808H26.7314H26.682H26.6327H26.5833H26.534H26.4846H26.4352H26.3859H26.3365H26.2872H26.2378H26.1884H26.1391H26.0897H26.0404H25.991H25.9416H25.8923H25.8429H25.7936H25.7442H25.6948H25.6455H25.5961H25.5468H25.4974H25.448H25.3987H25.3493H25.3H25.2506H25.2013H25.1519H25.1025H25.0532H25.0038H24.9545H24.9051H24.8557H24.8064H24.757H24.7077H24.6583H24.609H24.5596H24.5102H24.4609H24.4115H24.3622H24.3128H24.2634H24.2141H24.1647H24.1154H24.066H24.0167H23.9673H23.9179H23.8686H23.8192H23.7699H23.7205H23.6712H23.6218H23.5725H23.5231H23.4737H23.4244H23.375H23.3257H23.2763H23.227H23.1776H23.1283H23.0789H23.0295H22.9802H22.9308H22.8815H22.8321H22.7828H22.7334H22.6841H22.6347H22.5854H22.536H22.4867H22.4373H22.3879H22.3386H22.2892H22.2399H22.1905H22.1412H22.0918H22.0425H21.9931H21.9438H21.8944H21.8451H21.7957H21.7464H21.697H21.6477H21.5983H21.549H21.4996H21.4503H21.4009H21.3516H21.3022H21.2529H21.2035H21.1542H21.1048H21.0555H21.0061H20.9568H20.9074H20.8581H20.8087H20.7594H20.71H20.6607H20.6113H20.562H20.5127H20.4633H20.414H20.3646H20.3153H20.2659H20.2166H20.1672H20.1179H20.0685H20.0192H19.9698H19.9205H19.8712H19.8218H19.7725H19.7231H19.6738H19.6244H19.5751H19.5258H19.4764H19.4271H19.3777H19.3284H19.279H19.2297H19.1804H19.131H19.0817H19.0323H18.983H18.9337H18.8843H18.835H18.7856H18.7363H18.687H18.6376H18.5883H18.5389H18.4896H18.4403H18.3909H18.3416H18.2923H18.2429H18.1936H18.1442H18.0949H18.0456H17.9962H17.9469H17.8976H17.8482H17.7989H17.7496H17.7002H17.6509H17.6016H17.5522H17.5029H17.4536H17.4042H17.3549H17.3056H17.2562H17.2069H17.1576H17.1082H17.0589H17.0096H16.9602H16.9109H16.8616H16.8123H16.7629H16.7136H16.6643H16.6149H16.5656H16.5163H16.467H16.4176H16.3683H16.319H16.2696H16.2203H16.171H16.1217H16.0723H16.023H15.9737H15.9244H15.875H15.8257H15.7764H15.7271H15.6778H15.6284H15.5791H15.5298H15.4805H15.4311H15.3818H15.3325H15.2832H15.2339H15.1845H15.1352H15.0859H15.0366H14.9873H14.9379H14.8886H14.8393H14.79H14.7407H14.6914H14.642H14.5927H14.5434H14.4941H14.4448H14.3955H14.3462H14.2968H14.2475H14.1982H14.1489H14.0996H14.0503H14.001H13.9516H13.9023H13.853H13.8037H13.7544H13.7051H13.6558H13.6065H13.5572H13.5079H13.4586H13.4092H13.3599H13.3106H13.2613H13.212H13.1627H13.1134H13.0641H13.0148H12.9655H12.9162H12.8669H12.8176H12.7683H12.719H12.6697H12.6204C11.8764 47.8941 11.2709 47.2885 11.2709 46.5447V41.2045C11.2709 40.4607 11.8764 39.8551 12.6204 39.8551H47.8066C48.5506 39.8551 49.1561 40.4607 49.1561 41.2045Z" fill="#FC6238" stroke="#FC6238" stroke-width="0.5"/>
</g>
<defs>
<clipPath id="clip0_248_1900">
<rect width="64" height="64" fill="white" transform="translate(0 0.216797)"/>
</clipPath>
</defs>
</svg>
