<svg width="116" height="135" viewBox="0 0 116 135" fill="none" xmlns="http://www.w3.org/2000/svg">
<g opacity="0.5">
<g opacity="0.5">
<path d="M115.597 94.2093H91.2394L64.122 78.5493C60.6344 76.5351 54.5357 76.79 50.5011 79.1151L24.3907 94.2093H0.00863732V101.632C-0.0908307 103 0.667613 104.318 2.34613 105.281L51.4585 133.642C54.946 135.656 61.0447 135.401 65.0793 133.076L112.233 105.847C114.328 104.641 115.447 103.112 115.553 101.632L115.597 94.2093Z" fill="url(#paint0_linear_450_3126)"/>
<path d="M37.2035 121.954C37.2035 122.681 36.6937 122.98 36.0658 122.613C35.734 122.397 35.4575 122.107 35.2588 121.764C35.0601 121.422 34.9447 121.038 34.9219 120.642C34.9219 119.915 35.4317 119.623 36.0658 119.983C36.3955 120.201 36.6699 120.492 36.8674 120.834C37.0649 121.176 37.18 121.56 37.2035 121.954Z" fill="#6DE0F6"/>
<path d="M36.6315 122.327C36.2968 122.113 36.0182 121.821 35.8192 121.477C35.6202 121.134 35.5065 120.747 35.4877 120.35C35.4809 120.165 35.5261 119.982 35.6182 119.821C35.2079 119.784 34.9219 120.083 34.9219 120.63C34.9428 121.027 35.0573 121.414 35.2561 121.758C35.4549 122.103 35.7323 122.396 36.0658 122.613C36.501 122.868 36.8802 122.793 37.0729 122.482C36.916 122.464 36.7651 122.411 36.6315 122.327Z" fill="#267FE5"/>
<path d="M40.7159 123.981C40.7159 124.708 40.2061 125.007 39.572 124.64C39.2405 124.423 38.9648 124.131 38.7671 123.787C38.5695 123.444 38.4555 123.059 38.4343 122.663C38.4343 121.93 38.9441 121.637 39.572 121.998C39.9051 122.215 40.1823 122.508 40.3811 122.853C40.5798 123.197 40.6945 123.584 40.7159 123.981Z" fill="#6DE0F6"/>
<path d="M44.2284 126.008C44.2284 126.736 43.7186 127.034 43.0845 126.667C42.7522 126.45 42.4755 126.158 42.2768 125.815C42.0781 125.472 41.9629 125.086 41.9406 124.69C41.9406 123.957 42.4566 123.664 43.0845 124.031C43.4193 124.245 43.6978 124.537 43.8968 124.881C44.0959 125.225 44.2095 125.611 44.2284 126.008Z" fill="#6DE0F6"/>
<path d="M40.1439 124.373C39.8105 124.156 39.533 123.863 39.3342 123.519C39.1354 123.174 39.0209 122.787 39.0001 122.39C38.9949 122.205 39.04 122.023 39.1306 121.861C38.7203 121.824 38.4343 122.129 38.4343 122.676C38.4555 123.072 38.5695 123.457 38.7671 123.8C38.9648 124.144 39.2405 124.436 39.572 124.653C40.0134 124.908 40.3926 124.839 40.5853 124.522C40.4294 124.504 40.279 124.453 40.1439 124.373Z" fill="#267FE5"/>
<path d="M43.6502 126.387C43.3191 126.169 43.0436 125.877 42.846 125.534C42.6484 125.19 42.5342 124.805 42.5126 124.41C42.5069 124.223 42.552 124.038 42.6431 123.875C42.2328 123.838 41.9406 124.142 41.9406 124.69C41.9634 125.086 42.0788 125.472 42.2774 125.817C42.476 126.161 42.7524 126.454 43.0845 126.673C43.5259 126.928 43.9051 126.853 44.0978 126.542C43.9392 126.523 43.7864 126.47 43.6502 126.387Z" fill="#267FE5"/>
<path d="M6.18809 94.209H0.00864218V101.632C-0.0189753 102.14 0.0671376 102.649 0.260713 103.12C0.454289 103.591 0.750456 104.013 1.12766 104.355C0.632073 103.716 0.388684 102.917 0.443815 102.11V94.6877H6.66056C6.51248 94.5191 6.35472 94.3593 6.18809 94.209Z" fill="#D4088C"/>
<path d="M107.801 94.209C107.757 94.3458 107.708 94.4825 107.658 94.6193H115.162V102.042C115.042 103.078 114.562 104.04 113.806 104.759C114.786 103.997 115.429 102.881 115.597 101.65V94.209H107.801Z" fill="#6DE0F6"/>
<g style="mix-blend-mode:lighten" opacity="0.5">
<path d="M17.2228 113.86V95.5205H8.3764V108.756L17.2228 113.86Z" fill="#A31FA9"/>
</g>
<g style="mix-blend-mode:lighten" opacity="0.5">
<path d="M22.6563 116.999V100.842H20.238V115.6L22.6563 116.999Z" fill="#A31FA9"/>
</g>
<g style="mix-blend-mode:lighten" opacity="0.5">
<path d="M26.9769 119.493V101.769H24.5648V118.1L26.9769 119.493Z" fill="#A31FA9"/>
</g>
<path d="M51.4833 126.238L2.37097 97.8839C-1.11663 95.8634 -0.681456 92.3447 3.35321 90.0135L50.501 62.7654C54.5357 60.4404 60.6343 60.1855 64.1219 62.1997L113.234 90.5543C116.728 92.5748 116.287 96.0934 112.252 98.4247L65.098 125.648C61.0695 127.979 54.9709 128.228 51.4833 126.238Z" fill="url(#paint1_linear_450_3126)"/>
<path d="M52.0242 126.238L2.91184 97.883C-0.613055 95.8377 -0.146799 92.3191 3.88787 89.9878L51.0419 62.7646C53.1758 61.5957 55.5543 60.9441 57.986 60.8623C55.3801 60.8684 52.8165 61.5221 50.5259 62.7646L3.34701 89.9878C-0.687656 92.3191 -1.12905 95.8377 2.36477 97.8582L51.4833 126.238C53.5423 127.293 55.8532 127.758 58.1601 127.58C56.0328 127.675 53.9177 127.212 52.0242 126.238Z" fill="#70E8FC"/>
<path d="M113.241 90.5535L64.1282 62.1989C62.0655 61.142 59.7496 60.6792 57.439 60.8623C59.5411 60.776 61.6296 61.2366 63.5004 62.1989L112.613 90.5535C116.1 92.574 115.665 96.0927 111.63 98.4239L64.4764 125.647C62.3433 126.812 59.9677 127.464 57.5385 127.549C60.18 127.559 62.7816 126.905 65.1043 125.647L112.258 98.4239C116.293 96.0927 116.734 92.574 113.241 90.5535Z" fill="#6DE0F6"/>
<path d="M57.5011 119.462C55.8979 119.508 54.3095 119.142 52.8883 118.399L16.3214 97.262C15.078 96.5284 14.3569 95.4964 14.3569 94.3588C14.3569 93.0097 15.3391 91.6669 17.0487 90.6785L52.1547 70.4118C55.2631 68.6152 60.0065 68.4225 62.7232 69.9891L99.2901 91.1261C100.533 91.8596 101.255 92.8916 101.255 94.0355C101.255 95.3783 100.272 96.7211 98.5627 97.7096L63.4568 117.976C61.6306 118.971 59.5805 119.482 57.5011 119.462ZM58.1228 69.7777C56.1927 69.7627 54.2906 70.2399 52.5961 71.1641L17.4715 91.4245C16.023 92.2575 15.1961 93.333 15.1961 94.3774C15.2358 94.8446 15.3997 95.2927 15.6707 95.6753C15.9418 96.0578 16.3103 96.361 16.7379 96.5533L53.3048 117.69C55.7915 119.12 60.1432 118.934 63.0278 117.267L98.14 97.0009C99.5823 96.1678 100.409 95.0923 100.409 94.0541C100.371 93.5859 100.207 93.1365 99.936 92.7527C99.6649 92.369 99.2959 92.0649 98.8674 91.8721L62.3004 70.7351C61.0063 70.063 59.5617 69.7334 58.1041 69.7777H58.1228Z" fill="#480689"/>
<path d="M66.5279 129.968L108.074 105.934C108.284 105.785 108.455 105.588 108.575 105.36C108.695 105.132 108.76 104.88 108.764 104.622V103.939C108.764 103.435 108.454 103.199 108.074 103.423L66.5279 127.432C66.3187 127.582 66.1478 127.78 66.029 128.009C65.9103 128.238 65.8469 128.492 65.844 128.75V129.427C65.8191 129.968 66.1238 130.167 66.5279 129.968Z" fill="#6DE0F6"/>
<path d="M107.142 105.399C107.352 105.249 107.523 105.051 107.643 104.822C107.763 104.593 107.827 104.34 107.832 104.082V103.528L108.05 103.404C108.429 103.18 108.74 103.404 108.74 103.92V104.604C108.735 104.861 108.67 105.114 108.55 105.342C108.431 105.569 108.259 105.766 108.05 105.915L66.5279 129.968C66.1487 130.186 65.8441 129.968 65.8441 129.446V129.322L107.142 105.399Z" fill="#267FE5"/>
</g>
<path d="M112.644 85.3987C112.65 85.2827 112.65 85.1665 112.644 85.0506C112.644 85.0506 112.644 85.0133 112.644 84.9946C112.58 84.2099 112.238 83.4736 111.68 82.9182C111.315 82.5307 110.897 82.1977 110.437 81.9298L63.8111 55.0237H63.7676C63.3482 54.7765 62.907 54.5684 62.4496 54.402C62.377 54.3747 62.3021 54.3539 62.2258 54.3398C61.7925 54.1919 61.3502 54.0714 60.9016 53.9793H60.827C59.8921 53.8092 58.9423 53.7343 57.9922 53.7555H57.47C56.4221 53.8063 55.3813 53.9561 54.3616 54.2031L54.2186 54.2341C53.7151 54.3645 53.2191 54.5222 52.7328 54.7066C52.6396 54.7439 52.5401 54.7626 52.4469 54.7999C51.8997 55.0162 51.368 55.2696 50.8554 55.5583L6.09479 81.3951C4.11164 82.5452 3.04858 83.9937 2.94911 85.3987V85.5728C2.94911 85.6474 2.94911 85.722 2.94911 85.7966V92.4423C2.92728 92.6489 2.92728 92.8573 2.94911 93.064C2.94669 93.1095 2.94669 93.1552 2.94911 93.2007C2.98558 93.3979 3.03968 93.5914 3.11075 93.7789C3.52093 94.6872 4.22647 95.43 5.11254 95.8864L51.7382 122.792C55.0517 124.707 60.8395 124.471 64.6628 122.258L109.423 96.4272C110.223 95.9785 110.94 95.3961 111.543 94.7052L111.581 94.6617C111.768 94.4359 111.937 94.1946 112.084 93.9405C112.203 93.729 112.301 93.5062 112.376 93.2753C112.397 93.2248 112.413 93.1728 112.426 93.1199C112.496 92.8975 112.542 92.6683 112.563 92.4361L112.644 85.3987Z" fill="#6DE0F6"/>
<path d="M115.597 78.7784H91.2394L64.122 63.1247C60.6344 61.1104 54.5357 61.3591 50.5011 63.6904L24.3907 78.7784H0.00863732V86.2385C-0.0908307 87.6 0.667613 88.918 2.34613 89.8878L51.4585 118.242C54.946 120.263 61.0447 120.008 65.0793 117.677L112.233 90.4535C114.328 89.2412 115.447 87.7119 115.553 86.2385L115.597 78.7784Z" fill="url(#paint2_linear_450_3126)"/>
<path d="M6.18812 78.7783H0.0086705V86.2384C-0.0120147 86.7442 0.0792317 87.2482 0.275893 87.7146C0.472554 88.181 0.769777 88.5982 1.14634 88.9365C0.642624 88.2986 0.392431 87.4971 0.443843 86.686V79.257H6.66059C6.51761 79.0892 6.35597 78.9337 6.18812 78.7783Z" fill="#D4088C"/>
<path d="M107.801 78.7783C107.757 78.9151 107.708 79.0519 107.658 79.1886H115.162V86.6487C115.04 87.6845 114.561 88.6454 113.806 89.3654C114.785 88.6023 115.428 87.487 115.597 86.2571V78.797L107.801 78.7783Z" fill="#6DE0F6"/>
<g style="mix-blend-mode:lighten" opacity="0.5">
<path d="M17.2228 98.4351V80.0957H8.3764V93.3249L17.2228 98.4351Z" fill="#A31FA9"/>
</g>
<g style="mix-blend-mode:lighten" opacity="0.5">
<path d="M22.6563 101.568V85.4111H20.238V100.176L22.6563 101.568Z" fill="#A31FA9"/>
</g>
<g style="mix-blend-mode:lighten" opacity="0.5">
<path d="M26.9769 104.068V86.3379H24.5648V102.669L26.9769 104.068Z" fill="#A31FA9"/>
</g>
<path d="M51.4833 110.782L2.37097 82.4273C-1.11663 80.4131 -0.681456 76.8882 3.35321 74.5631L50.5073 47.3338C54.5419 45.0087 60.6406 44.7538 64.1282 46.7743L113.24 75.1289C116.734 77.1431 116.293 80.668 112.258 82.993L65.1042 110.222C61.0695 112.56 54.9709 112.802 51.4833 110.782Z" fill="url(#paint3_linear_450_3126)"/>
<path d="M52.0242 110.782L2.91184 82.4273C-0.581971 80.413 -0.140582 76.8881 3.89409 74.5631L51.0481 47.3337C53.1805 46.1648 55.556 45.5092 57.986 45.4189C55.3805 45.4281 52.8177 46.0816 50.5259 47.3213L3.34701 74.5631C-0.687656 76.8881 -1.12905 80.413 2.36477 82.4273L51.4771 110.782C53.5361 111.837 55.847 112.302 58.1539 112.125C56.0283 112.221 53.9147 111.758 52.0242 110.782Z" fill="#D4088C"/>
<path d="M113.241 75.1286L64.1282 46.774C62.0644 45.7125 59.7469 45.2434 57.4328 45.4187C59.5354 45.3343 61.6239 45.797 63.4941 46.7615L112.606 75.1161C116.094 77.1303 115.659 80.6552 111.624 82.9803L64.4702 110.21C62.3371 111.375 59.9614 112.026 57.5323 112.112C60.1734 112.119 62.7743 111.465 65.098 110.21L112.252 82.9803C116.293 80.6677 116.734 77.1241 113.241 75.1286Z" fill="#6DE0F6"/>
<path d="M57.5011 103.788C55.9416 103.831 54.3967 103.476 53.0126 102.756L16.4457 81.6187C15.2583 80.9349 14.5807 79.9775 14.5807 78.9269C14.5807 77.6835 15.5194 76.4402 17.1482 75.4704L52.2791 55.2224C55.3253 53.4631 59.9505 53.2766 62.5926 54.7997L99.1596 75.9366C100.347 76.6267 101.025 77.5778 101.025 78.6285C101.025 79.8718 100.086 81.1463 98.4571 82.0912L63.3511 102.358C61.5542 103.323 59.5409 103.816 57.5011 103.788ZM58.1228 54.1034C56.1499 54.0864 54.2051 54.572 52.4718 55.5146L17.3409 75.7874C15.8178 76.664 14.9413 77.8203 14.9413 78.9517C14.9413 79.878 15.5629 80.7297 16.6136 81.3514L53.1805 102.457C55.7294 103.931 60.2054 103.744 63.1273 102.041L98.2395 81.7679C99.7626 80.8914 100.639 79.7351 100.639 78.6036C100.639 77.6773 100.017 76.8318 98.9668 76.2102L62.3999 55.0732C61.0716 54.3976 59.5935 54.0704 58.1041 54.122L58.1228 54.1034Z" fill="#480689"/>
<path d="M66.5279 114.518L108.074 90.4903C108.284 90.3398 108.456 90.1422 108.576 89.9133C108.696 89.6845 108.76 89.4307 108.764 89.1724V88.4948C108.764 87.985 108.454 87.755 108.074 87.9725L66.5279 112.007C66.3191 112.156 66.1485 112.353 66.0298 112.581C65.911 112.809 65.8474 113.061 65.844 113.318V114.002C65.8191 114.506 66.1238 114.742 66.5279 114.518Z" fill="#6DE0F6"/>
<path d="M107.142 89.968C107.351 89.8185 107.523 89.6219 107.643 89.3941C107.763 89.1663 107.827 88.9136 107.832 88.6563V88.103L108.05 87.9724C108.429 87.7548 108.74 87.9724 108.74 88.4946V89.1723C108.736 89.4306 108.671 89.6843 108.551 89.9132C108.431 90.1421 108.26 90.3397 108.05 90.4902L66.5279 114.518C66.1487 114.742 65.8441 114.518 65.8441 114.002V113.871L107.142 89.968Z" fill="#267FE5"/>
<path d="M37.2035 106.561C37.2035 107.294 36.6937 107.586 36.0658 107.226C35.7327 107.009 35.4555 106.716 35.2568 106.371C35.058 106.027 34.9433 105.64 34.9219 105.243C34.9219 104.515 35.4317 104.217 36.0658 104.584C36.3973 104.801 36.6731 105.093 36.8707 105.436C37.0683 105.78 37.1824 106.165 37.2035 106.561Z" fill="#6DE0F6"/>
<path d="M36.6315 106.965C36.2981 106.748 36.0206 106.455 35.8218 106.11C35.623 105.766 35.5085 105.379 35.4877 104.982C35.4825 104.797 35.5276 104.614 35.6182 104.453C35.2079 104.416 34.9219 104.721 34.9219 105.268C34.9471 105.661 35.0636 106.042 35.2622 106.382C35.4608 106.722 35.7359 107.011 36.0658 107.226C36.501 107.475 36.8802 107.406 37.0729 107.095C36.918 107.085 36.7672 107.04 36.6315 106.965Z" fill="#267FE5"/>
<path d="M40.7159 108.593C40.7159 109.321 40.2061 109.613 39.572 109.252C39.2407 109.033 38.9652 108.74 38.7677 108.396C38.5701 108.051 38.456 107.666 38.4343 107.269C38.4343 106.542 38.9441 106.243 39.572 106.61C39.9055 106.827 40.1829 107.12 40.3817 107.465C40.5805 107.809 40.695 108.196 40.7159 108.593Z" fill="#6DE0F6"/>
<path d="M44.2284 110.62C44.2284 111.347 43.7186 111.645 43.0845 111.279C42.7517 111.061 42.4748 110.768 42.2761 110.423C42.0774 110.079 41.9625 109.693 41.9406 109.296C41.9406 108.568 42.4566 108.27 43.0845 108.637C43.418 108.854 43.6954 109.146 43.8942 109.491C44.093 109.836 44.2075 110.222 44.2284 110.62Z" fill="#6DE0F6"/>
<path d="M40.1439 108.966C39.8058 108.749 39.5252 108.454 39.326 108.106C39.1268 107.757 39.0149 107.365 39.0001 106.964C38.9933 106.779 39.0385 106.596 39.1306 106.436C38.7203 106.392 38.4343 106.697 38.4343 107.244C38.455 107.641 38.5687 108.027 38.7664 108.371C38.964 108.716 39.24 109.009 39.572 109.227C40.0134 109.482 40.3926 109.407 40.5853 109.097C40.4303 109.086 40.2796 109.042 40.1439 108.966Z" fill="#267FE5"/>
<path d="M43.6502 111C43.3189 110.781 43.0435 110.488 42.8459 110.144C42.6484 109.799 42.5342 109.413 42.5126 109.017C42.5074 108.832 42.5525 108.649 42.6431 108.488C42.2328 108.451 41.9406 108.756 41.9406 109.303C41.9629 109.699 42.0781 110.084 42.2768 110.428C42.4755 110.771 42.7522 111.063 43.0845 111.28C43.5259 111.535 43.9051 111.46 44.0978 111.149C43.9401 111.13 43.7879 111.079 43.6502 111Z" fill="#267FE5"/>
</g>
<path opacity="0.5" d="M52.5837 105.149L12.0443 81.7426C9.15969 80.0765 9.52026 77.1733 12.8524 75.2523L51.7755 52.7787C55.1015 50.8578 60.137 50.6464 63.0216 52.3125L103.561 75.7185C106.446 77.3846 106.085 80.2879 102.753 82.2088L63.8298 104.682C60.5038 106.603 55.4683 106.815 52.5837 105.149Z" fill="#2A0263"/>
<path d="M115.597 48.8317H91.2394L64.122 33.178C60.6344 31.1575 54.5357 31.4124 50.5011 33.7437L24.3907 48.8317H0.00863732V56.2918C-0.0908307 57.6533 0.667613 58.9713 2.34613 59.9411L51.4585 88.2957C54.946 90.3099 61.0447 90.0612 65.0793 87.7299L112.233 60.5068C114.328 59.2635 115.447 57.7652 115.553 56.2918L115.597 48.8317Z" fill="url(#paint4_linear_450_3126)"/>
<path d="M6.18808 48.8311H0.00862722V56.2912C-0.0176691 56.7995 0.0690486 57.3074 0.26254 57.7782C0.456032 58.249 0.751486 58.6711 1.12764 59.0141C0.624662 58.3671 0.38085 57.5559 0.4438 56.7388V49.3097H6.66055C6.51756 49.1481 6.35593 48.9865 6.18808 48.8311Z" fill="#D4088C"/>
<path d="M107.801 48.8308C107.757 48.9676 107.708 49.1043 107.658 49.2411H115.162V56.6701C115.032 57.7101 114.541 58.6715 113.775 59.3868C114.753 58.6224 115.395 57.5077 115.566 56.2785V48.8184L107.801 48.8308Z" fill="#6DE0F6"/>
<g style="mix-blend-mode:lighten" opacity="0.5">
<path d="M17.2228 68.4888V50.1494H8.3764V63.3787L17.2228 68.4888Z" fill="#D4088C"/>
</g>
<g style="mix-blend-mode:lighten" opacity="0.3">
<path d="M22.6563 71.6222V55.4648H20.238V70.2296L22.6563 71.6222Z" fill="#D4088C"/>
</g>
<g style="mix-blend-mode:lighten" opacity="0.15">
<path d="M26.9769 74.1208V56.3906H24.5648V72.722L26.9769 74.1208Z" fill="#D4088C"/>
</g>
<path d="M51.4833 80.8542L2.37097 52.4996C-1.11663 50.4854 -0.681456 46.9605 3.35321 44.6354L50.5073 17.4061C54.5419 15.081 60.6406 14.8261 64.1282 16.8403L113.24 45.2012C116.734 47.2154 116.293 50.7403 112.258 53.0653L65.1042 80.2885C61.0695 82.6011 54.9709 82.856 51.4833 80.8542Z" fill="url(#paint5_linear_450_3126)"/>
<path d="M52.0242 80.8535L2.91184 52.4989C-0.613055 50.466 -0.146799 46.9411 3.88787 44.6161L51.0419 17.3867C53.1772 16.2212 55.5549 15.5699 57.986 15.4844C55.3801 15.4904 52.8165 16.1441 50.5259 17.3867L3.34701 44.6161C-0.687656 46.9411 -1.12905 50.466 2.36477 52.4802L51.4833 80.8535C53.5423 81.9088 55.8532 82.3736 58.1601 82.1963C56.0325 82.2938 53.9166 81.8307 52.0242 80.8535Z" fill="#70E8FC"/>
<path d="M113.241 45.1815L64.122 16.8207C62.0572 15.7696 59.743 15.3072 57.4328 15.4841C59.5346 15.4009 61.6223 15.8613 63.4941 16.8207L112.606 45.1815C116.094 47.1958 115.659 50.7207 111.624 53.0457L64.4764 80.2689C62.3449 81.439 59.9686 82.0927 57.5385 82.1774C60.1805 82.1852 62.7821 81.5289 65.1043 80.2689L112.258 53.0457C116.293 50.7207 116.734 47.1958 113.241 45.1815Z" fill="#6DE0F6"/>
<path d="M57.5011 74.0835C55.8979 74.1299 54.3095 73.7638 52.8883 73.0204L16.3214 51.8835C15.078 51.1561 14.3569 50.1242 14.3569 48.9803C14.3569 47.6312 15.3391 46.2884 17.0487 45.3L52.1547 25.0333C55.2631 23.2367 60.0065 23.0502 62.7232 24.6106L99.2901 45.7476C100.533 46.4811 101.255 47.5131 101.255 48.657C101.255 50.006 100.272 51.3426 98.5627 52.3311L63.4568 72.6039C61.6289 73.5935 59.5796 74.1026 57.5011 74.0835ZM53.3048 72.2931C55.7915 73.7291 60.1432 73.5364 63.0278 71.8766L98.14 51.6348C99.5823 50.8018 100.409 49.7263 100.409 48.6881C100.409 47.855 99.862 47.0842 98.8674 46.506L62.3004 25.3691C59.8137 23.9392 55.462 24.1257 52.5774 25.7918L17.4715 46.0397C16.023 46.879 15.1961 47.9545 15.1961 48.9927C15.2358 49.4599 15.3997 49.908 15.6707 50.2906C15.9418 50.6731 16.3103 50.9763 16.7379 51.1686L53.3048 72.2931Z" fill="#480689"/>
<path d="M66.5279 84.5842L108.074 60.5565C108.284 60.4056 108.456 60.2079 108.575 59.9791C108.695 59.7503 108.76 59.4967 108.764 59.2385V58.5485C108.764 58.0387 108.454 57.8087 108.074 58.0263L66.5279 82.054C66.319 82.2052 66.1484 82.4031 66.0297 82.6319C65.911 82.8607 65.8474 83.1142 65.844 83.3719V84.0558C65.8191 84.5842 66.1238 84.7894 66.5279 84.5842Z" fill="#6DE0F6"/>
<path d="M107.142 60.0217C107.351 59.8722 107.523 59.6756 107.643 59.4478C107.763 59.22 107.827 58.9673 107.832 58.71V58.1505L108.05 58.0261C108.429 57.8086 108.74 58.0261 108.74 58.5484V59.226C108.735 59.4842 108.67 59.7378 108.551 59.9666C108.431 60.1954 108.259 60.3931 108.05 60.5439L66.5279 84.5841C66.1487 84.8017 65.8441 84.5841 65.8441 84.0681V83.9376L107.142 60.0217Z" fill="#267FE5"/>
<path d="M112.644 40.0221C112.65 39.9062 112.65 39.79 112.644 39.674C112.644 39.674 112.644 39.6367 112.644 39.618C112.581 38.8348 112.239 38.1 111.68 37.5479C111.319 37.1568 110.899 36.8234 110.437 36.5594L63.8111 9.65332H63.7676C63.3469 9.40871 62.906 9.20072 62.4497 9.03164L62.2259 8.96948C61.7933 8.82074 61.3508 8.70234 60.9017 8.61512H60.8271C59.8917 8.44816 58.9423 8.3732 57.9923 8.39132H57.4701C56.4216 8.44107 55.3806 8.59307 54.3617 8.84514H54.2187C53.7145 8.97051 53.2183 9.12621 52.7329 9.3114C52.6396 9.3487 52.5402 9.37356 52.4469 9.40465C51.8985 9.62049 51.3666 9.87606 50.8554 10.1693L6.09485 35.9999C4.1117 37.15 3.04864 38.6047 2.94917 40.0035V40.1776C2.94917 40.2522 2.94917 40.3268 2.94917 40.4076V47.0719C2.92702 47.2786 2.92702 47.487 2.94917 47.6936C2.94622 47.7392 2.94622 47.7848 2.94917 47.8304C2.984 48.0279 3.03814 48.2216 3.11081 48.4085C3.5223 49.3175 4.22729 50.0619 5.1126 50.5222L51.7382 77.4283C55.0517 79.3369 60.8395 79.1006 64.6628 76.8937L109.423 51.0569C110.225 50.6101 110.942 50.0275 111.543 49.3348L111.581 49.2975C111.769 49.0696 111.937 48.8263 112.084 48.5702C112.201 48.3575 112.299 48.1349 112.376 47.905C112.376 47.849 112.414 47.7993 112.426 47.7496C112.495 47.5269 112.541 47.2977 112.563 47.0657L112.644 40.0221Z" fill="#6DE0F6"/>
<path d="M115.597 33.4013H91.2394L64.122 17.7476C60.6344 15.7333 54.5357 15.9882 50.5011 18.3133L24.3907 33.4013H0.00863732V40.8614C-0.0908307 42.2291 0.667613 43.5409 2.34613 44.5107L51.4585 72.8715C54.946 74.8857 61.0447 74.6308 65.0793 72.3058L112.233 45.0764C114.328 43.8703 115.447 42.3348 115.553 40.8614L115.597 33.4013Z" fill="url(#paint6_linear_450_3126)"/>
<path d="M6.18806 33.4014H0.0086134V40.8615C-0.0111465 41.3662 0.08055 41.869 0.277181 42.3343C0.473812 42.7996 0.770546 43.2158 1.14628 43.5533C0.644037 42.9171 0.39393 42.1181 0.443786 41.3091V33.849H6.66053C6.51755 33.7184 6.35591 33.5568 6.18806 33.4014Z" fill="#D4088C"/>
<path d="M107.801 33.4011C107.757 33.5379 107.708 33.6746 107.658 33.8114H115.162V41.2715C115.026 42.3009 114.536 43.2507 113.775 43.9571C114.755 43.1949 115.398 42.0791 115.566 40.8488V33.3887L107.801 33.4011Z" fill="#6DE0F6"/>
<g style="mix-blend-mode:lighten" opacity="0.5">
<path d="M17.2228 53.0591V34.7197H8.3764V47.9552L17.2228 53.0591Z" fill="#D4088C"/>
</g>
<g style="mix-blend-mode:lighten" opacity="0.3">
<path d="M22.6563 56.1915V40.0342H20.238V54.799L22.6563 56.1915Z" fill="#D4088C"/>
</g>
<g style="mix-blend-mode:lighten" opacity="0.15">
<path d="M26.9769 58.6917V40.9678H24.5648V57.2992L26.9769 58.6917Z" fill="#D4088C"/>
</g>
<path d="M51.4833 65.412L2.37097 37.0512C-1.11663 35.037 -0.681456 31.5183 3.35321 29.187L50.501 1.9639C54.5357 -0.367381 60.6343 -0.584967 64.1219 1.39818L113.234 29.7528C116.728 31.7732 116.287 35.2919 112.252 37.617L65.098 64.8463C61.0695 67.1776 54.9709 67.4263 51.4833 65.412Z" fill="url(#paint7_linear_450_3126)"/>
<path d="M52.0242 65.4115L2.91184 37.0507C-0.613055 35.0364 -0.146799 31.5177 3.88787 29.1865L51.0419 1.96332C53.1737 0.785739 55.5523 0.125596 57.986 0.0361328C55.3796 0.0443587 52.8161 0.700194 50.5259 1.94467L3.34701 29.1865C-0.687656 31.5177 -1.12905 35.0364 2.36477 37.0507L51.4771 65.4115C53.5366 66.465 55.8476 66.9276 58.1539 66.7481C56.0292 66.8432 53.9164 66.3825 52.0242 65.4115Z" fill="#D4088C"/>
<path d="M113.241 29.7523L64.1282 1.39772C62.0661 0.331014 59.7477 -0.140416 57.4328 0.0362547C59.5348 -0.0500548 61.6233 0.410482 63.4941 1.37286L112.606 29.7274C116.094 31.7479 115.659 35.2666 111.624 37.5916L64.4702 64.821C62.3371 65.9864 59.9614 66.6378 57.5323 66.7233C60.1738 66.7333 62.7754 66.0792 65.098 64.821L112.252 37.5916C116.293 35.2914 116.734 31.7728 113.241 29.7523Z" fill="#6DE0F6"/>
<path d="M66.5279 69.1474L108.074 45.1135C108.284 44.9639 108.455 44.7674 108.575 44.5396C108.695 44.3118 108.76 44.0591 108.764 43.8017V43.1179C108.764 42.6143 108.454 42.3781 108.074 42.5957L66.5279 66.6296C66.3191 66.7795 66.1485 66.9762 66.0298 67.2041C65.911 67.4319 65.8474 67.6844 65.844 67.9414V68.6252C65.8191 69.1288 66.1238 69.365 66.5279 69.1474Z" fill="#6DE0F6"/>
<path d="M107.142 44.5982C107.352 44.4474 107.523 44.2497 107.643 44.0209C107.763 43.7921 107.827 43.5385 107.832 43.2803V42.727L108.05 42.5965C108.429 42.3789 108.74 42.5965 108.74 43.1187V43.8025C108.735 44.0599 108.67 44.3126 108.55 44.5404C108.431 44.7681 108.259 44.9647 108.05 45.1142L66.5279 69.1482C66.1487 69.3658 65.8441 69.1482 65.8441 68.626V68.4954L107.142 44.5982Z" fill="#267FE5"/>
<path d="M57.8742 13.427L55.574 12.1028L57.8742 10.7725L60.1806 12.1028L57.8742 13.427Z" fill="#6DE0F6"/>
<path opacity="0.1" d="M62.4808 16.0885L60.1806 14.7581L62.4808 13.4277L64.781 14.7581L62.4808 16.0885Z" fill="#6DE0F6"/>
<path opacity="0.4" d="M67.0811 18.7415L64.7809 17.4111L67.0811 16.0869L69.3876 17.4111L67.0811 18.7415Z" fill="#6DE0F6"/>
<path d="M71.6878 21.403L69.3876 20.0726L71.6878 18.7422L73.988 20.0726L71.6878 21.403Z" fill="#6DE0F6"/>
<path opacity="0.4" d="M76.2882 24.0579L73.988 22.7275L76.2882 21.4033L78.5946 22.7275L76.2882 24.0579Z" fill="#6DE0F6"/>
<path d="M80.8948 26.7184L78.5946 25.388L80.8948 24.0576L83.195 25.388L80.8948 26.7184Z" fill="#6DE0F6"/>
<path d="M85.4951 29.3733L83.1949 28.0429L85.4951 26.7188L87.7953 28.0429L85.4951 29.3733Z" fill="#6DE0F6"/>
<path d="M90.1018 32.0338L87.7953 30.7034L90.1018 29.373L92.402 30.7034L90.1018 32.0338Z" fill="#6DE0F6"/>
<path opacity="0.1" d="M94.7022 34.6878L92.402 33.3574L94.7022 32.0332L97.0024 33.3574L94.7022 34.6878Z" fill="#6DE0F6"/>
<path d="M53.2551 16.094L50.9549 14.7698L53.2551 13.4395L55.5553 14.7698L53.2551 16.094Z" fill="#6DE0F6"/>
<path d="M57.8617 18.7555L55.5553 17.4251L57.8617 16.0947L60.1619 17.4251L57.8617 18.7555Z" fill="#6DE0F6"/>
<path d="M62.4621 21.4085L60.1619 20.0843L62.4621 18.7539L64.7623 20.0843L62.4621 21.4085Z" fill="#6DE0F6"/>
<path d="M67.0625 24.0699L64.7623 22.7396L67.0625 21.4092L69.3689 22.7396L67.0625 24.0699Z" fill="#6DE0F6"/>
<path d="M71.6691 26.7249L69.3689 25.4007L71.6691 24.0703L73.9693 25.4007L71.6691 26.7249Z" fill="#6DE0F6"/>
<path d="M76.2696 29.3854L73.9694 28.055L76.2696 26.7246L78.576 28.055L76.2696 29.3854Z" fill="#6DE0F6"/>
<path d="M80.8761 32.0403L78.5759 30.7161L80.8761 29.3857L83.1763 30.7161L80.8761 32.0403Z" fill="#6DE0F6"/>
<path d="M85.4765 34.7008L83.1763 33.3704L85.4765 32.04L87.7767 33.3704L85.4765 34.7008Z" fill="#6DE0F6"/>
<path d="M90.0832 37.3547L87.7767 36.0306L90.0832 34.7002L92.3833 36.0306L90.0832 37.3547Z" fill="#6DE0F6"/>
<path d="M48.6361 18.7672L46.3297 17.4368L48.6361 16.1064L50.9363 17.4368L48.6361 18.7672Z" fill="#6DE0F6"/>
<path d="M53.2364 21.4221L50.9362 20.0917L53.2364 18.7676L55.5366 20.0917L53.2364 21.4221Z" fill="#6DE0F6"/>
<path d="M57.843 24.0817L55.5366 22.7513L57.843 21.4209L60.1432 22.7513L57.843 24.0817Z" fill="#6DE0F6"/>
<path opacity="0.1" d="M62.4435 26.7376L60.1433 25.4072L62.4435 24.083L64.7437 25.4072L62.4435 26.7376Z" fill="#6DE0F6"/>
<path opacity="0.4" d="M67.0439 29.3981L64.7437 28.0677L67.0439 26.7373L69.3503 28.0677L67.0439 29.3981Z" fill="#6DE0F6"/>
<path opacity="0.4" d="M71.6505 32.053L69.3503 30.7226L71.6505 29.3984L73.9507 30.7226L71.6505 32.053Z" fill="#6DE0F6"/>
<path d="M76.2509 34.7135L73.9507 33.3831L76.2509 32.0527L78.5511 33.3831L76.2509 34.7135Z" fill="#6DE0F6"/>
<path d="M80.8574 37.3674L78.551 36.0371L80.8574 34.7129L83.1576 36.0371L80.8574 37.3674Z" fill="#6DE0F6"/>
<path d="M85.4579 40.028L83.1577 38.6976L85.4579 37.3672L87.7581 38.6976L85.4579 40.028Z" fill="#6DE0F6"/>
<path opacity="0.4" d="M44.0108 21.4342L41.7106 20.1038L44.0108 18.7734L46.311 20.1038L44.0108 21.4342Z" fill="#6DE0F6"/>
<path opacity="0.4" d="M48.6174 24.0891L46.311 22.765L48.6174 21.4346L50.9176 22.765L48.6174 24.0891Z" fill="#6DE0F6"/>
<path opacity="0.1" d="M53.2179 26.7487L50.9177 25.4183L53.2179 24.0879L55.5181 25.4183L53.2179 26.7487Z" fill="#6DE0F6"/>
<path d="M57.8245 29.4046L55.5181 28.0804L57.8245 26.75L60.1247 28.0804L57.8245 29.4046Z" fill="#6DE0F6"/>
<path d="M62.4248 32.0641L60.1246 30.7337L62.4248 29.4033L64.725 30.7337L62.4248 32.0641Z" fill="#6DE0F6"/>
<path d="M67.0252 34.72L64.725 33.3958L67.0252 32.0654L69.3316 33.3958L67.0252 34.72Z" fill="#6DE0F6"/>
<path opacity="0.4" d="M71.6319 37.3805L69.3317 36.0501L71.6319 34.7197L73.9321 36.0501L71.6319 37.3805Z" fill="#6DE0F6"/>
<path d="M76.2322 40.0344L73.932 38.7103L76.2322 37.3799L78.5324 38.7103L76.2322 40.0344Z" fill="#6DE0F6"/>
<path d="M80.8388 42.695L78.5324 41.3646L80.8388 40.0342L83.139 41.3646L80.8388 42.695Z" fill="#6DE0F6"/>
<path d="M39.3918 24.1008L37.0916 22.7705L39.3918 21.4463L41.692 22.7705L39.3918 24.1008Z" fill="#6DE0F6"/>
<path d="M43.9921 26.7623L41.6919 25.4319L43.9921 24.1016L46.2923 25.4319L43.9921 26.7623Z" fill="#6DE0F6"/>
<path d="M48.5987 29.4163L46.2923 28.0859L48.5987 26.7617L50.8989 28.0859L48.5987 29.4163Z" fill="#6DE0F6"/>
<path d="M53.1992 32.0778L50.899 30.7474L53.1992 29.417L55.4994 30.7474L53.1992 32.0778Z" fill="#6DE0F6"/>
<path d="M57.8058 34.7317L55.4994 33.4013L57.8058 32.0771L60.106 33.4013L57.8058 34.7317Z" fill="#6DE0F6"/>
<path d="M62.4062 37.3932L60.106 36.0628L62.4062 34.7324L64.7064 36.0628L62.4062 37.3932Z" fill="#6DE0F6"/>
<path d="M67.0066 40.0471L64.7064 38.7167L67.0066 37.3926L69.313 38.7167L67.0066 40.0471Z" fill="#6DE0F6"/>
<path d="M71.6132 42.7076L69.313 41.3773L71.6132 40.0469L73.9134 41.3773L71.6132 42.7076Z" fill="#6DE0F6"/>
<path d="M76.2136 45.3626L73.9134 44.0322L76.2136 42.708L78.5138 44.0322L76.2136 45.3626Z" fill="#6DE0F6"/>
<path d="M34.7664 26.7678L32.4662 25.4437L34.7664 24.1133L37.0729 25.4437L34.7664 26.7678Z" fill="#6DE0F6"/>
<path d="M39.3731 29.4293L37.0729 28.0989L39.3731 26.7686L41.6733 28.0989L39.3731 29.4293Z" fill="#6DE0F6"/>
<path opacity="0.4" d="M43.9735 32.0833L41.6733 30.7591L43.9735 29.4287L46.2737 30.7591L43.9735 32.0833Z" fill="#6DE0F6"/>
<path d="M48.58 34.7448L46.2736 33.4144L48.58 32.084L50.8802 33.4144L48.58 34.7448Z" fill="#6DE0F6"/>
<path opacity="0.1" d="M53.1805 37.3987L50.8803 36.0745L53.1805 34.7441L55.4807 36.0745L53.1805 37.3987Z" fill="#6DE0F6"/>
<path d="M57.7871 40.0602L55.4807 38.7298L57.7871 37.3994L60.0873 38.7298L57.7871 40.0602Z" fill="#6DE0F6"/>
<path d="M62.3875 42.7141L60.0873 41.39L62.3875 40.0596L64.6877 41.39L62.3875 42.7141Z" fill="#6DE0F6"/>
<path d="M66.9879 45.3746L64.6877 44.0443L66.9879 42.7139L69.2944 44.0443L66.9879 45.3746Z" fill="#6DE0F6"/>
<path d="M71.5945 48.0295L69.2943 46.7054L71.5945 45.375L73.8947 46.7054L71.5945 48.0295Z" fill="#6DE0F6"/>
<path d="M30.1475 29.441L27.8473 28.1107L30.1475 26.7803L32.4477 28.1107L30.1475 29.441Z" fill="#6DE0F6"/>
<path d="M34.7478 32.096L32.4476 30.7656L34.7478 29.4414L37.0542 30.7656L34.7478 32.096Z" fill="#6DE0F6"/>
<path opacity="0.4" d="M39.3545 34.7565L37.0543 33.4261L39.3545 32.0957L41.6547 33.4261L39.3545 34.7565Z" fill="#6DE0F6"/>
<path d="M43.9549 37.4114L41.6547 36.081L43.9549 34.7568L46.2551 36.081L43.9549 37.4114Z" fill="#6DE0F6"/>
<path d="M48.5615 40.0657L46.2551 38.7415L48.5615 37.4111L50.8617 38.7415L48.5615 40.0657Z" fill="#6DE0F6"/>
<path opacity="0.1" d="M53.1618 42.7268L50.8616 41.3964L53.1618 40.0723L55.462 41.3964L53.1618 42.7268Z" fill="#6DE0F6"/>
<path opacity="0.4" d="M57.7685 45.3811L55.462 44.0569L57.7685 42.7266L60.0686 44.0569L57.7685 45.3811Z" fill="#6DE0F6"/>
<path d="M62.3689 48.0416L60.0687 46.7112L62.3689 45.3809L64.6691 46.7112L62.3689 48.0416Z" fill="#6DE0F6"/>
<path opacity="0.1" d="M66.9693 50.7028L64.6691 49.3724L66.9693 48.042L69.2757 49.3724L66.9693 50.7028Z" fill="#6DE0F6"/>
<path d="M25.5222 32.108L23.222 30.7776L25.5222 29.4473L27.8286 30.7776L25.5222 32.108Z" fill="#6DE0F6"/>
<path opacity="0.4" d="M30.1288 34.7639L27.8286 33.4398L30.1288 32.1094L32.429 33.4398L30.1288 34.7639Z" fill="#6DE0F6"/>
<path d="M34.7292 37.4235L32.429 36.0931L34.7292 34.7627L37.0294 36.0931L34.7292 37.4235Z" fill="#6DE0F6"/>
<path d="M39.3358 40.0784L37.0294 38.748L39.3358 37.4238L41.636 38.748L39.3358 40.0784Z" fill="#6DE0F6"/>
<path d="M43.9362 42.7389L41.636 41.4085L43.9362 40.0781L46.2364 41.4085L43.9362 42.7389Z" fill="#6DE0F6"/>
<path d="M48.5428 45.3938L46.2364 44.0696L48.5428 42.7393L50.843 44.0696L48.5428 45.3938Z" fill="#6DE0F6"/>
<path d="M53.1432 48.0543L50.843 46.7239L53.1432 45.3936L55.4434 46.7239L53.1432 48.0543Z" fill="#6DE0F6"/>
<path opacity="0.4" d="M57.7498 50.7092L55.4434 49.3851L57.7498 48.0547L60.05 49.3851L57.7498 50.7092Z" fill="#6DE0F6"/>
<path d="M62.3502 53.3698L60.05 52.0394L62.3502 50.709L64.6504 52.0394L62.3502 53.3698Z" fill="#6DE0F6"/>
<path d="M20.9032 34.775L18.603 33.4446L20.9032 32.1143L23.2034 33.4446L20.9032 34.775Z" fill="#6DE0F6"/>
<path opacity="0.1" d="M25.5035 37.4371L23.2033 36.1068L25.5035 34.7764L27.8099 36.1068L25.5035 37.4371Z" fill="#6DE0F6"/>
<path d="M30.1101 40.0911L27.8099 38.7607L30.1101 37.4365L32.4103 38.7607L30.1101 40.0911Z" fill="#6DE0F6"/>
<path d="M34.7105 42.7454L32.4103 41.4212L34.7105 40.0908L37.0107 41.4212L34.7105 42.7454Z" fill="#6DE0F6"/>
<path d="M39.3172 45.4059L37.0107 44.0755L39.3172 42.7451L41.6174 44.0755L39.3172 45.4059Z" fill="#6DE0F6"/>
<path d="M43.9175 48.0608L41.6173 46.7366L43.9175 45.4062L46.2177 46.7366L43.9175 48.0608Z" fill="#6DE0F6"/>
<path opacity="0.4" d="M48.5241 50.7213L46.2177 49.3909L48.5241 48.0605L50.8243 49.3909L48.5241 50.7213Z" fill="#6DE0F6"/>
<path d="M53.1245 53.3824L50.8243 52.0521L53.1245 50.7217L55.4247 52.0521L53.1245 53.3824Z" fill="#6DE0F6"/>
<path d="M57.7249 56.0364L55.4247 54.706L57.7249 53.3818L60.0314 54.706L57.7249 56.0364Z" fill="#6DE0F6"/>
<path d="M57.5011 58.4115C55.9416 58.4547 54.3967 58.0995 53.0126 57.3795L16.4457 36.2426C15.2583 35.5587 14.5807 34.6013 14.5807 33.5507C14.5807 32.3074 15.5194 31.0329 17.1482 30.0942L52.2791 9.84625C55.3253 8.09312 59.9505 7.9004 62.5926 9.42972L99.1596 30.5667C100.347 31.2505 101.025 32.2079 101.025 33.2523C101.025 34.4957 100.086 35.739 98.4571 36.715L63.3511 56.9816C61.5553 57.9502 59.5412 58.4424 57.5011 58.4115ZM53.1494 57.0873C55.6983 58.5607 60.1743 58.368 63.0962 56.6646L98.2084 36.398C99.7315 35.5152 100.608 34.3589 100.608 33.2274C100.608 32.3074 99.9864 31.4557 98.9358 30.834L62.3688 9.69704C59.82 8.22368 55.3439 8.41639 52.422 10.1198L17.3409 30.4113C15.8178 31.294 14.9288 32.4441 14.9288 33.6067C14.9288 34.533 15.5505 35.3847 16.6011 36.0063L53.1494 57.0873Z" fill="#480689"/>
<path d="M37.2035 61.19C37.2035 61.9173 36.6937 62.2158 36.0658 61.849C35.7323 61.632 35.4549 61.3392 35.2561 60.9945C35.0573 60.6499 34.9428 60.2631 34.9219 59.8658C34.9219 59.1385 35.4317 58.8401 36.0658 59.2068C36.3978 59.4249 36.6738 59.7181 36.8714 60.0626C37.0691 60.4071 37.1828 60.7933 37.2035 61.19Z" fill="#6DE0F6"/>
<path d="M36.6315 61.582C36.2968 61.3679 36.0182 61.0766 35.8192 60.7327C35.6202 60.3887 35.5065 60.002 35.4877 59.6051C35.482 59.4183 35.5271 59.2336 35.6182 59.0705C35.2079 59.0332 34.9219 59.3378 34.9219 59.8848C34.9457 60.2789 35.0615 60.662 35.2602 61.0032C35.4589 61.3443 35.7348 61.6342 36.0658 61.8493C36.501 62.1042 36.8802 62.0296 37.0729 61.7188C36.9175 61.7065 36.7667 61.6598 36.6315 61.582Z" fill="#267FE5"/>
<path d="M40.7159 63.2175C40.7159 63.9449 40.2061 64.2433 39.572 63.8765C39.24 63.6584 38.964 63.3653 38.7664 63.0208C38.5687 62.6762 38.455 62.29 38.4343 61.8934C38.4343 61.166 38.9441 60.8738 39.572 61.2344C39.9051 61.4518 40.1823 61.7446 40.3811 62.0892C40.5798 62.4338 40.6945 62.8203 40.7159 63.2175Z" fill="#6DE0F6"/>
<path d="M44.2284 65.2447C44.2284 65.9721 43.7186 66.2705 43.0845 65.9037C42.7522 65.6869 42.4755 65.3951 42.2768 65.0517C42.0781 64.7082 41.9629 64.3229 41.9406 63.9268C41.9406 63.1932 42.4566 62.901 43.0845 63.2616C43.4176 63.479 43.6948 63.7718 43.8936 64.1164C44.0923 64.4609 44.207 64.8475 44.2284 65.2447Z" fill="#6DE0F6"/>
<path d="M40.1439 63.5957C39.8108 63.3783 39.5336 63.0855 39.3349 62.7409C39.1361 62.3963 39.0214 62.0098 39.0001 61.6126C38.9949 61.4278 39.04 61.2452 39.1306 61.0841C38.7203 61.0468 38.4343 61.3514 38.4343 61.8985C38.4555 62.2942 38.5695 62.6794 38.7671 63.0228C38.9648 63.3663 39.2405 63.6584 39.572 63.8754C40.0134 64.1303 40.3926 64.0557 40.5853 63.7449C40.4294 63.7265 40.279 63.6757 40.1439 63.5957Z" fill="#267FE5"/>
<path d="M43.6502 65.623C43.3182 65.405 43.0423 65.1118 42.8446 64.7673C42.647 64.4228 42.5332 64.0365 42.5126 63.6399C42.5074 63.4552 42.5525 63.2725 42.6431 63.1115C42.2328 63.0742 41.9406 63.3788 41.9406 63.9259C41.9596 64.327 42.0731 64.718 42.2719 65.067C42.4707 65.4159 42.7491 65.7129 43.0845 65.9339C43.5259 66.1825 43.9051 66.1142 44.0978 65.8033C43.9372 65.7769 43.7843 65.7153 43.6502 65.623Z" fill="#267FE5"/>
<path d="M37.2035 76.5775C37.2035 77.3048 36.6937 77.6032 36.0658 77.2364C35.7311 77.0223 35.4525 76.731 35.2535 76.3871C35.0545 76.0431 34.9408 75.6565 34.9219 75.2595C34.9219 74.5259 35.4317 74.2338 36.0658 74.6005C36.3973 74.8176 36.6731 75.1097 36.8707 75.4532C37.0683 75.7966 37.1824 76.1818 37.2035 76.5775Z" fill="#6DE0F6"/>
<path d="M36.6315 76.956C36.2981 76.739 36.0206 76.4463 35.8218 76.1016C35.623 75.757 35.5085 75.3702 35.4877 74.9729C35.4825 74.7882 35.5276 74.6055 35.6182 74.4445C35.2079 74.4072 34.9219 74.7118 34.9219 75.2589C34.9408 75.6558 35.0545 76.0425 35.2535 76.3864C35.4525 76.7304 35.7311 77.0216 36.0658 77.2358C36.501 77.4907 36.8802 77.4223 37.0729 77.1052C36.917 77.0868 36.7667 77.036 36.6315 76.956Z" fill="#267FE5"/>
<path d="M40.7159 78.6037C40.7159 79.3373 40.2061 79.6295 39.572 79.2689C39.2407 79.0501 38.9652 78.7568 38.7677 78.4124C38.5701 78.068 38.456 77.6822 38.4343 77.2857C38.4343 76.5584 38.9441 76.26 39.572 76.6268C39.9067 76.8409 40.1853 77.1322 40.3843 77.4761C40.5834 77.8201 40.697 78.2067 40.7159 78.6037Z" fill="#6DE0F6"/>
<path d="M44.2284 80.6301C44.2284 81.3636 43.7186 81.6558 43.0845 81.2953C42.7524 81.0768 42.476 80.7837 42.2774 80.4393C42.0788 80.095 41.9634 79.709 41.9406 79.3121C41.9406 78.5847 42.4566 78.2863 43.0845 78.6531C43.4175 78.8692 43.6947 79.1609 43.8935 79.5044C44.0923 79.848 44.207 80.2337 44.2284 80.6301Z" fill="#6DE0F6"/>
<path d="M40.1439 78.9892C39.8109 78.7732 39.5337 78.4815 39.3349 78.138C39.1361 77.7944 39.0214 77.4087 39.0001 77.0123C38.9944 76.8256 39.0395 76.6408 39.1306 76.4777C38.7203 76.4404 38.4343 76.745 38.4343 77.2921C38.456 77.6885 38.5701 78.0743 38.7677 78.4187C38.9652 78.7631 39.2407 79.0564 39.572 79.2752C40.0134 79.5301 40.3926 79.4555 40.5853 79.1447C40.4284 79.1267 40.2775 79.0736 40.1439 78.9892Z" fill="#267FE5"/>
<path d="M43.6502 81.0094C43.3187 80.7924 43.043 80.5003 42.8453 80.1568C42.6477 79.8134 42.5337 79.4282 42.5126 79.0325C42.5058 78.8476 42.551 78.6646 42.6431 78.5041C42.2328 78.4668 41.9406 78.7652 41.9406 79.3123C41.9625 79.7094 42.0774 80.0958 42.2761 80.4403C42.4748 80.7847 42.7517 81.0777 43.0845 81.2954C43.5259 81.5503 43.9051 81.4757 44.0978 81.1649C43.9392 81.146 43.7864 81.093 43.6502 81.0094Z" fill="#267FE5"/>
<defs>
<linearGradient id="paint0_linear_450_3126" x1="-10.9204" y1="106.096" x2="129.901" y2="106.096" gradientUnits="userSpaceOnUse">
<stop stop-color="#A31FA9"/>
<stop offset="0.07" stop-color="#8B17A0"/>
<stop offset="0.15" stop-color="#740F98"/>
<stop offset="0.24" stop-color="#640A92"/>
<stop offset="0.34" stop-color="#5B078F"/>
<stop offset="0.48" stop-color="#58068E"/>
<stop offset="0.63" stop-color="#4D22A3"/>
<stop offset="0.94" stop-color="#3168DA"/>
<stop offset="1" stop-color="#2C75E4"/>
</linearGradient>
<linearGradient id="paint1_linear_450_3126" x1="-0.234224" y1="94.9692" x2="108.602" y2="121.445" gradientUnits="userSpaceOnUse">
<stop stop-color="#2C75E4"/>
<stop offset="0.16" stop-color="#317DE5"/>
<stop offset="0.41" stop-color="#3F95E9"/>
<stop offset="0.73" stop-color="#56BAF0"/>
<stop offset="1" stop-color="#6DE0F6"/>
</linearGradient>
<linearGradient id="paint2_linear_450_3126" x1="-10.9204" y1="90.6711" x2="129.901" y2="90.6711" gradientUnits="userSpaceOnUse">
<stop stop-color="#A31FA9"/>
<stop offset="0.07" stop-color="#8B17A0"/>
<stop offset="0.15" stop-color="#740F98"/>
<stop offset="0.24" stop-color="#640A92"/>
<stop offset="0.34" stop-color="#5B078F"/>
<stop offset="0.48" stop-color="#58068E"/>
<stop offset="0.63" stop-color="#4D22A3"/>
<stop offset="0.94" stop-color="#3168DA"/>
<stop offset="1" stop-color="#2C75E4"/>
</linearGradient>
<linearGradient id="paint3_linear_450_3126" x1="-0.298505" y1="79.5038" x2="108.539" y2="105.989" gradientUnits="userSpaceOnUse">
<stop stop-color="#8D139B"/>
<stop offset="0.17" stop-color="#851BA1"/>
<stop offset="0.43" stop-color="#6E33B2"/>
<stop offset="0.76" stop-color="#4958CD"/>
<stop offset="1" stop-color="#2979E4"/>
</linearGradient>
<linearGradient id="paint4_linear_450_3126" x1="-10.9204" y1="60.7182" x2="129.901" y2="60.7182" gradientUnits="userSpaceOnUse">
<stop stop-color="#A31FA9"/>
<stop offset="0.07" stop-color="#8B17A0"/>
<stop offset="0.15" stop-color="#740F98"/>
<stop offset="0.24" stop-color="#640A92"/>
<stop offset="0.34" stop-color="#5B078F"/>
<stop offset="0.48" stop-color="#58068E"/>
<stop offset="0.63" stop-color="#4D22A3"/>
<stop offset="0.94" stop-color="#3168DA"/>
<stop offset="1" stop-color="#2C75E4"/>
</linearGradient>
<linearGradient id="paint5_linear_450_3126" x1="-0.415317" y1="49.4875" x2="108.413" y2="75.9801" gradientUnits="userSpaceOnUse">
<stop stop-color="#2C75E4"/>
<stop offset="0.16" stop-color="#317DE5"/>
<stop offset="0.41" stop-color="#3F95E9"/>
<stop offset="0.73" stop-color="#56BAF0"/>
<stop offset="1" stop-color="#6DE0F6"/>
</linearGradient>
<linearGradient id="paint6_linear_450_3126" x1="-10.9204" y1="45.294" x2="129.901" y2="45.294" gradientUnits="userSpaceOnUse">
<stop stop-color="#A31FA9"/>
<stop offset="0.07" stop-color="#8B17A0"/>
<stop offset="0.15" stop-color="#740F98"/>
<stop offset="0.24" stop-color="#640A92"/>
<stop offset="0.34" stop-color="#5B078F"/>
<stop offset="0.48" stop-color="#58068E"/>
<stop offset="0.63" stop-color="#4D22A3"/>
<stop offset="0.94" stop-color="#3168DA"/>
<stop offset="1" stop-color="#2C75E4"/>
</linearGradient>
<linearGradient id="paint7_linear_450_3126" x1="-0.47419" y1="34.0272" x2="108.352" y2="60.5107" gradientUnits="userSpaceOnUse">
<stop stop-color="#8D139B"/>
<stop offset="0.17" stop-color="#851BA1"/>
<stop offset="0.43" stop-color="#6E33B2"/>
<stop offset="0.76" stop-color="#4958CD"/>
<stop offset="1" stop-color="#2979E4"/>
</linearGradient>
</defs>
</svg>
