<svg width="80" height="80" viewBox="0 0 80 80" fill="none" xmlns="http://www.w3.org/2000/svg">
<g clip-path="url(#clip0_563_4110)">
<path d="M62.1145 13.3623V18.5912C62.1145 19.1953 61.6248 19.685 61.0207 19.685H53.7232C53.1192 19.685 52.6295 19.1953 52.6295 18.5912V13.3623C46.7579 14.9615 42.4868 20.4153 42.4868 26.6004V31.6232C42.4868 35.6387 44.0453 39.4029 46.8749 42.2225C49.6862 45.0237 53.3918 46.5643 57.3137 46.5645H57.4224C61.3523 46.5645 65.0576 45.0239 67.869 42.2225C70.6987 39.4029 72.2571 35.6387 72.2571 31.6232V26.6004C72.2571 20.4154 67.986 14.9615 62.1145 13.3623ZM61.8232 41.5834C60.5128 42.6214 58.9423 43.1401 57.372 43.1401C55.8017 43.1401 54.2312 42.6214 52.9209 41.5834C52.4473 41.2084 52.3674 40.5204 52.7424 40.047C53.1174 39.5734 53.8053 39.4936 54.2788 39.8686C56.1001 41.3107 58.644 41.3106 60.4653 39.8686C60.9388 39.4934 61.6267 39.5732 62.0017 40.047C62.3767 40.5204 62.297 41.2084 61.8232 41.5834ZM70.529 29.7246C70.529 32.9271 67.9235 35.5328 64.721 35.5328H50.0231C46.8206 35.5328 44.2151 32.9271 44.2151 29.7246C44.2151 26.5221 46.8206 23.9167 50.0231 23.9167H64.721C67.9235 23.9167 70.529 26.5221 70.529 29.7246Z" fill="#FFD8CD"/>
<path d="M15.1496 67.3019C15.7337 67.1505 16.3312 67.5016 16.4826 68.0864C16.634 68.6711 16.2827 69.268 15.6981 69.4194C13.9757 69.8653 12.7141 71.2589 12.5588 72.887C12.4046 74.5044 13.3745 76.0714 14.9721 76.7869C16.466 77.4558 18.2421 77.2731 19.5371 76.3556V73.7553C18.8471 74.3028 18.0002 74.7024 17.0037 74.8606C16.4077 74.9563 15.8468 74.5488 15.752 73.952C15.6573 73.3555 16.064 72.7952 16.6605 72.7003C18.5288 72.4038 19.537 70.7011 19.537 69.2497V49.9763C19.537 48.525 18.5288 46.8224 16.6605 46.5256C16.064 46.4309 15.6571 45.8705 15.752 45.2739C15.8465 44.6774 16.4062 44.2694 17.0037 44.3653C18.0001 44.5236 18.8471 44.9231 19.5371 45.4706V42.8703C18.242 41.9528 16.466 41.77 14.9723 42.4392C13.3743 43.1545 12.4045 44.7217 12.5588 46.3389C12.7141 47.9672 13.9756 49.3608 15.6981 49.8067C16.2827 49.9583 16.634 50.555 16.4826 51.1397C16.3551 51.6325 15.911 51.9595 15.4246 51.9595C15.3338 51.9595 15.2416 51.9481 15.1496 51.9242C12.5398 51.2483 10.6235 49.0872 10.3813 46.5464C10.3582 46.3038 10.3509 46.0619 10.3584 45.822C9.25508 46.2953 8.34274 47.0863 7.76118 48.1049C6.21415 50.8147 7.93336 53.5386 8.7443 54.5841C9.11461 55.0614 9.02774 55.7485 8.55071 56.1186C8.35133 56.2733 8.11524 56.3483 7.88102 56.3483C7.55461 56.3483 7.23164 56.2028 7.01618 55.925C6.09743 54.7408 5.48071 53.5077 5.17211 52.28C4.45211 52.7499 3.85555 53.3717 3.44133 54.0974C2.32008 56.0613 2.91868 58.0261 3.60055 59.3099C4.37243 58.8761 5.2429 58.6042 6.14977 58.5235C6.75477 58.4708 7.28274 58.9142 7.33649 59.5158C7.39008 60.1175 6.94586 60.6488 6.34415 60.7025C5.40243 60.7864 4.52649 61.1784 3.87774 61.8064C2.8854 62.7667 2.5568 64.1388 3.02008 65.3869C3.36227 66.3088 4.11196 67.0577 5.05993 67.4672C5.31243 66.0686 5.96727 64.653 7.01618 63.3009C7.38618 62.8238 8.07336 62.737 8.55071 63.1074C9.02789 63.4775 9.11461 64.1647 8.7443 64.6419C7.93336 65.6872 6.21415 68.4111 7.76118 71.1209C8.34227 72.1389 9.25508 72.9302 10.3584 73.4038C10.3509 73.1639 10.3584 72.922 10.3813 72.6794C10.6235 70.1388 12.5396 67.9777 15.1496 67.3017V67.3019ZM12.5887 57.6428C12.1079 57.2772 12.0145 56.5911 12.3802 56.1102C12.746 55.6292 13.432 55.5358 13.9129 55.9017C15.1771 56.8631 15.9021 58.2945 15.9021 59.8289C15.9021 61.3633 15.177 62.7945 13.9131 63.7563C13.7151 63.9067 13.4824 63.9795 13.2516 63.9795C12.9218 63.9795 12.5956 63.8309 12.3804 63.548C12.0146 63.0672 12.1081 62.3809 12.5887 62.0152C13.3043 61.4709 13.7148 60.6739 13.7148 59.8289C13.7148 58.9839 13.3043 58.187 12.5887 57.6428Z" fill="#FFD8CD"/>
<path d="M79.3768 29.7252C79.3768 26.6859 77.1146 24.1664 74.186 23.7583C73.6812 20.9956 72.4471 18.3941 70.5884 16.2369C70.2563 15.8516 69.9062 15.4853 69.542 15.1358V8.82281C71.3124 8.34094 72.6184 6.72016 72.6184 4.79906C72.6184 2.49953 70.7476 0.628906 68.4482 0.628906C66.1488 0.628906 64.2781 2.49969 64.2781 4.79906C64.2781 6.72016 65.584 8.34094 67.3545 8.82281V13.3778C65.6401 12.2316 63.7146 11.4223 61.6834 11.012C60.9335 9.37875 59.2835 8.24125 57.3718 8.24125C55.4601 8.24125 53.8102 9.37875 53.0604 11.012C51.0292 11.4225 49.1035 12.2317 47.3892 13.378V8.82297C49.1596 8.34109 50.4656 6.72031 50.4656 4.79922C50.4656 2.49969 48.5948 0.629063 46.2954 0.629063C43.996 0.629063 42.1252 2.49984 42.1252 4.79922C42.1252 6.72031 43.4312 8.34109 45.2017 8.82297V15.1363C44.8374 15.4858 44.4873 15.8519 44.1554 16.2372C42.2965 18.3944 41.0626 20.9959 40.5577 23.7586C37.6292 24.1667 35.367 26.6863 35.367 29.7255C35.367 32.8438 37.7479 35.4163 40.7871 35.7211C41.5224 38.75 43.0734 41.5234 45.331 43.7728C48.5556 46.9856 52.8085 48.7528 57.3057 48.7528H57.4304C61.9351 48.7528 66.1887 46.9855 69.4131 43.7728C71.6706 41.5234 73.2215 38.75 73.9568 35.7211C76.996 35.4163 79.377 32.8436 79.377 29.7255L79.3768 29.7252ZM66.4654 4.79906C66.4654 3.70578 67.3548 2.81641 68.4481 2.81641C69.5413 2.81641 70.4307 3.70578 70.4307 4.79906C70.4307 5.89234 69.5413 6.78172 68.4481 6.78172C67.3548 6.78172 66.4654 5.89234 66.4654 4.79906ZM44.3124 4.79906C44.3124 3.70578 45.2018 2.81641 46.2951 2.81641C47.3884 2.81641 48.2777 3.70578 48.2777 4.79906C48.2777 5.89234 47.3884 6.78172 46.2951 6.78172C45.2018 6.78172 44.3124 5.89234 44.3124 4.79906ZM54.8168 12.9836C54.8168 11.5747 55.9629 10.4286 57.3718 10.4286C58.7807 10.4286 59.927 11.5747 59.927 12.9836V17.4981H54.817V12.9836H54.8168ZM37.5543 29.7252C37.5543 27.9839 38.7199 26.5106 40.3118 26.0425C40.3052 26.2284 40.2993 26.4144 40.2993 26.6009V31.6238C40.2993 32.2317 40.3315 32.8347 40.3931 33.4308C38.7598 32.9897 37.5545 31.4958 37.5545 29.725L37.5543 29.7252ZM72.2571 31.6238C72.2571 35.6392 70.6987 39.4034 67.869 42.223C65.0576 45.0244 61.3523 46.565 57.4224 46.565C57.3862 46.565 57.3503 46.565 57.3137 46.565C53.3918 46.565 49.6863 45.0242 46.8749 42.223C44.0452 39.4034 42.4868 35.6392 42.4868 31.6238V26.6009C42.4868 20.4159 46.7579 14.962 52.6295 13.3628V18.5917C52.6295 19.1958 53.1192 19.6855 53.7232 19.6855H61.0207C61.6248 19.6855 62.1145 19.1958 62.1145 18.5917V13.3628C67.986 14.962 72.2571 20.4159 72.2571 26.6009V31.6238ZM74.3509 33.4308C74.4126 32.8345 74.4446 32.2317 74.4446 31.6238V26.6009C74.4446 26.4144 74.4387 26.2284 74.4321 26.0425C76.0238 26.5106 77.1896 27.9838 77.1896 29.7252C77.1896 31.4959 75.9842 32.9897 74.351 33.4309L74.3509 33.4308ZM50.0229 23.9172C46.8204 23.9172 44.2149 26.5227 44.2149 29.7252C44.2149 32.9277 46.8204 35.5333 50.0229 35.5333H64.7209C67.9234 35.5333 70.5288 32.9277 70.5288 29.7252C70.5288 26.5227 67.9234 23.9172 64.7209 23.9172H50.0229ZM68.3413 29.7252C68.3413 31.7216 66.7171 33.3458 64.7209 33.3458H50.0229C48.0267 33.3458 46.4024 31.7216 46.4024 29.7252C46.4024 27.7288 48.0267 26.1047 50.0229 26.1047H64.7209C66.7171 26.1047 68.3413 27.7289 68.3413 29.7252ZM62.0015 40.0473C62.3765 40.5208 62.2968 41.2087 61.8231 41.5837C60.5126 42.6217 58.9421 43.1405 57.3718 43.1405C55.8015 43.1405 54.231 42.6217 52.9207 41.5837C52.4471 41.2087 52.3673 40.5208 52.7423 40.0473C53.1173 39.5737 53.8051 39.4939 54.2787 39.8689C56.0999 41.3111 58.6438 41.3109 60.4651 39.8689C60.9387 39.4938 61.6265 39.5736 62.0015 40.0473ZM27.5473 59.8289C27.5473 60.6739 27.9577 61.4708 28.6734 62.0152C29.1542 62.3808 29.2476 63.0669 28.8818 63.5478C28.6667 63.8308 28.3404 63.9795 28.0106 63.9795C27.7796 63.9795 27.5471 63.9069 27.3493 63.7562C26.0849 62.7947 25.3599 61.3633 25.3599 59.8289C25.3599 58.2945 26.0851 56.8631 27.3493 55.9016C27.8304 55.5359 28.5163 55.6295 28.8821 56.1102C29.2477 56.5911 29.1543 57.2772 28.6735 57.643C27.9579 58.187 27.5474 58.9839 27.5474 59.8289H27.5473ZM39.7204 53.013C38.9513 51.6659 37.7484 50.5775 36.2982 49.9016C36.2177 48.9025 35.9207 47.9316 35.4006 47.0205C34.3238 45.1344 32.462 43.8056 30.2567 43.3319C29.6226 42.0925 28.5546 41.0564 27.184 40.4428C25.0565 39.4903 22.5301 39.7163 20.6312 40.967C18.7321 39.7161 16.206 39.4902 14.0785 40.4428C12.7079 41.0564 11.6399 42.0923 11.0057 43.3319C8.80041 43.8056 6.93838 45.1344 5.86181 47.0205C5.34166 47.9316 5.04463 48.9025 4.96416 49.9014C3.514 50.5773 2.31103 51.6658 1.54197 53.0128C0.216502 55.3345 0.351346 58.1267 1.89556 60.74C0.639158 62.2712 0.278533 64.2861 0.969627 66.1481C1.6176 67.8941 3.1451 69.2478 5.01369 69.7647C5.13713 70.6087 5.41853 71.4291 5.86197 72.2058C6.93806 74.0908 8.80088 75.4202 11.0057 75.8941C11.6398 77.1336 12.7079 78.1697 14.0787 78.7836C14.9628 79.1794 15.9153 79.3719 16.8635 79.3719C18.197 79.3719 19.5213 78.9909 20.6312 78.26C21.7412 78.9911 23.0652 79.3719 24.399 79.3719C25.347 79.3719 26.2999 79.1795 27.1838 78.7836C28.5545 78.1698 29.6227 77.1336 30.2568 75.8941C32.4617 75.4202 34.3245 74.0906 35.4006 72.2058C35.844 71.4291 36.1254 70.6087 36.2488 69.7647C38.1173 69.2478 39.6449 67.8941 40.2929 66.1481C40.9842 64.2862 40.6234 62.2714 39.367 60.74C40.911 58.1267 41.0459 55.3347 39.7204 53.013ZM14.9723 76.7872C13.3745 76.0717 12.4046 74.5047 12.559 72.8873C12.7143 71.2592 13.9757 69.8656 15.6982 69.4197C16.2829 69.2681 16.6342 68.6714 16.4828 68.0867C16.3312 67.5019 15.7338 67.1508 15.1498 67.3022C12.5399 67.9781 10.6237 70.1392 10.3815 72.6798C10.3584 72.9225 10.351 73.1644 10.3585 73.4042C9.25541 72.9306 8.3426 72.1394 7.7615 71.1214C6.21447 68.4116 7.93369 65.6878 8.74463 64.6423C9.11494 64.165 9.02806 63.478 8.55103 63.1078C8.07353 62.7375 7.3865 62.8244 7.0165 63.3014C5.9676 64.6534 5.31275 66.0689 5.06025 67.4677C4.11213 67.0581 3.3626 66.3092 3.02041 65.3873C2.55713 64.1392 2.88588 62.7672 3.87806 61.8069C4.52681 61.1788 5.40275 60.7869 6.34447 60.703C6.94619 60.6492 7.39025 60.118 7.33681 59.5162C7.28306 58.9147 6.7551 58.4712 6.1501 58.5239C5.24322 58.6048 4.37275 58.8766 3.60088 59.3103C2.919 58.0266 2.32025 56.0616 3.44166 54.0978C3.85588 53.3722 4.45244 52.7505 5.17228 52.2805C5.48103 53.5081 6.09775 54.7412 7.01635 55.9255C7.23181 56.2033 7.55478 56.3487 7.88119 56.3487C8.11541 56.3487 8.3515 56.2739 8.55088 56.1191C9.02806 55.7489 9.11478 55.0617 8.74447 54.5845C7.93353 53.5392 6.21431 50.8152 7.76135 48.1053C8.34275 47.0867 9.25525 46.2958 10.3584 45.8225C10.3509 46.0623 10.3584 46.3042 10.3813 46.5469C10.6235 49.0877 12.5396 51.2487 15.1496 51.9247C15.2417 51.9484 15.3338 51.96 15.4246 51.96C15.911 51.96 16.3551 51.633 16.4826 51.1402C16.634 50.5555 16.2828 49.9586 15.6981 49.8072C13.9757 49.3612 12.7142 47.9677 12.5588 46.3394C12.4046 44.7222 13.3745 43.155 14.9723 42.4397C16.466 41.7705 18.242 41.9534 19.5371 42.8708V45.4711C18.8471 44.9236 18.0003 44.5241 17.0037 44.3658C16.4062 44.27 15.8467 44.6778 15.752 45.2744C15.6573 45.8708 16.064 46.4313 16.6606 46.5261C18.5288 46.8228 19.537 48.5255 19.537 49.9767V69.2502C19.537 70.7016 18.5288 72.4042 16.6606 72.7008C16.064 72.7955 15.6571 73.3558 15.752 73.9525C15.8467 74.5492 16.4076 74.9569 17.0037 74.8611C18.0003 74.703 18.8471 74.3034 19.5371 73.7558V76.3561C18.2421 77.2736 16.466 77.4563 14.9721 76.7873L14.9723 76.7872ZM38.242 65.3872C37.8998 66.3091 37.1501 67.058 36.2021 67.4675C35.9496 66.0689 35.2948 64.6533 34.2459 63.3012C33.8757 62.8241 33.1887 62.7373 32.7113 63.1077C32.234 63.4778 32.1474 64.165 32.5177 64.6422C33.3287 65.6875 35.0479 68.4114 33.5009 71.1213C32.9198 72.1392 32.0071 72.9305 30.9038 73.4039C30.9113 73.1641 30.904 72.9223 30.8809 72.6797C30.6385 70.1389 28.7223 67.9778 26.1123 67.3019C25.5276 67.1505 24.9307 67.5017 24.7793 68.0864C24.6279 68.6711 24.9792 69.268 25.5638 69.4194C27.2862 69.8653 28.5479 71.2589 28.7032 72.8872C28.8574 74.5044 27.8876 76.0714 26.2899 76.7869C24.7962 77.4556 23.0195 77.2759 21.7248 76.3594V73.7553C22.4148 74.3028 23.2617 74.7023 24.2582 74.8606C24.3163 74.87 24.374 74.8744 24.431 74.8744C24.9595 74.8744 25.4243 74.4905 25.5098 73.952C25.6045 73.3555 25.1977 72.7952 24.6012 72.7003C22.7329 72.4037 21.7248 70.7011 21.7248 69.2497V49.9762C21.7248 48.525 22.7329 46.8223 24.6012 46.5256C25.1977 46.4309 25.6046 45.8705 25.5098 45.2739C25.4152 44.6773 24.8534 44.2702 24.2581 44.3653C23.2615 44.5236 22.4146 44.9231 21.7246 45.4706V42.8666C23.0195 41.95 24.7962 41.7706 26.2898 42.4392C27.8876 43.1545 28.8574 44.7217 28.7031 46.3391C28.5477 47.9672 27.2862 49.3608 25.5637 49.8067C24.979 49.9581 24.6277 50.555 24.7792 51.1397C24.9306 51.7245 25.5274 52.0756 26.1121 51.9242C28.722 51.2484 30.6384 49.0872 30.8806 46.5466C30.9037 46.3037 30.911 46.0619 30.9035 45.822C32.0067 46.2953 32.9192 47.0862 33.5006 48.1048C35.0476 50.8147 33.3284 53.5386 32.5174 54.5841C32.1471 55.0614 32.234 55.7484 32.711 56.1186C32.9104 56.2733 33.1465 56.3483 33.3807 56.3483C33.7071 56.3483 34.0301 56.2028 34.2456 55.925C35.1643 54.7408 35.7809 53.5077 36.0896 52.28C36.8096 52.7498 37.4062 53.3716 37.8204 54.0972C38.9417 56.0611 38.3431 58.0259 37.6612 59.3097C36.8892 58.8759 36.0187 58.6041 35.1118 58.5233C34.5079 58.4706 33.9788 58.9139 33.9252 59.5156C33.8715 60.1173 34.3157 60.6486 34.9174 60.7023C35.8592 60.7863 36.7352 61.1783 37.384 61.8061C38.3763 62.7666 38.7049 64.1386 38.2417 65.3867L38.242 65.3872ZM19.5373 34.8173V18.2073C19.5373 17.6033 20.027 17.1136 20.631 17.1136H29.3896L29.147 16.9337C28.6618 16.5739 28.5599 15.8889 28.9198 15.4037C29.2795 14.9186 29.9648 14.8169 30.4498 15.1766L33.3527 17.3287C33.6309 17.535 33.7951 17.8609 33.7951 18.2073C33.7951 18.5537 33.631 18.8797 33.3527 19.0859L30.4498 21.2383C30.254 21.3834 30.0256 21.4534 29.7993 21.4534C29.4646 21.4534 29.1345 21.3005 28.9198 21.0111C28.5599 20.5259 28.6618 19.8409 29.147 19.4811L29.3898 19.3011H21.7248V34.8173C21.7248 35.4214 21.2351 35.9111 20.631 35.9111C20.027 35.9111 19.5373 35.4214 19.5373 34.8173ZM58.4656 52.815V65.2062C58.4656 65.8103 57.9759 66.3 57.3718 66.3H48.6132L48.8559 66.4798C49.341 66.8397 49.4429 67.5247 49.0831 68.0098C48.8685 68.2994 48.5382 68.4522 48.2035 68.4522C47.9773 68.4522 47.7488 68.3822 47.5531 68.237L44.6501 66.0848C44.3718 65.8786 44.2077 65.5527 44.2077 65.2062C44.2077 64.8598 44.3718 64.5339 44.6501 64.3277L47.5531 62.1755C48.0384 61.8158 48.7235 61.9177 49.0831 62.4027C49.4429 62.8878 49.341 63.5728 48.8559 63.9327L48.6132 64.1125H56.2781V52.815C56.2781 52.2109 56.7677 51.7212 57.3718 51.7212C57.9759 51.7212 58.4656 52.2109 58.4656 52.815ZM15.9024 59.8291C15.9024 61.3633 15.1773 62.7947 13.9134 63.7564C13.7154 63.9069 13.4828 63.9797 13.252 63.9797C12.9221 63.9797 12.5959 63.8311 12.3807 63.5481C12.0149 63.0673 12.1084 62.3811 12.589 62.0153C13.3046 61.4711 13.7151 60.6741 13.7151 59.8291C13.7151 58.9841 13.3048 58.1872 12.5892 57.643C12.1084 57.2773 12.0149 56.5912 12.3807 56.1103C12.7465 55.6294 13.4324 55.5359 13.9134 55.9019C15.1776 56.8633 15.9024 58.2947 15.9024 59.8291Z" fill="#FF9072"/>
</g>
<defs>
<clipPath id="clip0_563_4110">
<rect width="80" height="80" fill="white"/>
</clipPath>
</defs>
</svg>
