<svg width="80" height="80" viewBox="0 0 80 80" fill="none" xmlns="http://www.w3.org/2000/svg">
<path d="M61.3839 53.8208H51.9278C52.0706 54.571 52.1426 55.3355 52.1426 56.1042C52.1426 62.8061 46.6903 68.2583 39.9886 68.2583C33.2869 68.2583 27.8345 62.806 27.8345 56.1042C27.8345 55.3355 27.9065 54.571 28.0494 53.8208H18.5933V59.1544L22.4226 59.9096C22.6789 59.96 22.8929 60.1353 22.9931 60.3767L24.9514 65.0978C25.0517 65.3394 25.0244 65.615 24.8787 65.8322L22.7031 69.0764L27.0165 73.3899L30.2608 71.2142C30.4778 71.0685 30.7534 71.0411 30.9951 71.1416L35.7162 73.1C35.9575 73.2002 36.1329 73.4142 36.1834 73.6705L36.9386 77.4997H43.0387L43.7939 73.6705C43.8444 73.4142 44.0197 73.2002 44.2611 73.1L48.9822 71.1416C49.2237 71.0411 49.4995 71.0686 49.7165 71.2142L52.9608 73.3899L57.2742 69.0764L55.0987 65.8322C54.9529 65.615 54.9258 65.3394 55.0259 65.0978L56.9842 60.3767C57.0844 60.1355 57.2984 59.96 57.5547 59.9096L61.384 59.1544V53.8208H61.3839Z" fill="#FFD8CD"/>
<path d="M50.0542 19.4512H61.4067V21.1629H50.0542V19.4512Z" fill="#FFD8CD"/>
<path d="M53.2212 33.9062H61.3837V48.8069H53.2212V33.9062Z" fill="#FFD8CD"/>
<path d="M30.5601 16.2812H37.9068V17.9588H30.5601V16.2812Z" fill="#FFD8CD"/>
<path d="M26.1938 35.8652L18.593 39.597V48.8066H25.5013V42.3359C25.5013 41.9045 25.8511 41.5546 26.2825 41.5546H34.7533C35.1847 41.5546 35.5346 41.9045 35.5346 42.3359V48.8066H42.443V39.7298L34.5719 35.8652H26.1936H26.1938Z" fill="#FFD8CD"/>
<path d="M62.9693 21.4654V19.1485C62.9693 18.4538 62.4041 17.8885 61.7094 17.8885H49.7518C49.0571 17.8885 48.4919 18.4538 48.4919 19.1485V21.4654C48.4919 22.1336 49.0152 22.6804 49.6733 22.7213L49.0955 30.2918L43.615 27.1277C43.3733 26.988 43.0755 26.9882 42.8338 27.1277L39.4777 29.0654L38.8407 19.3268C39.2163 19.085 39.4694 18.6422 39.4694 18.1354V16.1044C39.4694 15.3404 38.8958 14.7186 38.1905 14.7186H37.5279V13.8466C37.5279 13.3014 37.9713 12.858 38.5163 12.858H44.549C46.0797 12.858 47.3252 11.6125 47.3252 10.0816C47.3252 8.55066 46.0797 7.30535 44.549 7.30535H43.519C43.8004 5.91894 43.2033 4.6866 42.3294 3.96691C41.39 3.19348 39.9308 2.84816 38.4943 3.54238C37.6021 1.55394 35.4279 0.792694 33.5458 0.960507C31.4227 1.1491 29.1375 2.5291 29.1375 5.11379C29.1375 5.29785 29.1522 5.48144 29.181 5.66238H28.5105C26.5268 5.66238 24.9127 7.27644 24.9127 9.26019C24.9127 11.2439 26.5268 12.858 28.5105 12.858H29.9507C30.4958 12.858 30.9393 13.3014 30.9393 13.8466V14.7186H30.2765C29.5713 14.7186 28.9975 15.3404 28.9975 16.1044V18.1354C28.9975 18.6421 29.2507 19.085 29.6263 19.3266L29.1475 26.6468L19.4527 32.2441C19.211 32.3836 19.0621 32.6416 19.0621 32.9207V37.626L17.4674 38.4089C17.2 38.5402 17.0305 38.8124 17.0305 39.1102V49.5879C17.0305 50.0193 17.3804 50.3691 17.8118 50.3691H62.165C62.5964 50.3691 62.9463 50.0193 62.9463 49.5879V33.1247C62.9463 32.8257 62.7763 32.5689 62.5296 32.4377L61.788 22.7211C62.4461 22.6802 62.9694 22.1335 62.9694 21.4652L62.9693 21.4654ZM50.0543 19.451H61.4068V21.1627H50.0543V19.451ZM51.2397 22.7252H60.2211L60.9552 32.3436H52.6493L50.5961 31.1583L51.2397 22.7254V22.7252ZM29.9505 11.2957H28.5104C27.388 11.2957 26.475 10.3827 26.475 9.26035C26.475 8.13801 27.388 7.22504 28.5104 7.22504H30.2658C30.543 7.22504 30.7997 7.07801 30.9397 6.83879C31.0799 6.59957 31.0829 6.30394 30.9474 6.06191C30.7854 5.77269 30.6999 5.44488 30.6999 5.11379C30.6999 3.5116 32.2466 2.64457 33.684 2.51691C35.2399 2.37894 36.9565 3.06113 37.2849 4.89676C37.3341 5.1716 37.5263 5.39941 37.7891 5.4941C38.0518 5.58863 38.345 5.53613 38.5585 5.35566C39.6508 4.43191 40.7375 4.68004 41.3361 5.17316C41.834 5.58316 42.233 6.36113 41.898 7.30535H40.0115C39.58 7.30535 39.2302 7.65519 39.2302 8.0866C39.2302 8.51801 39.58 8.86785 40.0115 8.86785H44.549C45.2182 8.86785 45.7627 9.41238 45.7627 10.0816C45.7627 10.7508 45.2183 11.2955 44.549 11.2955H38.5163C37.1097 11.2955 35.9654 12.4399 35.9654 13.8466V14.7186H32.5018V13.8466C32.5018 12.44 31.3574 11.2955 29.9507 11.2955L29.9505 11.2957ZM30.56 16.2811H37.9068V17.9586H30.56V16.2811ZM31.1794 19.5211H37.2874L37.9686 29.9363L35.5346 31.3416V24.3122C35.5346 24.0332 35.3857 23.7752 35.144 23.6357C34.9022 23.496 34.6044 23.4961 34.3627 23.6357L30.7747 25.7072L31.1794 19.5211ZM20.6246 33.3718L33.9722 25.6655V34.3028H26.0124C25.893 34.3028 25.7752 34.3302 25.668 34.3829L20.6246 36.8591V33.3719V33.3718ZM33.9722 48.8068H27.064V43.1172H33.9722V48.8068ZM42.4432 48.8068H35.5347V42.336C35.5347 41.9046 35.1849 41.5547 34.7535 41.5547H26.2827C25.8513 41.5547 25.5015 41.9046 25.5015 42.336V48.8068H18.5932V39.5971L26.194 35.8653H34.5722L42.4433 39.7299V48.8068H42.4432ZM43.5688 38.5418L35.5349 34.5972V33.1458L43.2246 28.7063L51.659 33.576V48.8068H44.0058V39.243C44.0058 38.945 43.8365 38.673 43.569 38.5418H43.5688ZM61.384 48.8068H53.2215V33.9061H61.384V48.8068ZM50.3118 12.8582H51.9086C53.4394 12.8582 54.685 11.6127 54.685 10.0819C54.685 8.55113 53.4396 7.30551 51.9086 7.30551H50.3118C48.781 7.30551 47.5354 8.55098 47.5354 10.0819C47.5354 11.6129 48.7808 12.8582 50.3118 12.8582ZM50.3118 8.86801H51.9086C52.578 8.86801 53.1225 9.41254 53.1225 10.0819C53.1225 10.7513 52.578 11.2957 51.9086 11.2957H50.3118C49.6424 11.2957 49.0979 10.7511 49.0979 10.0818C49.0979 9.41238 49.6424 8.86801 50.3118 8.86801ZM62.1652 52.2582H50.9432C50.6989 52.2582 50.4686 52.3724 50.321 52.5671C50.1733 52.7616 50.125 53.0141 50.1908 53.2494C50.4493 54.175 50.5802 55.1354 50.5802 56.1041C50.5802 61.9443 45.8288 66.6957 39.9886 66.6957C34.1485 66.6957 29.3971 61.9443 29.3971 56.1041C29.3971 55.1355 29.528 54.175 29.7865 53.2494C29.8521 53.0141 29.804 52.7616 29.6563 52.5671C29.5086 52.3724 29.2783 52.2582 29.0341 52.2582H17.8118C17.3804 52.2582 17.0305 52.608 17.0305 53.0394V59.7964C17.0305 60.1697 17.2944 60.4907 17.6607 60.5629L21.7099 61.3613L23.3475 65.3096L21.0474 68.7394C20.8396 69.0493 20.88 69.463 21.1438 69.7269L26.3655 74.9486C26.6294 75.2125 27.043 75.2527 27.353 75.045L30.7829 72.7449L34.7311 74.3825L35.5296 78.4318C35.6018 78.7979 35.9229 79.0619 36.296 79.0619H43.6807C44.054 79.0619 44.3749 78.798 44.4471 78.4318L45.2455 74.3825L49.1938 72.7449L52.6236 75.045C52.9333 75.2527 53.3471 75.2125 53.6111 74.9486L58.8329 69.7269C59.0966 69.463 59.1371 69.0493 58.9293 68.7394L56.6291 65.3096L58.2668 61.3614L62.316 60.563C62.6821 60.4908 62.9461 60.1697 62.9461 59.7966V53.0396C62.9461 52.6082 62.5963 52.2583 62.1649 52.2583L62.1652 52.2582ZM61.384 59.1543L57.5546 59.9094C57.2983 59.9599 57.0843 60.1352 56.9841 60.3766L55.0258 65.0977C54.9255 65.3393 54.9529 65.6149 55.0986 65.8321L57.2741 69.0763L52.9607 73.3897L49.7165 71.2141C49.4993 71.0683 49.2236 71.041 48.9821 71.1414L44.261 73.0999C44.0197 73.2 43.8443 73.4141 43.7938 73.6704L43.0386 77.4996H36.9385L36.1833 73.6704C36.1329 73.4141 35.9575 73.2 35.7161 73.0999L30.995 71.1414C30.7533 71.041 30.4777 71.0685 30.2607 71.2141L27.0165 73.3897L22.703 69.0763L24.8786 65.8321C25.0243 65.6149 25.0516 65.3393 24.9513 65.0977L22.993 60.3766C22.8929 60.1354 22.6788 59.9599 22.4225 59.9094L18.5932 59.1543V53.8207H28.0493C27.9066 54.5708 27.8344 55.3354 27.8344 56.1041C27.8344 62.806 33.2868 68.2582 39.9885 68.2582C46.6902 68.2582 52.1425 62.8058 52.1425 56.1041C52.1425 55.3354 52.0705 54.5708 51.9277 53.8207H61.3838V59.1543H61.384Z" fill="#FF9072"/>
</svg>
