<svg width="64" height="64" viewBox="0 0 64 64" fill="none" xmlns="http://www.w3.org/2000/svg">
<path d="M29 8.25H35C35.6901 8.25 36.25 7.69007 36.25 7C36.25 6.30993 35.6901 5.75 35 5.75H29C28.3099 5.75 27.75 6.30993 27.75 7C27.75 7.69007 28.3099 8.25 29 8.25Z" fill="#FC6238" stroke="#FC6238" stroke-width="0.5"/>
<path d="M21 62.25H43C45.8961 62.25 48.25 59.894 48.25 57V23C48.25 22.3099 47.6901 21.75 47 21.75C46.3099 21.75 45.75 22.3099 45.75 23V57C45.75 58.5159 44.5159 59.75 43 59.75H21C19.4841 59.75 18.25 58.5159 18.25 57V23C18.25 22.3099 17.6901 21.75 17 21.75C16.3099 21.75 15.75 22.3099 15.75 23V57C15.75 59.894 18.1039 62.25 21 62.25Z" fill="#FC6238" stroke="#FC6238" stroke-width="0.5"/>
<path d="M45.75 29C45.75 29.6901 46.3099 30.25 47 30.25C47.6901 30.25 48.25 29.6901 48.25 29V7C48.25 4.10599 45.8961 1.75 43 1.75H21C18.1039 1.75 15.75 4.10599 15.75 7V29C15.75 29.6901 16.3099 30.25 17 30.25C17.6901 30.25 18.25 29.6901 18.25 29V7C18.25 5.48407 19.4841 4.25 21 4.25H43C44.5159 4.25 45.75 5.48407 45.75 7V29Z" fill="#FC6238" stroke="#FC6238" stroke-width="0.5"/>
<path d="M51.75 11.2C51.75 11.9237 52.3461 12.35 53 12.35C53.3619 12.35 53.6764 12.1706 53.8948 11.922C54.1127 11.6741 54.25 11.3415 54.25 11C54.25 10.3099 53.6901 9.75 53 9.75C52.3099 9.75 51.75 10.3099 51.75 11V11.2Z" fill="#FC6238" stroke="#FC6238" stroke-width="0.5"/>
<path d="M51.75 15.2C51.75 15.9237 52.3461 16.35 53 16.35C53.3619 16.35 53.6764 16.1706 53.8948 15.922C54.1127 15.6741 54.25 15.3415 54.25 15C54.25 14.3099 53.6901 13.75 53 13.75C52.3099 13.75 51.75 14.3099 51.75 15V15.2Z" fill="#FC6238" stroke="#FC6238" stroke-width="0.5"/>
<path d="M51.75 19.2C51.75 19.9237 52.3461 20.35 53 20.35C53.3619 20.35 53.6764 20.1706 53.8948 19.922C54.1127 19.6741 54.25 19.3415 54.25 19C54.25 18.3099 53.6901 17.75 53 17.75C52.3099 17.75 51.75 18.3099 51.75 19V19.2Z" fill="#FC6238" stroke="#FC6238" stroke-width="0.5"/>
<path d="M9.75 44.9998C9.75 45.7235 10.3461 46.1498 11 46.1498C11.3619 46.1498 11.6764 45.9704 11.8948 45.7218C12.1127 45.4739 12.25 45.1413 12.25 44.7998C12.25 44.1097 11.6901 43.5498 11 43.5498C10.3099 43.5498 9.75 44.1097 9.75 44.7998V44.9998Z" fill="#FC6238" stroke="#FC6238" stroke-width="0.5"/>
<path d="M9.75 48.9998C9.75 49.7235 10.3461 50.1498 11 50.1498C11.3619 50.1498 11.6764 49.9704 11.8948 49.7218C12.1127 49.4739 12.25 49.1413 12.25 48.7998C12.25 48.1097 11.6901 47.5498 11 47.5498C10.3099 47.5498 9.75 48.1097 9.75 48.7998V48.9998Z" fill="#FC6238" stroke="#FC6238" stroke-width="0.5"/>
<path d="M9.75 52.9998C9.75 53.7235 10.3461 54.1498 11 54.1498C11.3619 54.1498 11.6764 53.9704 11.8948 53.7218C12.1127 53.4739 12.25 53.1413 12.25 52.7998C12.25 52.1097 11.6901 51.5498 11 51.5498C10.3099 51.5498 9.75 52.1097 9.75 52.7998V52.9998Z" fill="#FC6238" stroke="#FC6238" stroke-width="0.5"/>
<path d="M48.4596 52.7375L48.4596 52.7373L49.1195 49.678C49.1195 49.6778 49.1195 49.6777 49.1196 49.6776C49.22 49.2064 49.5831 48.8393 50.0472 48.727L50.0473 48.727C50.9647 48.5054 51.8604 48.1319 52.7091 47.615C53.1145 47.3637 53.6312 47.3731 54.0318 47.6268L54.0327 47.6274L55.8426 48.7847L56.785 47.8346L55.628 46.0396L48.4596 52.7375ZM48.4596 52.7375C48.3148 53.4113 48.7412 54.0763 49.416 54.2221C49.508 54.243 49.5988 54.25 49.682 54.25C50.2556 54.25 50.775 53.8499 50.9024 53.2608L51.4055 50.9375C52.0593 50.7299 52.6996 50.4615 53.3223 50.1353L55.3473 51.4306L55.3478 51.4309C55.8427 51.7458 56.4899 51.6756 56.9068 51.2588L56.9074 51.2581L59.2688 48.8788C59.2688 48.8787 59.2689 48.8787 59.2689 48.8786C59.6844 48.463 59.7517 47.8129 59.432 47.3203C59.4319 47.3202 59.4318 47.32 59.4316 47.3198L58.1397 45.3159C58.466 44.6942 58.7344 44.0522 58.9419 43.3966L61.2693 42.8802L48.4596 52.7375ZM55.6103 44.7122L55.6105 44.7119C56.1277 43.863 56.5013 42.9671 56.7209 42.0498L56.721 42.0492C56.8333 41.5849 57.1982 41.225 57.6652 41.1201L57.6658 41.1199L59.75 40.6574V39.3446L57.6678 38.8821L57.6672 38.8819C57.2002 38.777 56.8353 38.4171 56.723 37.9528L56.7229 37.9522C56.5034 37.0353 56.1279 36.1394 55.6125 35.2901C55.3629 34.8827 55.3678 34.3677 55.6276 33.9649C55.6278 33.9647 55.6279 33.9645 55.628 33.9643L56.7871 32.1526L55.8474 31.2129L54.0347 32.3726L53.9 32.162L54.0347 32.3726C53.6326 32.6299 53.1176 32.6355 52.7115 32.3852C51.8607 31.8682 50.9649 31.4947 50.0495 31.2731L55.6103 44.7122ZM55.6103 44.7122C55.363 45.1195 55.3677 45.6365 55.6279 46.0394L55.6103 44.7122ZM55.3453 28.5674L55.3458 28.5671C55.8407 28.2522 56.4856 28.3225 56.9022 28.7367L56.9027 28.7371L59.2647 31.0971L59.2648 31.0972C59.6799 31.5124 59.7498 32.1602 59.4324 32.655L58.1373 34.6797C58.4637 35.3031 58.7323 35.9455 58.9399 36.6014L61.2681 37.1179C61.8426 37.2453 62.25 37.7548 62.25 38.34V41.66C62.25 42.2444 61.8433 42.7545 61.2701 42.8801L55.3453 28.5674ZM55.3453 28.5674L53.3205 29.8626C52.6989 29.5363 52.0572 29.268 51.4035 29.0605L50.9005 26.7379C50.9005 26.7378 50.9004 26.7376 50.9004 26.7375C50.7777 26.1623 50.2678 25.75 49.68 25.75H48C47.3099 25.75 46.75 26.3099 46.75 27C46.75 27.6901 47.3099 28.25 48 28.25H48.6724L49.1215 30.3223C49.1216 30.3224 49.1216 30.3226 49.1216 30.3227M55.3453 28.5674L49.1216 30.3227M49.1216 30.3227C49.2219 30.7906 49.582 31.1604 50.0492 31.273L49.1216 30.3227Z" fill="#FC6238" stroke="#FC6238" stroke-width="0.5"/>
<path d="M49.7445 44.8535L49.7451 44.8543C49.987 45.2109 50.3815 45.406 50.782 45.406C51.0226 45.406 51.2653 45.3358 51.4772 45.1936L51.4773 45.1936C53.2143 44.0272 54.25 42.0855 54.25 40C54.25 36.5539 51.446 33.75 48 33.75C47.5768 33.75 47.1565 33.7938 46.7492 33.8748L46.7492 33.8748L46.7483 33.875C46.0702 34.0126 45.6357 34.6731 45.773 35.3497L45.773 35.3497L45.7731 35.3504C45.9133 36.0313 46.5805 36.4598 47.2494 36.3251L47.2494 36.3251C47.4915 36.2763 47.7449 36.25 48 36.25C50.0679 36.25 51.75 37.9321 51.75 40C51.75 41.2503 51.1278 42.4167 50.0866 43.1185C49.512 43.5034 49.3594 44.2808 49.7445 44.8535Z" fill="#FC6238" stroke="#FC6238" stroke-width="0.5"/>
<path d="M9.75 24.0004C9.75 27.4464 12.5539 30.2504 16 30.2504C16.4204 30.2504 16.829 30.2088 17.2273 30.1275C17.904 29.9924 18.3446 29.335 18.207 28.6568C18.0697 27.9774 17.3994 27.5395 16.7335 27.6775C16.499 27.7259 16.252 27.7504 16 27.7504C13.9321 27.7504 12.25 26.0683 12.25 24.0004C12.25 22.7446 12.8757 21.5783 13.9228 20.8763C14.4975 20.4937 14.6526 19.7165 14.2699 19.1436C13.885 18.5663 13.1054 18.416 12.5369 18.7966C10.7919 19.9628 9.75 21.9066 9.75 24.0004Z" fill="#FC6238" stroke="#FC6238" stroke-width="0.5"/>
<path d="M8.65471 35.4325L8.65374 35.4331C8.15798 35.747 7.51481 35.6802 7.09722 35.2627L4.7353 32.9027L4.73522 32.9027C4.32013 32.4876 4.2502 31.84 4.5674 31.3452L8.65471 35.4325ZM8.65471 35.4325L10.6795 34.1373C11.3011 34.4635 11.9428 34.7319 12.5965 34.9394L13.0995 37.262C13.0995 37.2621 13.0996 37.2623 13.0996 37.2625C13.2224 37.8377 13.7322 38.2499 14.32 38.2499H16C16.6901 38.2499 17.25 37.69 17.25 36.9999C17.25 36.3098 16.6901 35.7499 16 35.7499H15.3277L14.8785 33.6756C14.8784 33.6754 14.8784 33.6752 14.8784 33.6751C14.7781 33.2073 14.4179 32.8374 13.9508 32.7249C13.0353 32.5033 12.1393 32.1297 11.2884 31.6126C10.8842 31.3643 10.3677 31.3703 9.9662 31.6247L9.96527 31.6253L8.15262 32.785L7.213 31.8453L8.372 30.0355C8.37206 30.0354 8.37212 30.0353 8.37218 30.0352C8.63224 29.6324 8.63718 29.1172 8.38742 28.7097C7.87207 27.8604 7.49664 26.9646 7.27713 26.0477L7.27699 26.0471C7.16466 25.5828 6.79985 25.2229 6.33278 25.118L6.33221 25.1178L4.25 24.6553V23.3426L6.33201 22.882L6.33278 22.8818C6.79985 22.7769 7.16466 22.417 7.27699 21.9527L7.27713 21.9521C7.49672 21.0349 7.87025 20.1391 8.38732 19.2902C8.63715 18.8827 8.63244 18.3651 8.36977 17.9619C8.36964 17.9617 8.36952 17.9615 8.3694 17.9613L7.21307 16.1674L8.15722 15.2171L9.96733 16.3745L9.96821 16.3751C10.3691 16.629 10.8836 16.6379 11.2905 16.3871C12.1414 15.87 13.0373 15.4965 13.9547 15.2749L13.9548 15.2749C14.419 15.1626 14.7822 14.7954 14.8825 14.3241C14.8825 14.324 14.8825 14.324 14.8825 14.3239L15.5424 11.2646L15.5424 11.2644C15.6872 10.5906 15.2608 9.9255 14.5859 9.77975C13.9198 9.62973 13.2446 10.0606 13.0996 10.7373C13.0996 10.7374 13.0996 10.7375 13.0995 10.7376L12.5965 13.0604C11.9427 13.268 11.3024 13.5364 10.6797 13.8626L8.65471 12.5673L8.65449 12.5671C8.15852 12.2506 7.50811 12.3192 7.09413 12.7402C7.09397 12.7404 7.0938 12.7405 7.09364 12.7407L4.73322 15.1191C4.73311 15.1192 4.73299 15.1193 4.73288 15.1195C4.31761 15.535 4.25036 16.1851 4.57004 16.6776C4.57015 16.6778 4.57026 16.6779 4.57036 16.6781L5.86041 18.6838C5.53406 19.3056 5.26565 19.9477 5.05811 20.6033L2.73067 21.1196C2.7305 21.1197 2.73034 21.1197 2.73017 21.1198C2.15681 21.2452 1.75 21.7554 1.75 22.3399V25.6599C1.75 26.245 2.15737 26.7546 2.73185 26.882C2.73186 26.882 2.73187 26.882 2.73188 26.882L5.06011 27.3985C5.26774 28.0544 5.53626 28.6968 5.86271 29.3202L4.56757 31.3449L8.65471 35.4325Z" fill="#FC6238" stroke="#FC6238" stroke-width="0.5"/>
<path d="M30.6976 37.2128L30.6988 37.2131C30.7989 37.2375 30.8988 37.2502 31 37.2502C31.561 37.2502 32.0721 36.8736 32.2127 36.3024C32.2127 36.3022 32.2128 36.302 32.2128 36.3018L34.2126 28.3029C34.38 27.6331 33.9748 26.9551 33.3025 26.7876L33.3016 26.7874C32.6228 26.6208 31.9528 27.0252 31.7874 27.6981C31.7873 27.6983 31.7873 27.6985 31.7872 27.6986L29.7875 35.6976C29.6201 36.3673 30.0253 37.0453 30.6976 37.2128Z" fill="#FC6238" stroke="#FC6238" stroke-width="0.5"/>
<path d="M36.1152 36.8852L36.1161 36.8861C36.3604 37.1279 36.6802 37.2505 37 37.2505C37.3198 37.2505 37.6396 37.1279 37.8839 36.8861L37.8848 36.8852L41.8848 32.8852C42.3724 32.3976 42.3724 31.6053 41.8848 31.1177L37.8848 27.1177C37.3972 26.63 36.6049 26.63 36.1172 27.1177C35.6296 27.6053 35.6296 28.3976 36.1172 28.8852L39.2325 32.0005L36.1152 35.1177C35.6276 35.6053 35.6276 36.3976 36.1152 36.8852Z" fill="#FC6238" stroke="#FC6238" stroke-width="0.5"/>
<path d="M26.1152 27.1177L26.2909 27.2933L26.1152 27.1177L22.1152 31.1177C21.6276 31.6053 21.6276 32.3976 22.1152 32.8852L26.1152 36.8852L26.1161 36.8861C26.3604 37.1279 26.6802 37.2505 27 37.2505C27.3193 37.2505 27.6398 37.1282 27.8828 36.8832C28.3704 36.3956 28.3704 35.6033 27.8828 35.1157L24.7676 32.0005L27.8828 28.8852C28.3704 28.3976 28.3704 27.6053 27.8828 27.1177C27.3952 26.63 26.6029 26.63 26.1152 27.1177Z" fill="#FC6238" stroke="#FC6238" stroke-width="0.5"/>
</svg>
