<svg width="80" height="80" viewBox="0 0 80 80" fill="none" xmlns="http://www.w3.org/2000/svg">
<path fill-rule="evenodd" clip-rule="evenodd" d="M47.734 13.7942H32.2661C32.1028 13.7942 31.9607 13.6911 31.9074 13.5313L30.735 9.92188H49.2652L48.0928 13.5313C48.0395 13.6911 47.9009 13.7942 47.734 13.7942ZM73.1028 26.6994C71.4037 26.3383 70.1273 24.8279 70.1273 23.0216C70.1273 21.2154 71.4037 19.7049 73.1028 19.3437C73.3559 19.2899 73.6183 19.2616 73.8871 19.2616C75.9624 19.2616 77.6471 20.9463 77.6471 23.0216C77.6471 25.0968 75.9624 26.7815 73.8871 26.7815C73.6183 26.7815 73.3559 26.7532 73.1028 26.6994ZM73.1028 42.1616C71.4037 41.8003 70.1273 40.2899 70.1273 38.4836C70.1273 36.6773 71.4037 35.1669 73.1028 34.8058C73.3559 34.752 73.6183 34.7238 73.8871 34.7238C75.9624 34.7238 77.6471 36.4085 77.6471 38.4836C77.6471 40.5589 75.9624 42.2436 73.8871 42.2436C73.6183 42.2436 73.3559 42.2154 73.1028 42.1616ZM73.1028 57.6235C71.4037 57.2624 70.1273 55.752 70.1273 53.9457C70.1273 52.1394 71.4037 50.629 73.1028 50.2678C73.3559 50.2141 73.6183 50.1857 73.8871 50.1857C75.9624 50.1857 77.6471 51.8706 77.6471 53.9457C77.6471 56.0209 75.9624 57.7057 73.8871 57.7057C73.6183 57.7057 73.3559 57.6773 73.1028 57.6235ZM5.32871 19.3437C5.58173 19.2899 5.84401 19.2616 6.11303 19.2616C8.18817 19.2616 9.87287 20.9463 9.87287 23.0216C9.87287 25.0968 8.18817 26.7815 6.11303 26.7815C5.84401 26.7815 5.58173 26.7532 5.32871 26.6994C3.62942 26.3383 2.35303 24.8279 2.35303 23.0216C2.35303 21.2154 3.62942 19.7049 5.32871 19.3437ZM5.32871 34.8058C5.58173 34.752 5.84401 34.7238 6.11303 34.7238C8.18817 34.7238 9.87287 36.4085 9.87287 38.4836C9.87287 40.5589 8.18817 42.2436 6.11303 42.2436C5.84401 42.2436 5.58173 42.2154 5.32871 42.1616C3.62942 41.8003 2.35303 40.2899 2.35303 38.4836C2.35303 36.6773 3.62942 35.1669 5.32871 34.8058ZM5.32871 50.2678C5.58173 50.2141 5.84401 50.1857 6.11303 50.1857C8.18817 50.1857 9.87287 51.8706 9.87287 53.9457C9.87287 56.0209 8.18817 57.7057 6.11303 57.7057C5.84401 57.7057 5.58173 57.6773 5.32871 57.6235C3.62942 57.2624 2.35303 55.752 2.35303 53.9457C2.35303 52.1394 3.62942 50.629 5.32871 50.2678ZM32.361 48.5172L29.9682 46.1245L30.8702 44.0963C30.2754 43.1296 29.837 42.0756 29.5742 40.973L27.5047 40.176V36.7928L29.5742 35.9958C29.837 34.8916 30.2754 33.8378 30.8702 32.8725L29.9682 30.8428L32.0583 28.7542L32.361 28.4516L34.3891 29.352C35.3559 28.7572 36.4098 28.3201 37.5124 28.0576L38.3096 25.9865H41.6926L42.4897 28.0576C43.5938 28.3201 44.6478 28.7572 45.6131 29.352L46.9607 28.7542L47.6426 28.4516L50.0338 30.8428L49.1334 32.8725C49.7282 33.8378 50.1653 34.8916 50.428 35.9958L52.4989 36.7928V40.176L50.428 40.973C50.1653 42.0756 49.7282 43.1296 49.1334 44.0949L50.0338 46.1245L47.6426 48.5172L46.9607 48.2146L46.961 48.2143L45.6131 47.6154C44.6478 48.2102 43.5938 48.6485 42.4897 48.9112L41.6926 50.9807H38.3096L37.5124 48.9098C36.4098 48.647 35.3559 48.2102 34.3905 47.6154L32.361 48.5172ZM39.7075 32.2958C36.2908 32.2958 33.5202 35.0663 33.5202 38.4842C33.5202 41.901 36.2908 44.6715 39.7075 44.6715C43.1254 44.6715 45.8959 41.901 45.8959 38.4842C45.8959 35.0663 43.1254 32.2958 39.7075 32.2958Z" fill="#FFD8CD"/>
<path fill-rule="evenodd" clip-rule="evenodd" d="M10.9694 24.2767C10.4116 26.4379 8.44748 28.0365 6.11305 28.0365C3.3452 28.0365 1.09814 25.7895 1.09814 23.0218C1.09814 20.2539 3.3452 18.0069 6.11305 18.0069C8.44748 18.0069 10.4116 19.6055 10.9694 21.7669H22.1949V12.3545C22.1949 10.2196 23.9389 8.47559 26.0738 8.47559H53.93C56.06 8.47559 57.8053 10.2191 57.8053 12.3545V21.7669H69.0309C69.5887 19.6055 71.5527 18.0069 73.8872 18.0069C76.655 18.0069 78.9021 20.2539 78.9021 23.0218C78.9021 25.7895 76.655 28.0365 73.8872 28.0365C71.5527 28.0365 69.5887 26.4379 69.0309 24.2767H57.8053V37.2288H69.0309C69.5887 35.0676 71.5527 33.469 73.8872 33.469C76.655 33.469 78.9021 35.7161 78.9021 38.4837C78.9021 41.2516 76.655 43.4986 73.8872 43.4986C71.5527 43.4986 69.5887 41.9001 69.0309 39.7386H57.8053V52.691H69.0309C69.5887 50.5295 71.5527 48.931 73.8872 48.931C76.655 48.931 78.9021 51.178 78.9021 53.9459C78.9021 56.7135 76.655 58.9608 73.8872 58.9608C71.5527 58.9608 69.5887 57.362 69.0309 55.2008H57.8053V67.6448C57.8053 69.7802 56.06 71.5237 53.93 71.5237H26.0738C23.9389 71.5237 22.1949 69.7797 22.1949 67.6448V55.2008H10.9694C10.4116 57.362 8.44748 58.9608 6.11305 58.9608C3.3452 58.9608 1.09814 56.7135 1.09814 53.9459C1.09814 51.178 3.3452 48.931 6.11305 48.931C8.44748 48.931 10.4116 50.5295 10.9694 52.691H22.1949V39.7386H10.9694C10.4116 41.9001 8.44748 43.4986 6.11305 43.4986C3.3452 43.4986 1.09814 41.2516 1.09814 38.4837C1.09814 35.7161 3.3452 33.469 6.11305 33.469C8.44748 33.469 10.4116 35.0676 10.9694 37.2288H22.1949V24.2767H10.9694ZM55.2955 21.7669V12.3545C55.2955 11.6014 54.6812 10.9854 53.93 10.9854H50.2367C49.9435 11.8858 49.527 13.1652 49.5262 13.1678C49.1924 14.2053 48.2652 14.8822 47.1697 14.8822H32.8305C31.7446 14.8822 30.8167 14.2106 30.4765 13.1754C30.476 13.1738 30.4756 13.1722 30.4749 13.1706L29.7662 10.9854H26.0738C25.3203 10.9854 24.7047 11.6009 24.7047 12.3545V21.7669H25.269C25.6018 21.7669 25.921 21.8991 26.1563 22.1344L31.3843 27.3622C31.751 27.0254 32.2845 26.9363 32.7427 27.1401C32.7427 27.1401 34.2218 27.7976 34.2216 27.7976C34.9563 27.3997 35.7289 27.0797 36.5287 26.8417L37.1126 25.3289C37.2992 24.845 37.7645 24.5258 38.2832 24.5258H41.7204C42.2398 24.5258 42.7055 24.8458 42.8919 25.3306L43.4726 26.842C44.2721 27.08 45.0442 27.3998 45.7785 27.7976L47.2575 27.1401C47.7157 26.9363 48.2492 27.0254 48.6159 27.3622L53.8439 22.1344C54.0792 21.8991 54.3984 21.7669 54.7312 21.7669H55.2955ZM47.5971 10.9854H32.4047C32.6155 11.6351 32.8169 12.2561 32.8545 12.3724H47.1457L47.5971 10.9854ZM55.2955 37.2288V24.2767H55.2509L50.3915 29.1361L51.0845 29.8292C51.4512 30.1959 51.5546 30.7506 51.3446 31.2248C51.3446 31.2248 50.6892 32.7044 50.689 32.7043C51.0875 33.4397 51.408 34.2132 51.6459 35.0154L53.154 35.5957C53.6384 35.7823 53.9581 36.2478 53.9581 36.767V37.2288H55.2955ZM55.2955 52.691V39.7386H53.9581V40.2041C53.9581 40.7233 53.6384 41.1887 53.154 41.3752L51.6451 41.9559C51.4067 42.7554 51.0854 43.5277 50.6886 44.2619L51.3446 45.7427C51.5546 46.2171 51.4512 46.7716 51.0845 47.1383L50.3915 47.8315L55.2509 52.691H55.2955ZM24.7047 55.2008V67.6448C24.7047 68.3984 25.3203 69.0139 26.0738 69.0139H53.93C54.6812 69.0139 55.2955 68.3979 55.2955 67.6448V55.2008H54.7312C54.3984 55.2008 54.0792 55.0685 53.8439 54.8332L48.6159 49.6053C48.2497 49.9418 47.717 50.031 47.2591 49.8282L45.7802 49.1732C45.0465 49.5711 44.2726 49.8913 43.4721 50.1292L42.8916 51.6376C42.7051 52.1222 42.2395 52.4419 41.7204 52.4419H38.2832C37.7642 52.4419 37.2986 52.1222 37.1121 51.6376C37.1121 51.6376 36.5316 50.1292 36.5317 50.1294C35.7298 49.8908 34.9567 49.5694 34.2221 49.1722L32.7411 49.8282C32.2832 50.031 31.7505 49.9418 31.3843 49.6053L26.1563 54.8332C25.921 55.0685 25.6018 55.2008 25.269 55.2008H24.7047ZM24.7047 39.7386V52.691H24.7493L29.6087 47.8315L28.9157 47.1383C28.5485 46.7711 28.4453 46.2157 28.6563 45.7412L29.3137 44.2629C28.916 43.5299 28.5957 42.7564 28.3565 41.9565L26.8462 41.3752C26.3618 41.1887 26.0421 40.7233 26.0421 40.2041V39.7386H24.7047ZM24.7047 24.2767V37.2288H26.0421V36.767C26.0421 36.2478 26.3618 35.7823 26.8462 35.5957C26.8462 35.5957 28.356 35.0147 28.356 35.0149C28.5954 34.2132 28.9159 33.4401 29.314 32.7054L28.6563 31.2263C28.4453 30.7518 28.5485 30.1964 28.9157 29.8292L29.6087 29.1361L24.7493 24.2767H24.7047ZM6.11305 51.4408C4.73046 51.4408 3.60795 52.5633 3.60795 53.9459C3.60795 55.3284 4.73046 56.451 6.11305 56.451C7.49564 56.451 8.61799 55.3284 8.61799 53.9459C8.61799 52.5633 7.49564 51.4408 6.11305 51.4408ZM6.11305 35.9788C4.73046 35.9788 3.60795 37.1012 3.60795 38.4837C3.60795 39.8663 4.73046 40.9888 6.11305 40.9888C7.49564 40.9888 8.61799 39.8663 8.61799 38.4837C8.61799 37.1012 7.49564 35.9788 6.11305 35.9788ZM73.8872 51.4408C72.5046 51.4408 71.3822 52.5633 71.3822 53.9459C71.3822 55.3284 72.5046 56.451 73.8872 56.451C75.2698 56.451 76.3923 55.3284 76.3923 53.9459C76.3923 52.5633 75.2698 51.4408 73.8872 51.4408ZM36.5413 65.3962C35.8487 65.3962 35.2864 64.8339 35.2864 64.1413C35.2864 63.4488 35.8487 62.8864 36.5413 62.8864H43.4624C44.1551 62.8864 44.7173 63.4488 44.7173 64.1413C44.7173 64.8339 44.1551 65.3962 43.4624 65.3962H36.5413ZM73.8872 35.9788C72.5046 35.9788 71.3822 37.1012 71.3822 38.4837C71.3822 39.8663 72.5046 40.9888 73.8872 40.9888C75.2698 40.9888 76.3923 39.8663 76.3923 38.4837C76.3923 37.1012 75.2698 35.9788 73.8872 35.9788ZM73.8872 20.5167C72.5046 20.5167 71.3822 21.6392 71.3822 23.0218C71.3822 24.4044 72.5046 25.5267 73.8872 25.5267C75.2698 25.5267 76.3923 24.4044 76.3923 23.0218C76.3923 21.6392 75.2698 20.5167 73.8872 20.5167ZM6.11305 20.5167C4.73046 20.5167 3.60795 21.6392 3.60795 23.0218C3.60795 24.4044 4.73046 25.5267 6.11305 25.5267C7.49564 25.5267 8.61799 24.4044 8.61799 23.0218C8.61799 21.6392 7.49564 20.5167 6.11305 20.5167ZM41.359 28.3388L40.8581 27.0356H39.1441L38.6406 28.3404C38.4917 28.7263 38.1623 29.0139 37.7599 29.1095C36.7686 29.3451 35.8232 29.7368 34.9541 30.2723C34.6015 30.4895 34.1645 30.5189 33.786 30.3506L32.5107 29.7835L31.2999 30.9943L31.8669 32.2696C32.0352 32.6481 32.0059 33.0852 31.7887 33.4378C31.2525 34.3077 30.8607 35.2544 30.6218 36.2499C30.5254 36.6514 30.2376 36.9799 29.8522 37.1281L28.552 37.6287V39.3424L29.8522 39.8428C30.2373 39.991 30.525 40.3192 30.6216 40.7203C30.8603 41.7123 31.2517 42.6616 31.7876 43.5281C32.0058 43.8809 32.0356 44.3189 31.8669 44.6979L31.2999 45.9732L32.5116 47.1849L33.7876 46.6197C34.1647 46.4527 34.5998 46.4815 34.9515 46.6971C35.8211 47.2299 36.7673 47.6255 37.7626 47.8613C38.1658 47.9568 38.4956 48.245 38.6445 48.6317L39.1449 49.9321H40.8588L41.3592 48.6317C41.5079 48.2453 41.8374 47.9572 42.2403 47.8615C43.231 47.626 44.1789 47.235 45.0443 46.6997C45.3967 46.4819 45.8338 46.4519 46.2127 46.6197L47.4886 47.1849L48.7013 45.9724L48.1361 44.6963C47.969 44.3192 47.9979 43.8842 48.2134 43.5325C48.7463 42.6626 49.1419 41.7164 49.3778 40.7239C49.4735 40.3212 49.7617 39.9915 50.148 39.8428L51.4483 39.3424V37.6287L50.148 37.1281C49.7614 36.9794 49.4731 36.6494 49.3777 36.2463C49.1421 35.2521 48.7504 34.3066 48.215 33.4378C47.9981 33.0858 47.9686 32.6494 48.1361 32.2712L48.7013 30.9953L47.4895 29.7835L46.2142 30.3506C45.8357 30.5189 45.3987 30.4895 45.0461 30.2723C44.177 29.7368 43.2316 29.3451 42.2403 29.1095C41.8373 29.0138 41.5076 28.7253 41.359 28.3388ZM40.0001 31.2339C44.0058 31.2339 47.2534 34.4781 47.2534 38.4837C47.2534 42.4892 44.0056 45.7372 40.0001 45.7372C35.9945 45.7372 32.7502 42.4895 32.7502 38.4837C32.7502 34.4779 35.9941 31.2339 40.0001 31.2339ZM40.0001 33.7437C37.381 33.7437 35.26 35.8646 35.26 38.4837C35.26 41.103 37.3808 43.2274 40.0001 43.2274C42.6196 43.2274 44.7436 41.1033 44.7436 38.4837C44.7436 35.8644 42.6194 33.7437 40.0001 33.7437Z" fill="#FF9072"/>
</svg>
