<svg width="80" height="80" viewBox="0 0 80 80" fill="none" xmlns="http://www.w3.org/2000/svg">
<path d="M48.8563 73.4668H62.9563C63.1214 73.4668 63.2556 73.601 63.2556 73.7662V77.2041C63.2556 77.3693 63.1214 77.5035 62.9563 77.5035H48.8564C48.6911 77.5035 48.5569 77.3693 48.5569 77.204V73.7662C48.5569 73.601 48.6911 73.4668 48.8563 73.4668Z" fill="#FFD8CD"/>
<path d="M48.2522 8.33187C49.8127 8.33187 51.0822 7.06234 51.0822 5.50187C51.0822 3.94141 49.8127 2.67188 48.2522 2.67188C46.6917 2.67188 45.4224 3.94141 45.4224 5.50187C45.4224 7.06234 46.6919 8.33187 48.2522 8.33187Z" fill="#FFD8CD"/>
<path d="M18.7901 19.6121C20.1065 19.6121 21.1773 18.5412 21.1773 17.2251C21.1773 15.909 20.1064 14.8379 18.7901 14.8379C17.4739 14.8379 16.4031 15.9088 16.4031 17.2251C16.4031 18.5413 17.474 19.6121 18.7901 19.6121Z" fill="#FFD8CD"/>
<path d="M17.0439 73.4668H31.1438C31.3089 73.4668 31.4431 73.601 31.4431 73.7662V77.2041C31.4431 77.3693 31.3089 77.5035 31.1438 77.5035H17.0438C16.8786 77.5035 16.7444 77.3693 16.7444 77.2041V73.7663C16.7444 73.601 16.8786 73.4668 17.0439 73.4668Z" fill="#FFD8CD"/>
<path d="M27.4828 25.0172L25.8377 28.9833C25.7375 29.2245 25.5235 29.4 25.2672 29.4505L22.1511 30.065V34.9842L25.2672 35.5987C25.5236 35.6492 25.7377 35.8245 25.8377 36.0659L27.4828 40.032C27.5832 40.2736 27.5558 40.5492 27.41 40.7664L25.6396 43.4064L29.118 46.8848L31.758 45.1144C31.9752 44.9686 32.251 44.9414 32.4925 45.0417L36.4586 46.6869C36.6999 46.787 36.8752 47.0009 36.9257 47.2573L37.5403 50.3734H42.4594L43.0741 47.2573C43.1246 47.0009 43.2999 46.787 43.5411 46.6869L47.5072 45.0417C47.7488 44.9416 48.0244 44.9687 48.2417 45.1144L50.8817 46.8848L54.3602 43.4064L52.5897 40.7664C52.4439 40.5492 52.4167 40.2736 52.5169 40.032L54.1621 36.0659C54.2622 35.8247 54.4763 35.6492 54.7325 35.5987L57.8486 34.9842V30.065L54.7325 29.4505C54.4761 29.4 54.2621 29.2247 54.1621 28.9833L52.5169 25.0172C52.5007 24.9781 52.4889 24.9378 52.4794 24.8973C51.4294 25.9848 50.3958 27.0823 49.3817 28.1859C50.0064 29.5378 50.3353 31.0261 50.3353 32.5247C50.3353 38.2236 45.6989 42.86 40 42.86C34.3011 42.86 29.6647 38.2236 29.6647 32.5247C29.6647 26.8258 34.3011 22.1894 40 22.1894C41.4986 22.1894 42.9869 22.5181 44.3388 23.1428C45.4424 22.1287 46.5399 21.0952 47.6274 20.045C47.5867 20.0355 47.5464 20.0238 47.5072 20.0075L43.5411 18.3623C43.2999 18.2622 43.1246 18.0483 43.0741 17.7919L42.4594 14.6758H37.5403L36.9257 17.7919C36.8752 18.0483 36.6999 18.2622 36.4586 18.3623L32.4925 20.0075C32.2511 20.1078 31.9755 20.0805 31.758 19.9348L29.118 18.1644L25.6396 21.6428L27.41 24.2828C27.5558 24.5 27.583 24.7756 27.4828 25.0172Z" fill="#FFD8CD"/>
<path d="M74.6299 25.6473C74.6099 25.5176 74.5574 25.3951 74.4775 25.2911C73.5532 24.0865 72.2539 23.5603 71.0014 23.8839C69.803 24.1933 67.6667 25.5503 66.8246 31.1603C66.2414 35.0437 65.2288 39.8601 64.4141 42.7226C64.2655 42.6283 64.1091 42.5398 63.9425 42.4595C62.7666 41.8917 60.4702 41.4872 58.3025 45.1614C56.0292 49.0151 53.7324 52.3226 50.7632 56.4098C50.7577 56.4172 50.7525 56.4248 50.7472 56.4325C48.8482 59.2506 47.7761 62.1019 48.718 66.8575C48.9669 68.1145 48.9514 69.8158 48.6741 71.9139C47.7327 72.0058 46.9944 72.8014 46.9944 73.7665V77.2045C46.9944 78.2311 47.8297 79.0664 48.8563 79.0664H62.9561C63.9828 79.0664 64.8182 78.2311 64.8182 77.2045V73.7665C64.8182 72.9509 64.2902 72.2578 63.5586 72.0065C64.3685 67.3006 66.0844 65.213 67.8963 63.0117C69.8875 60.5925 71.9466 58.0909 72.5467 52.1734L74.6464 30.5358C74.6472 30.5284 74.6478 30.5211 74.6483 30.5137C74.7567 28.9298 74.7974 26.7314 74.6299 25.6473ZM63.2557 77.2045C63.2557 77.3669 63.1185 77.5039 62.9561 77.5039H48.8563C48.6939 77.5039 48.5569 77.3669 48.5569 77.2045V73.7665C48.5569 73.6042 48.6939 73.4672 48.8563 73.4672H62.9561C63.1185 73.4672 63.2557 73.6042 63.2557 73.7665V77.2045ZM73.0902 30.3962L70.9917 52.0192C70.4397 57.4631 68.6183 59.6759 66.6899 62.0189C64.8053 64.3084 62.86 66.6745 61.9913 71.9048H50.2511C50.5236 69.732 50.5236 67.9334 50.2505 66.554C49.4121 62.3197 50.3111 59.8786 52.0353 57.317C55.0275 53.1978 57.3455 49.859 59.6483 45.9555C60.8164 43.9753 62.0325 43.2723 63.263 43.8665C63.9324 44.1898 64.3483 44.6648 64.5342 45.3186C65.323 48.0923 62.0072 53.3014 60.4138 55.8047C60.15 56.2192 59.9222 56.577 59.7408 56.8761C59.5171 57.2451 59.6349 57.7256 60.0039 57.9492C60.373 58.173 60.8536 58.055 61.0769 57.6861C61.2494 57.4015 61.4728 57.0505 61.7317 56.6437C64.2891 52.6261 66.9419 48.0731 66.0371 44.8912C65.946 44.5711 65.8202 44.2751 65.6619 44.0025C66.5308 41.2425 67.718 35.7336 68.3697 31.3923C69.1257 26.3581 70.8742 25.5305 71.3922 25.3965C71.978 25.2458 72.5971 25.4964 73.1122 26.0881C73.2111 26.9845 73.2041 28.7303 73.0903 30.3962H73.0902ZM31.3258 71.9137C31.0485 69.8155 31.0332 68.1142 31.2821 66.8573C32.2238 62.1015 31.1519 59.2503 29.2527 56.4322C29.2475 56.4245 29.2424 56.417 29.2367 56.4097C26.2674 52.322 23.9705 49.0145 21.6974 45.1612C19.53 41.4872 17.2336 41.8915 16.0577 42.4594C15.8911 42.5398 15.7346 42.6281 15.586 42.7226C14.771 39.8597 13.7583 35.0431 13.1755 31.1603C12.3332 25.5501 10.1971 24.1933 8.99862 23.8839C7.74706 23.5608 6.44706 24.0864 5.52253 25.2911C5.44269 25.3953 5.39019 25.5178 5.37019 25.6473C5.20269 26.7314 5.24331 28.9297 5.35175 30.5137C5.35222 30.5211 5.35284 30.5284 5.35362 30.5358L7.45362 52.1767C8.05331 58.0909 10.1125 60.5925 12.1038 63.0117C13.9157 65.2131 15.6317 67.3006 16.4414 72.0065C15.7099 72.2576 15.1819 72.9509 15.1819 73.7665V77.2045C15.1819 78.2311 16.0172 79.0664 17.0439 79.0664H31.1438C32.1703 79.0664 33.0057 78.2311 33.0057 77.2045V73.7665C33.0057 72.8014 32.2672 72.0056 31.3258 71.9139V71.9137ZM9.00847 52.0223L6.90972 30.3961C6.79597 28.7301 6.78909 26.9845 6.88784 26.088C7.40315 25.4962 8.02237 25.2458 8.60784 25.3965C9.12565 25.5303 10.8744 26.358 11.6303 31.3922C12.2819 35.7328 13.4691 41.2419 14.3382 44.0025C14.1799 44.275 14.0539 44.5709 13.963 44.8911C12.9825 48.3394 16.291 53.5375 18.268 56.6433C18.5269 57.0501 18.7505 57.4015 18.9228 57.6859C19.1466 58.055 19.6267 58.1726 19.996 57.9492C20.3649 57.7256 20.4827 57.2451 20.2592 56.8762C20.0778 56.577 19.8499 56.2189 19.586 55.8044C17.9927 53.3011 14.6771 48.0922 15.4658 45.3186C15.6517 44.6648 16.0677 44.19 16.7372 43.8667C17.9672 43.2726 19.1835 43.9753 20.3516 45.9556C22.6541 49.8586 24.9721 53.1975 27.9646 57.3172C29.6888 59.8787 30.588 62.3198 29.7496 66.5542C29.4763 67.9333 29.4763 69.7317 29.7488 71.905H18.0088C17.14 66.6747 15.1947 64.3086 13.3102 62.019C11.3817 59.6762 9.56019 57.4633 9.00862 52.0228L9.00847 52.0223ZM31.4432 77.2044C31.4432 77.3667 31.3061 77.5037 31.1438 77.5037H17.0439C16.8816 77.5037 16.7444 77.3667 16.7444 77.2044V73.7664C16.7444 73.604 16.8816 73.467 17.0439 73.467H31.1438C31.3061 73.467 31.4432 73.604 31.4432 73.7664V77.2044ZM50.545 48.54C50.8552 48.748 51.2691 48.7075 51.5325 48.4434L55.9191 44.0567C56.183 43.7928 56.2233 43.379 56.0155 43.0692L54.1205 40.2436L55.4452 37.0503L58.7813 36.3925C59.1475 36.3203 59.4114 35.9992 59.4114 35.6261V29.4223C59.4114 29.049 59.1475 28.7281 58.7813 28.6559L55.4452 27.9981L54.1205 24.8048L56.0155 21.9792C56.1621 21.7606 56.1827 21.4912 56.0911 21.2584C58.4642 18.9323 60.8916 16.6762 63.331 14.5351C65.5808 14.9956 67.9375 14.2981 69.5714 12.6644C71.5742 10.6615 72.1436 7.68702 71.0219 5.08655C70.9194 4.84889 70.7058 4.67733 70.4514 4.62873C70.1971 4.57983 69.9352 4.66045 69.7522 4.84358L66.6269 7.96889L64.993 7.53108L64.5552 5.89717L67.6803 2.77202C67.8635 2.58889 67.9441 2.32702 67.8953 2.07264C67.8466 1.81827 67.6752 1.60467 67.4374 1.50217C64.8374 0.380922 61.8625 0.949828 59.8597 2.95264C58.2258 4.58639 57.5285 6.94373 57.9888 9.19295C55.8477 11.6325 53.5916 14.0598 51.2655 16.433C51.0327 16.3414 50.7633 16.362 50.5446 16.5084L47.7188 18.4034L44.5257 17.0789L43.8677 13.7428C43.7955 13.3767 43.4744 13.1126 43.1013 13.1126H36.8977C36.5244 13.1126 36.2035 13.3765 36.1313 13.7428L35.4733 17.0789L32.2802 18.4034L29.4544 16.5084C29.1444 16.3006 28.7307 16.3411 28.4669 16.605L24.0803 20.9917C23.8164 21.2556 23.7761 21.6694 23.9839 21.9792L25.8789 24.8048L24.5542 27.9981L21.2182 28.6559C20.8519 28.7281 20.588 29.0492 20.588 29.4223V35.6261C20.588 35.9994 20.8519 36.3203 21.2182 36.3925L24.5542 37.0503L25.8789 40.2436L23.9839 43.0692C23.7761 43.379 23.8164 43.7928 24.0803 44.0567L28.4669 48.4434C28.7307 48.7073 29.1442 48.748 29.4544 48.54L32.2802 46.645L35.4733 47.9695L36.1313 51.3056C36.2035 51.6717 36.5246 51.9358 36.8977 51.9358H43.1013C43.4746 51.9358 43.7955 51.6719 43.8677 51.3056L44.5257 47.9695L47.7188 46.645L50.5446 48.54H50.545ZM59.5961 9.20061C59.1 7.36842 59.6246 5.3978 60.9649 4.05748C62.2203 2.80202 63.9699 2.27545 65.6583 2.58452L63.1317 5.11108C62.9342 5.30842 62.8572 5.59608 62.9296 5.86577L63.601 8.37108C63.6732 8.64061 63.8838 8.85123 64.1533 8.92342L66.6585 9.59467C66.928 9.66717 67.2158 9.58983 67.413 9.39248L69.9397 6.86577C70.2488 8.5542 69.7222 10.3037 68.4669 11.5594C67.1264 12.8998 65.1558 13.4244 63.3235 12.9281C63.0719 12.8597 62.8019 12.922 62.6053 13.0939C56.5572 18.3769 50.568 24.3659 45.2853 30.4139C45.1135 30.6105 45.0514 30.88 45.1196 31.132C45.6158 32.964 45.0911 34.9348 43.7508 36.2753C42.4953 37.5308 40.7463 38.0572 39.0574 37.7481L41.5839 35.2215C41.7814 35.0242 41.8585 34.7365 41.7861 34.4669L41.1147 31.9615C41.0425 31.692 40.8319 31.4814 40.5624 31.4092L38.0572 30.738C37.7878 30.6658 37.4999 30.7428 37.3027 30.9401L34.776 33.4667C34.4671 31.7781 34.9935 30.0287 36.2488 28.7733C37.5891 27.4328 39.5597 26.9083 41.3921 27.4045C41.6439 27.4726 41.9135 27.4106 42.1102 27.2387C48.158 21.9564 54.1472 15.9673 59.4303 9.91873C59.6022 9.72217 59.6642 9.45264 59.5961 9.20061ZM48.7728 32.5242C48.7728 37.3615 44.8372 41.297 40 41.297C35.1628 41.297 31.2272 37.3615 31.2272 32.5242C31.2272 27.6869 35.1628 23.7514 40 23.7514C41.0471 23.7514 42.0874 23.9417 43.0621 24.3036C42.5038 24.8065 41.9447 25.3059 41.3846 25.7975C39.1349 25.337 36.7778 26.0345 35.1442 27.6684C33.1416 29.6712 32.5722 32.6456 33.6938 35.2461C33.7963 35.4837 34.0099 35.6553 34.2641 35.704C34.5186 35.7528 34.7805 35.6722 34.9635 35.4892L38.0888 32.3639L39.7227 32.8017L40.1605 34.4356L37.0353 37.5608C36.8522 37.7439 36.7716 38.0058 36.8203 38.2601C36.8691 38.5145 37.0405 38.7281 37.2783 38.8306C38.1639 39.2126 39.0924 39.3984 40.0116 39.3984C41.7916 39.3984 43.5353 38.7009 44.856 37.3801C46.49 35.7461 47.1874 33.3887 46.7271 31.1397C47.2186 30.5797 47.7178 30.0206 48.2208 29.4622C48.5827 30.437 48.773 31.4773 48.773 32.5242H48.7728ZM43.5413 46.6865C43.3 46.7867 43.1247 47.0006 43.0742 47.257L42.4596 50.3731H37.5405L36.9258 47.257C36.8753 47.0006 36.7 46.7867 36.4588 46.6865L32.4927 45.0414C32.2511 44.9411 31.9752 44.9684 31.7582 45.114L29.1182 46.8845L25.6397 43.4061L27.4102 40.7661C27.556 40.5489 27.5832 40.2733 27.483 40.0317L25.8378 36.0656C25.7377 35.8244 25.5236 35.6489 25.2674 35.5984L22.1513 34.9839V30.0647L25.2674 29.4501C25.5238 29.3997 25.7378 29.2244 25.8378 28.983L27.483 25.0169C27.5833 24.7753 27.556 24.4997 27.4102 24.2825L25.6397 21.6425L29.1182 18.164L31.7582 19.9345C31.9758 20.0803 32.2513 20.1075 32.4927 20.0072L36.4588 18.362C36.7 18.2619 36.8753 18.048 36.9258 17.7915L37.5405 14.6755H42.4596L43.0742 17.7915C43.1247 18.048 43.3 18.2619 43.5413 18.362L47.5074 20.0072C47.5466 20.0234 47.5869 20.0351 47.6275 20.0447C46.54 21.0948 45.4425 22.1284 44.3389 23.1425C42.9871 22.5178 41.4988 22.189 40.0002 22.189C34.3011 22.189 29.6649 26.8255 29.6649 32.5244C29.6649 38.2233 34.3013 42.8597 40.0002 42.8597C45.6991 42.8597 50.3355 38.2233 50.3355 32.5244C50.3355 31.0258 50.0066 29.5375 49.3819 28.1856C50.396 27.082 51.4296 25.9845 52.4797 24.897C52.4892 24.9375 52.501 24.9778 52.5172 25.0169L54.1624 28.983C54.2625 29.2242 54.4766 29.3997 54.7328 29.4501L57.8489 30.0647V34.9839L54.7328 35.5984C54.4764 35.6489 54.2624 35.8242 54.1624 36.0656L52.5172 40.0317C52.4169 40.2733 52.4442 40.5489 52.59 40.7661L54.3605 43.4061L50.8821 46.8845L48.2421 45.114C48.0246 44.9684 47.7491 44.9412 47.5075 45.0414L43.5414 46.6865H43.5413ZM18.7902 21.1748C20.968 21.1748 22.7399 19.4031 22.7399 17.2253C22.7399 15.0475 20.968 13.2756 18.7902 13.2756C16.6124 13.2756 14.8407 15.0475 14.8407 17.2253C14.8407 19.4031 16.6125 21.1748 18.7902 21.1748ZM18.7902 14.8381C20.1066 14.8381 21.1774 15.909 21.1774 17.2253C21.1774 18.5415 20.1064 19.6123 18.7902 19.6123C17.4739 19.6123 16.4032 18.5414 16.4032 17.2253C16.4032 15.9092 17.4741 14.8381 18.7902 14.8381ZM48.2524 9.89452C50.6744 9.89452 52.6449 7.92405 52.6449 5.50202C52.6449 3.07998 50.6744 1.10952 48.2524 1.10952C45.8303 1.10952 43.86 3.07998 43.86 5.50202C43.86 7.92405 45.8303 9.89452 48.2524 9.89452ZM48.2524 2.67202C49.8128 2.67202 51.0824 3.94155 51.0824 5.50202C51.0824 7.06248 49.8128 8.33202 48.2524 8.33202C46.6919 8.33202 45.4225 7.06248 45.4225 5.50202C45.4225 3.94155 46.6921 2.67202 48.2524 2.67202Z" fill="#FF9072"/>
</svg>
