<svg width="80" height="80" viewBox="0 0 80 80" fill="none" xmlns="http://www.w3.org/2000/svg">
<path d="M71.7479 12.8448L70.5435 9.94141C70.4432 9.69984 70.4705 9.42406 70.6163 9.20687L71.8165 7.41719L69.5135 5.11422L67.7238 6.31437C67.5065 6.46 67.2307 6.48719 66.9893 6.38719L64.0859 5.18281C63.8446 5.08266 63.6693 4.86859 63.6188 4.61234L63.2023 2.5H59.9452L59.5287 4.61234C59.4782 4.86875 59.3029 5.08281 59.0616 5.18281L56.1582 6.38719C55.9168 6.48766 55.6412 6.46016 55.4237 6.31437L53.634 5.11422L51.331 7.41719L52.5312 9.20687C52.677 9.42422 52.7041 9.69984 52.604 9.94141L51.3996 12.8448C51.2995 13.0861 51.0854 13.2614 50.8293 13.3119L48.7168 13.7284V16.9855L50.8293 17.402C51.0855 17.4525 51.2996 17.6278 51.3996 17.8691L52.604 20.7725C52.7043 21.0141 52.677 21.2898 52.5312 21.507L51.3309 23.2967L53.634 25.5998L55.4237 24.3995C55.6409 24.2536 55.9166 24.2264 56.1582 24.3267L59.0616 25.5311C59.3029 25.6312 59.4782 25.8453 59.5287 26.1014L59.9452 28.2139H63.2023L63.6188 26.1014C63.6693 25.8452 63.8446 25.6311 64.0859 25.5311L66.9893 24.3267C67.2309 24.2264 67.5065 24.2538 67.7238 24.3995L69.5135 25.5997L71.8165 23.2967L70.6163 21.507C70.4705 21.2897 70.4434 21.0141 70.5435 20.7725L71.7479 17.8691C71.848 17.6278 72.0621 17.4525 72.3184 17.402L74.4307 16.9855V13.7284L72.3184 13.3119C72.062 13.2614 71.8479 13.0861 71.7479 12.8448ZM61.5735 23.1323C57.2863 23.1323 53.7982 19.6444 53.7982 15.3569C53.7982 11.0694 57.2862 7.58141 61.5735 7.58141C65.8609 7.58141 69.349 11.0694 69.349 15.3569C69.349 19.6444 65.861 23.1323 61.5735 23.1323Z" fill="#FFD8CD"/>
<path d="M20.9708 41.6406C20.5308 41.7597 20.0578 41.8808 19.5638 42.0069C17.698 42.4833 15.583 43.0231 14.4635 43.6795C13.2342 44.4002 12.7953 45.0159 12.6238 47.2348C12.4524 50.3514 12.4346 53.545 12.5685 57.5008H16.7242V50.6131C16.7242 50.1816 17.0739 49.8319 17.5055 49.8319C17.9371 49.8319 18.2867 50.1816 18.2867 50.6131V57.5008H25.4892V44.2364C23.7691 44.0273 22.1996 43.1266 20.971 41.6406H20.9708Z" fill="#FFD8CD"/>
<path d="M74.4307 63.0141L72.3184 62.5975C72.062 62.5471 71.8479 62.3717 71.7479 62.1305L70.5435 59.2271C70.4432 58.9855 70.4705 58.7097 70.6163 58.4925L71.8165 56.7028L69.5135 54.3999L67.7238 55.6002C67.5065 55.7458 67.2307 55.773 66.9893 55.673L64.0859 54.4685C63.8446 54.3683 63.6693 54.1542 63.6188 53.8981L63.2023 51.7856H59.9452L59.5287 53.8981C59.4782 54.1544 59.3029 54.3685 59.0616 54.4685L56.1582 55.673C55.9168 55.7735 55.6409 55.746 55.4237 55.6002L53.634 54.3999L51.3309 56.7028L52.5312 58.4925C52.677 58.7099 52.7041 58.9855 52.604 59.2271L51.3996 62.1305C51.2995 62.3717 51.0854 62.5471 50.8293 62.5975L48.7168 63.0141V66.2711L50.8293 66.6877C51.0855 66.7381 51.2996 66.9135 51.3996 67.1547L52.604 70.0581C52.7043 70.2997 52.677 70.5755 52.5312 70.7927L51.331 72.5824L53.634 74.8853L55.4237 73.6852C55.6409 73.5394 55.9166 73.5121 56.1582 73.6124L59.0616 74.8167C59.3029 74.9169 59.4782 75.131 59.5287 75.3872L59.9452 77.4996H63.2023L63.6188 75.3872C63.6693 75.1308 63.8446 74.9167 64.0859 74.8167L66.9893 73.6124C67.2309 73.5122 67.5065 73.5396 67.7238 73.6852L69.5135 74.8853L71.8165 72.5824L70.6163 70.7927C70.4705 70.5753 70.4434 70.2997 70.5435 70.0581L71.7479 67.1547C71.848 66.9135 72.0621 66.7381 72.3184 66.6877L74.4307 66.2711V63.0141ZM61.5735 72.418C57.2863 72.418 53.7982 68.93 53.7982 64.6425C53.7982 60.355 57.2862 56.8672 61.5735 56.8672C65.8609 56.8672 69.349 60.3552 69.349 64.6425C69.349 68.9299 65.861 72.418 61.5735 72.418Z" fill="#FFD8CD"/>
<path d="M27.0515 57.5008H34.2289V50.6131C34.2289 50.1816 34.5785 49.8319 35.0101 49.8319C35.4417 49.8319 35.7914 50.1816 35.7914 50.6131V57.5008H39.9723C40.106 53.5437 40.0882 50.3503 39.917 47.2352C39.7454 45.0159 39.3065 44.4002 38.0773 43.6795C36.9581 43.0233 34.8437 42.4834 32.9782 42.0072C32.4837 41.8809 32.0104 41.7598 31.57 41.6406C30.3415 43.1267 28.772 44.0275 27.0517 44.2366V57.5009L27.0515 57.5008Z" fill="#FFD8CD"/>
<path d="M23.8368 27.6453C25.2912 27.9767 27.1014 28.3899 28.7881 27.8042C29.3097 27.6234 29.9306 27.408 30.5186 27.408C31.0686 27.408 31.5895 27.5963 31.9731 28.1777C32.2168 28.547 32.3886 28.927 32.5547 29.2944C32.5672 29.3222 32.5797 29.3497 32.592 29.3772C32.8468 27.9772 32.857 26.3531 32.6697 25.5949C32.4904 24.8703 32.1387 24.3435 31.6789 24.1116C31.4009 23.9714 31.0943 23.946 30.8593 24.0436C30.4918 24.1964 30.0681 24.0483 29.8756 23.6999C29.0073 22.1277 27.7365 22.3506 25.1726 22.9597C23.5853 23.337 21.8076 23.7586 19.8392 23.5927C19.3603 25.4617 19.3056 27.3922 19.5436 28.8216C19.8761 28.1053 20.3945 27.5034 21.2497 27.3499C21.9712 27.2205 22.8356 27.4174 23.8367 27.6455L23.8368 27.6453Z" fill="#FFD8CD"/>
<path d="M46.9025 42.2297C46.7493 42.4367 46.5132 42.5461 46.274 42.5461C46.1126 42.5461 45.9496 42.4962 45.8098 42.3928L43.4248 40.6278C43.2259 40.4806 43.1084 40.2475 43.1084 39.9998C43.1084 39.7522 43.2259 39.5192 43.4248 39.3717L45.81 37.6069C46.1565 37.3505 46.6459 37.4233 46.9026 37.7702C47.1593 38.117 47.0862 38.6064 46.7393 38.863L46.2589 39.2184H60.7925V31.8042C60.7925 31.3727 61.1421 31.023 61.5737 31.023C62.0053 31.023 62.355 31.3727 62.355 31.8042V48.1952C62.355 48.6267 62.0053 48.9764 61.5737 48.9764C61.1421 48.9764 60.7925 48.6267 60.7925 48.1952V40.7809H46.2585L46.7393 41.1367C47.0862 41.3934 47.1593 41.8825 46.9025 42.2294V42.2297ZM22.3979 38.1634C20.4503 36.5892 19.29 34.0237 18.9492 31.5925C17.5223 29.7003 17.5989 25.4778 18.5236 22.5064C18.6386 22.137 19.0086 21.907 19.3887 21.9664C21.3315 22.2662 23.1804 21.827 24.8115 21.4397C27.0771 20.9011 29.415 20.3462 30.9217 22.4345C31.4067 22.3845 31.9142 22.4803 32.3826 22.7167C33.2556 23.157 33.8962 24.0462 34.1864 25.22C34.5007 26.4922 34.4221 29.5966 33.6061 31.4844C33.285 33.9473 32.1192 36.5659 30.1428 38.1634C30.3851 38.9861 30.8665 39.6094 31.5781 40.0216C32.1104 40.1728 32.7192 40.3287 33.3646 40.4936C35.3303 40.9953 37.5581 41.5642 38.8676 42.3319C40.6429 43.373 41.2767 44.5372 41.4754 47.1239C41.4759 47.1294 41.4762 47.135 41.4765 47.1406C41.6618 50.5036 41.6712 53.9489 41.5067 58.3117C41.4909 58.7314 41.146 59.0636 40.726 59.0636H11.8146C11.3946 59.0636 11.0496 58.7314 11.034 58.3117C10.8696 53.9503 10.879 50.505 11.0642 47.1408C11.0645 47.1352 11.0648 47.1295 11.0653 47.1239C11.264 44.5372 11.8978 43.373 13.6731 42.3319C14.9829 41.5641 17.2114 40.9952 19.1773 40.4933C19.8221 40.3286 20.4301 40.1728 20.9621 40.0219C21.674 39.6097 22.1556 38.9864 22.3979 38.1634ZM27.0515 44.2367V57.5011H34.2289V50.6134C34.2289 50.1819 34.5786 49.8322 35.0101 49.8322C35.4417 49.8322 35.7914 50.1819 35.7914 50.6134V57.5011H39.9723C40.1061 53.5441 40.0882 50.3506 39.917 47.2355C39.7454 45.0163 39.3065 44.4005 38.0773 43.6798C36.9581 43.0236 34.8437 42.4837 32.9782 42.0075C32.4837 41.8812 32.0104 41.7602 31.57 41.6409C30.3415 43.127 28.772 44.0278 27.0517 44.2369L27.0515 44.2367ZM19.5437 28.8216C19.8762 28.1053 20.3946 27.5034 21.2498 27.3498C21.9714 27.2205 22.8357 27.4173 23.8368 27.6455C25.2912 27.9769 27.1014 28.39 28.7881 27.8044C29.3096 27.6236 29.9306 27.4081 30.5186 27.4081C31.0686 27.4081 31.5895 27.5964 31.9731 28.1778C32.2168 28.5472 32.3886 28.9272 32.5546 29.2945C32.5671 29.3223 32.5796 29.3498 32.592 29.3773C32.8468 27.9773 32.857 26.3533 32.6696 25.595C32.4904 24.8705 32.1387 24.3436 31.6789 24.1117C31.4009 23.9716 31.0943 23.9461 30.8593 24.0437C30.4918 24.1966 30.0681 24.0484 29.8756 23.7C29.0073 22.1278 27.7365 22.3508 25.1726 22.9598C23.5853 23.3372 21.8076 23.7587 19.8392 23.5928C19.3603 25.4619 19.3056 27.3923 19.5436 28.8217L19.5437 28.8216ZM26.2703 38.1053C29.5973 37.8578 31.5534 34.5828 32.0253 31.5102C31.6011 30.9737 31.3525 30.4283 31.1309 29.938C30.9836 29.6119 30.8442 29.3037 30.669 29.0381C30.5804 28.9039 30.184 28.9737 29.3004 29.2805C27.1907 30.0127 25.1386 29.5448 23.4896 29.1689C22.6898 28.9867 21.935 28.8142 21.5265 28.8877C20.9021 29 20.6393 30.443 20.4982 31.2183L20.485 31.2906C20.8954 34.425 22.8639 37.8519 26.2704 38.1053H26.2703ZM23.7528 39.0228C23.4601 39.7761 23.0098 40.4161 22.409 40.9161C23.485 42.0867 24.8323 42.7222 26.2704 42.7222C27.7086 42.7222 29.0556 42.0869 30.1315 40.9161C29.5307 40.4161 29.0804 39.7761 28.7878 39.0228C28.0468 39.38 27.225 39.6092 26.3207 39.668C26.304 39.6691 26.2871 39.6697 26.2703 39.6697C26.2534 39.6697 26.2365 39.6691 26.2198 39.668C25.3157 39.6094 24.4939 39.38 23.7528 39.0228ZM20.9709 41.6409C20.5307 41.76 20.0578 41.8811 19.5637 42.0072C17.6979 42.4836 15.5829 43.0234 14.4634 43.6798C13.2342 44.4005 12.7953 45.0162 12.6237 47.2352C12.4523 50.3517 12.4345 53.5453 12.5684 57.5011H16.7242V50.6134C16.7242 50.1819 17.0739 49.8322 17.5054 49.8322C17.937 49.8322 18.2867 50.1819 18.2867 50.6134V57.5011H25.4892V44.2367C23.7689 44.0277 22.1995 43.1269 20.9711 41.6409H20.9709ZM75.9934 13.0862V17.6277C75.9934 18.0009 75.7295 18.3219 75.3632 18.3941L73.031 18.8539L72.1473 20.9844L73.4721 22.9598C73.68 23.2698 73.6396 23.6836 73.3757 23.9473L70.1643 27.1587C69.9007 27.4228 69.4868 27.4633 69.1768 27.2552L67.2014 25.9303L65.0709 26.8141L64.611 29.1464C64.5389 29.5125 64.2178 29.7764 63.8446 29.7764H59.3032C58.93 29.7764 58.609 29.5125 58.5368 29.1464L58.077 26.8141L55.9465 25.9303L53.971 27.2552C53.6609 27.4633 53.2471 27.4227 52.9835 27.1587L49.7721 23.9473C49.5082 23.6836 49.4679 23.2698 49.6757 22.9598L51.0006 20.9844L50.1168 18.8539L47.7845 18.3941C47.4184 18.3219 47.1545 18.0008 47.1545 17.6277V13.0862C47.1545 12.713 47.4184 12.392 47.7845 12.3198L50.1168 11.86L51.0006 9.72953L49.6757 7.75406C49.4679 7.44406 49.5082 7.03031 49.7721 6.76656L52.9835 3.55516C53.247 3.29141 53.6607 3.25047 53.971 3.45875L55.9465 4.78359L58.077 3.89984L58.5368 1.56766C58.609 1.20141 58.9301 0.9375 59.3032 0.9375H63.8446C64.2179 0.9375 64.5389 1.20141 64.611 1.56766L65.0709 3.89984L67.2014 4.78359L69.1768 3.45875C69.487 3.25078 69.9009 3.29156 70.1643 3.55516L73.3757 6.76656C73.6396 7.03031 73.68 7.44406 73.4721 7.75406L72.1473 9.72953L73.031 11.86L75.3632 12.3198C75.7295 12.392 75.9934 12.7131 75.9934 13.0862ZM74.4309 13.7284L72.3185 13.3119C72.0621 13.2614 71.8481 13.0861 71.7481 12.8448L70.5437 9.94141C70.4434 9.69984 70.4707 9.42406 70.6165 9.20687L71.8167 7.41719L69.5137 5.11422L67.724 6.31437C67.5067 6.46 67.2309 6.48719 66.9895 6.38719L64.086 5.18281C63.8448 5.08266 63.6695 4.86859 63.619 4.61234L63.2025 2.5H59.9454L59.5289 4.61234C59.4784 4.86875 59.3031 5.08281 59.0618 5.18281L56.1584 6.38719C55.917 6.48766 55.6414 6.46016 55.4239 6.31437L53.6342 5.11422L51.3312 7.41719L52.5314 9.20687C52.6771 9.42422 52.7043 9.69984 52.6042 9.94141L51.3998 12.8448C51.2996 13.0861 51.0856 13.2614 50.8295 13.3119L48.717 13.7284V16.9855L50.8295 17.402C51.0857 17.4525 51.2998 17.6278 51.3998 17.8691L52.6042 20.7725C52.7045 21.0141 52.6771 21.2898 52.5314 21.507L51.3311 23.2967L53.6342 25.5998L55.4239 24.3995C55.641 24.2536 55.9168 24.2264 56.1584 24.3267L59.0618 25.5311C59.3031 25.6312 59.4784 25.8453 59.5289 26.1014L59.9454 28.2139H63.2025L63.619 26.1014C63.6695 25.8452 63.8448 25.6311 64.086 25.5311L66.9895 24.3267C67.231 24.2264 67.5067 24.2537 67.724 24.3995L69.5137 25.5997L71.8167 23.2967L70.6165 21.507C70.4707 21.2897 70.4435 21.0141 70.5437 20.7725L71.7481 17.8691C71.8482 17.6278 72.0623 17.4525 72.3185 17.402L74.4309 16.9855V13.7284ZM69.3492 15.3569C69.3492 19.6442 65.8612 23.1323 61.5737 23.1323C57.2862 23.1323 53.7984 19.6444 53.7984 15.3569C53.7984 11.0694 57.2864 7.58141 61.5737 7.58141C65.8611 7.58141 69.3492 11.0694 69.3492 15.3569ZM67.7867 15.3569C67.7867 11.9311 64.9995 9.14391 61.5737 9.14391C58.1479 9.14391 55.3609 11.9311 55.3609 15.3569C55.3609 18.7827 58.1479 21.5698 61.5737 21.5698C64.9995 21.5698 67.7867 18.7827 67.7867 15.3569ZM75.9934 62.3719V66.9133C75.9934 67.2866 75.7295 67.6075 75.3632 67.6797L73.031 68.1395L72.1473 70.27L73.4721 72.2455C73.68 72.5555 73.6396 72.9692 73.3757 73.233L70.1643 76.4444C69.9006 76.7081 69.4868 76.7487 69.1768 76.5408L67.2014 75.2159L65.0709 76.0997L64.611 78.4319C64.5389 78.7981 64.2178 79.062 63.8446 79.062H59.3032C58.93 79.062 58.609 78.7981 58.5368 78.4319L58.077 76.0997L55.9465 75.2159L53.971 76.5408C53.6609 76.7489 53.2471 76.7083 52.9835 76.4444L49.7721 73.233C49.5082 72.9692 49.4679 72.5555 49.6757 72.2455L51.0006 70.27L50.1168 68.1395L47.7845 67.6797C47.4184 67.6075 47.1545 67.2864 47.1545 66.9133V62.3719C47.1545 61.9986 47.4184 61.6777 47.7845 61.6055L50.1168 61.1456L51.0006 59.0152L49.6757 57.0397C49.4679 56.7297 49.5082 56.3159 49.7721 56.0522L52.9835 52.8408C53.247 52.577 53.6607 52.5361 53.971 52.7444L55.9465 54.0692L58.077 53.1855L58.5368 50.8531C58.609 50.487 58.9301 50.2231 59.3032 50.2231H63.8446C64.2179 50.2231 64.5389 50.487 64.611 50.8531L65.0709 53.1855L67.2014 54.0692L69.1768 52.7444C69.487 52.5362 69.9009 52.5772 70.1643 52.8408L73.3757 56.0522C73.6396 56.3159 73.68 56.7297 73.4721 57.0397L72.1473 59.0152L73.031 61.1456L75.3632 61.6055C75.7295 61.6777 75.9934 61.9987 75.9934 62.3719ZM74.4309 63.0141L72.3185 62.5975C72.0621 62.547 71.8481 62.3717 71.7481 62.1305L70.5437 59.227C70.4434 58.9855 70.4707 58.7097 70.6165 58.4925L71.8167 56.7028L69.5137 54.3998L67.724 55.6002C67.5067 55.7458 67.2309 55.773 66.9895 55.673L64.086 54.4684C63.8448 54.3683 63.6695 54.1542 63.619 53.8981L63.2025 51.7856H59.9454L59.5289 53.8981C59.4784 54.1544 59.3031 54.3684 59.0618 54.4684L56.1584 55.673C55.917 55.7734 55.641 55.7459 55.4239 55.6002L53.6342 54.3998L51.3311 56.7028L52.5314 58.4925C52.6771 58.7098 52.7043 58.9855 52.6042 59.227L51.3998 62.1305C51.2996 62.3717 51.0856 62.547 50.8295 62.5975L48.717 63.0141V66.2711L50.8295 66.6877C51.0857 66.7381 51.2998 66.9134 51.3998 67.1547L52.6042 70.0581C52.7045 70.2997 52.6771 70.5755 52.5314 70.7927L51.3312 72.5823L53.6342 74.8853L55.4239 73.6852C55.641 73.5394 55.9168 73.512 56.1584 73.6123L59.0618 74.8167C59.3031 74.9169 59.4784 75.1309 59.5289 75.3872L59.9454 77.4995H63.2025L63.619 75.3872C63.6695 75.1308 63.8448 74.9167 64.086 74.8167L66.9895 73.6123C67.231 73.5122 67.5067 73.5395 67.724 73.6852L69.5137 74.8853L71.8167 72.5823L70.6165 70.7927C70.4707 70.5753 70.4435 70.2997 70.5437 70.0581L71.7481 67.1547C71.8482 66.9134 72.0623 66.7381 72.3185 66.6877L74.4309 66.2711V63.0141ZM69.3492 64.6425C69.3492 68.9298 65.8612 72.418 61.5737 72.418C57.2862 72.418 53.7984 68.93 53.7984 64.6425C53.7984 60.355 57.2864 56.8672 61.5737 56.8672C65.8611 56.8672 69.3492 60.3552 69.3492 64.6425ZM67.7867 64.6425C67.7867 61.2167 64.9995 58.4297 61.5737 58.4297C58.1479 58.4297 55.3609 61.2167 55.3609 64.6425C55.3609 68.0683 58.1479 70.8555 61.5737 70.8555C64.9995 70.8555 67.7867 68.0683 67.7867 64.6425ZM43.07 64.0147L40.685 62.2497C40.3379 61.9928 39.8487 62.0659 39.5923 62.4128C39.3354 62.7597 39.4086 63.2489 39.7554 63.5055L40.2362 63.8613H5.56934V16.1381H40.2362L39.7554 16.4939C39.4086 16.7506 39.3354 17.2397 39.5923 17.5866C39.7454 17.7936 39.9815 17.903 40.2207 17.903C40.3821 17.903 40.5451 17.8531 40.685 17.7497L43.07 15.9847C43.2689 15.8375 43.3864 15.6044 43.3864 15.3567C43.3864 15.1091 43.2689 14.8761 43.07 14.7286L40.6848 12.9638C40.3381 12.7073 39.8489 12.7802 39.5921 13.127C39.3354 13.4739 39.4086 13.9633 39.7554 14.2198L40.2359 14.5753H4.78809C4.35652 14.5753 4.00684 14.925 4.00684 15.3566V64.6428C4.00684 65.0744 4.35652 65.4241 4.78809 65.4241H40.2362L39.7554 65.7798C39.4086 66.0366 39.3354 66.5256 39.5923 66.8725C39.7454 67.0795 39.9815 67.1889 40.2207 67.1889C40.3821 67.1889 40.5451 67.1391 40.685 67.0356L43.07 65.2706C43.2689 65.1234 43.3864 64.8903 43.3864 64.6427C43.3864 64.395 43.2689 64.162 43.07 64.0147Z" fill="#FF9072"/>
</svg>
