<svg width="87" height="88" viewBox="0 0 87 88" fill="none" xmlns="http://www.w3.org/2000/svg">
<path d="M43.758 80.1016C63.6201 80.1016 79.7216 64.0002 79.7216 44.1381C79.7216 24.276 63.6201 8.17456 43.758 8.17456C23.8959 8.17456 7.79449 24.276 7.79449 44.1381C7.79449 64.0002 23.8959 80.1016 43.758 80.1016Z" stroke="white" stroke-width="3.59635" stroke-linecap="round" stroke-linejoin="round"/>
<path d="M34.7671 33.2244C34.7671 31.5079 34.7671 30.6496 35.1258 30.1705C35.4384 29.7529 35.9169 29.4917 36.4372 29.4546C37.0342 29.4119 37.7562 29.876 39.2 30.8042L56.177 41.718C57.4299 42.5234 58.0563 42.9261 58.2727 43.4382C58.4618 43.8856 58.4618 44.3905 58.2727 44.838C58.0563 45.3501 57.4299 45.7528 56.177 46.5582L39.2 57.472C37.7562 58.4002 37.0342 58.8643 36.4372 58.8216C35.9169 58.7845 35.4384 58.5232 35.1258 58.1057C34.7671 57.6266 34.7671 56.7683 34.7671 55.0518V33.2244Z" stroke="white" stroke-width="3.59635" stroke-linecap="round" stroke-linejoin="round"/>
</svg>
