<svg width="24" height="25" viewBox="0 0 24 25" fill="none" xmlns="http://www.w3.org/2000/svg">
<path d="M22 8.13322V12.1332M10.25 5.63321H6.8C5.11984 5.63321 4.27976 5.63321 3.63803 5.96019C3.07354 6.24781 2.6146 6.70676 2.32698 7.27124C2 7.91298 2 8.75306 2 10.4332L2 11.6332C2 12.5651 2 13.031 2.15224 13.3986C2.35523 13.8886 2.74458 14.278 3.23463 14.481C3.60218 14.6332 4.06812 14.6332 5 14.6332V18.8832C5 19.1154 5 19.2315 5.00963 19.3292C5.10316 20.2788 5.85441 21.0301 6.80397 21.1236C6.90175 21.1332 7.01783 21.1332 7.25 21.1332C7.48217 21.1332 7.59826 21.1332 7.69604 21.1236C8.64559 21.0301 9.39685 20.2788 9.49037 19.3292C9.5 19.2315 9.5 19.1154 9.5 18.8832V14.6332H10.25C12.0164 14.6332 14.1772 15.5801 15.8443 16.4889C16.8168 17.019 17.3031 17.2841 17.6216 17.2451C17.9169 17.2089 18.1402 17.0763 18.3133 16.8343C18.5 16.5734 18.5 16.0512 18.5 15.0069V5.2595C18.5 4.21521 18.5 3.69306 18.3133 3.4321C18.1402 3.19011 17.9169 3.05751 17.6216 3.02134C17.3031 2.98233 16.8168 3.24741 15.8443 3.77757C14.1772 4.68632 12.0164 5.63321 10.25 5.63321Z" stroke="#212631" stroke-width="2" stroke-linecap="round" stroke-linejoin="round"/>
</svg>
