<svg width="24" height="25" viewBox="0 0 24 25" fill="none" xmlns="http://www.w3.org/2000/svg">
<path d="M5 14.4197C3.14864 15.2364 2 16.3745 2 17.6333C2 20.1186 6.47715 22.1333 12 22.1333C17.5228 22.1333 22 20.1186 22 17.6333C22 16.3745 20.8514 15.2364 19 14.4197M18 8.1333C18 12.197 13.5 14.1333 12 17.1333C10.5 14.1333 6 12.197 6 8.1333C6 4.81959 8.68629 2.1333 12 2.1333C15.3137 2.1333 18 4.81959 18 8.1333ZM13 8.1333C13 8.68559 12.5523 9.1333 12 9.1333C11.4477 9.1333 11 8.68559 11 8.1333C11 7.58102 11.4477 7.1333 12 7.1333C12.5523 7.1333 13 7.58102 13 8.1333Z" stroke="#212631" stroke-width="2" stroke-linecap="round" stroke-linejoin="round"/>
</svg>
