<svg width="33" height="32" viewBox="0 0 33 32" fill="none" xmlns="http://www.w3.org/2000/svg">
<path d="M9.81893 16.0001H16.4856V22.6667M4.49893 16.0001H4.4856M11.1656 22.6667H11.1523M16.4989 28.0001H16.4856M28.4989 16.0001H28.4856M4.4856 22.6667H6.4856M21.1523 16.0001H23.8189M4.4856 28.0001H11.1523M16.4856 2.66675V10.6667M23.9523 28.0001H26.3523C27.099 28.0001 27.4724 28.0001 27.7576 27.8548C28.0085 27.7269 28.2124 27.523 28.3403 27.2721C28.4856 26.9869 28.4856 26.6135 28.4856 25.8667V23.4667C28.4856 22.72 28.4856 22.3466 28.3403 22.0614C28.2124 21.8105 28.0085 21.6066 27.7576 21.4787C27.4724 21.3334 27.099 21.3334 26.3523 21.3334H23.9523C23.2055 21.3334 22.8322 21.3334 22.5469 21.4787C22.2961 21.6066 22.0921 21.8105 21.9643 22.0614C21.8189 22.3466 21.8189 22.72 21.8189 23.4667V25.8667C21.8189 26.6135 21.8189 26.9869 21.9643 27.2721C22.0921 27.523 22.2961 27.7269 22.5469 27.8548C22.8322 28.0001 23.2055 28.0001 23.9523 28.0001ZM23.9523 10.6667H26.3523C27.099 10.6667 27.4724 10.6667 27.7576 10.5214C28.0085 10.3936 28.2124 10.1896 28.3403 9.93874C28.4856 9.65352 28.4856 9.28015 28.4856 8.53342V6.13341C28.4856 5.38668 28.4856 5.01331 28.3403 4.72809C28.2124 4.47721 28.0085 4.27324 27.7576 4.14541C27.4724 4.00008 27.099 4.00008 26.3523 4.00008H23.9523C23.2055 4.00008 22.8322 4.00008 22.5469 4.14541C22.2961 4.27324 22.0921 4.47721 21.9643 4.72809C21.8189 5.01331 21.8189 5.38668 21.8189 6.13341V8.53342C21.8189 9.28015 21.8189 9.65352 21.9643 9.93874C22.0921 10.1896 22.2961 10.3936 22.5469 10.5214C22.8322 10.6667 23.2055 10.6667 23.9523 10.6667ZM6.61893 10.6667H9.01893C9.76567 10.6667 10.139 10.6667 10.4242 10.5214C10.6751 10.3936 10.8791 10.1896 11.0069 9.93874C11.1523 9.65352 11.1523 9.28015 11.1523 8.53342V6.13341C11.1523 5.38668 11.1523 5.01331 11.0069 4.72809C10.8791 4.47721 10.6751 4.27324 10.4242 4.14541C10.139 4.00008 9.76567 4.00008 9.01893 4.00008H6.61893C5.87219 4.00008 5.49882 4.00008 5.21361 4.14541C4.96273 4.27324 4.75875 4.47721 4.63092 4.72809C4.4856 5.01331 4.4856 5.38668 4.4856 6.13341V8.53342C4.4856 9.28015 4.4856 9.65352 4.63092 9.93874C4.75875 10.1896 4.96273 10.3936 5.21361 10.5214C5.49882 10.6667 5.87219 10.6667 6.61893 10.6667Z" stroke="currentColor" stroke-width="2.5" stroke-linecap="round" stroke-linejoin="round"/>
</svg>
