<svg width="28" height="24" viewBox="0 0 28 24" fill="none" xmlns="http://www.w3.org/2000/svg">
<path d="M26.9035 1.45493e-06H1.09656C1.01524 -0.000174953 0.934676 0.0156922 0.859492 0.0466912C0.784308 0.0776903 0.715976 0.123212 0.658409 0.180655C0.600842 0.238097 0.555171 0.306331 0.524009 0.381447C0.492847 0.456564 0.476806 0.537089 0.476807 0.618413V23.3816C0.476806 23.4629 0.492847 23.5434 0.524009 23.6186C0.555171 23.6937 0.600842 23.7619 0.658409 23.8193C0.715976 23.8768 0.784308 23.9223 0.859492 23.9533C0.934676 23.9843 1.01524 24.0002 1.09656 24H21.6208C21.7021 24.0002 21.7826 23.9843 21.8577 23.9533C21.9328 23.9223 22.0011 23.8767 22.0585 23.8193C22.116 23.7618 22.1615 23.6936 22.1925 23.6185C22.2236 23.5433 22.2394 23.4629 22.2393 23.3816V15.3329C22.2393 15.1685 22.3046 15.0108 22.4208 14.8946C22.537 14.7784 22.6946 14.7131 22.859 14.7131H26.9035C26.9848 14.7133 27.0654 14.6974 27.1406 14.6664C27.2158 14.6354 27.2841 14.5899 27.3416 14.5324C27.3992 14.475 27.4449 14.4068 27.4761 14.3317C27.5072 14.2565 27.5233 14.176 27.5233 14.0947V0.618413C27.5233 0.537089 27.5072 0.456564 27.4761 0.381447C27.4449 0.306331 27.3992 0.238097 27.3416 0.180655C27.2841 0.123212 27.2158 0.0776903 27.1406 0.0466912C27.0654 0.0156922 26.9848 -0.000174953 26.9035 1.45493e-06ZM20.4176 20.6101C20.4176 20.6915 20.4015 20.7721 20.3704 20.8473C20.3392 20.9225 20.2936 20.9908 20.236 21.0484C20.1785 21.1059 20.1102 21.1516 20.035 21.1827C19.9598 21.2139 19.8792 21.2299 19.7978 21.2299H3.19996C3.11864 21.2299 3.03811 21.2139 2.963 21.1827C2.88788 21.1515 2.81965 21.1059 2.76221 21.0483C2.70476 20.9907 2.65924 20.9224 2.62824 20.8472C2.59724 20.772 2.58138 20.6915 2.58155 20.6101V16.3617C2.58226 16.1982 2.64773 16.0416 2.76363 15.9262C2.87952 15.8108 3.03641 15.746 3.19996 15.746H19.7978C19.8792 15.746 19.9598 15.762 20.035 15.7932C20.1102 15.8243 20.1785 15.87 20.236 15.9275C20.2936 15.9851 20.3392 16.0534 20.3704 16.1286C20.4015 16.2038 20.4176 16.2844 20.4176 16.3658V20.6101ZM20.4176 13.7043C20.4176 13.7856 20.4015 13.8662 20.3704 13.9413C20.3392 14.0164 20.2935 14.0846 20.236 14.1421C20.1784 14.1995 20.1101 14.245 20.0349 14.276C19.9597 14.307 19.8791 14.3229 19.7978 14.3227H3.19996C3.1187 14.3229 3.03821 14.307 2.9631 14.276C2.88799 14.245 2.81975 14.1995 2.76229 14.142C2.70483 14.0845 2.65928 14.0163 2.62826 13.9412C2.59725 13.8661 2.58137 13.7856 2.58155 13.7043V9.45593C2.58138 9.3746 2.59724 9.29405 2.62824 9.21886C2.65924 9.14368 2.70476 9.07535 2.76221 9.01778C2.81965 8.96021 2.88788 8.91454 2.963 8.88338C3.03811 8.85221 3.11864 8.83617 3.19996 8.83617H19.7978C19.8792 8.83617 19.9598 8.85221 20.035 8.88335C20.1102 8.9145 20.1785 8.96015 20.236 9.0177C20.2936 9.07525 20.3392 9.14357 20.3704 9.21876C20.4015 9.29395 20.4176 9.37454 20.4176 9.45593V13.7043ZM20.4176 6.7985C20.4176 6.87983 20.4015 6.96035 20.3704 7.03547C20.3392 7.11059 20.2935 7.17882 20.236 7.23626C20.1784 7.2937 20.1101 7.33923 20.0349 7.37023C19.9597 7.40122 19.8791 7.41709 19.7978 7.41692H3.19996C3.1187 7.41709 3.03821 7.40122 2.9631 7.3702C2.88799 7.33919 2.81975 7.29364 2.76229 7.23618C2.70483 7.17872 2.65928 7.11048 2.62826 7.03537C2.59725 6.96026 2.58137 6.87976 2.58155 6.7985V2.55011C2.5812 2.46868 2.59693 2.38797 2.62785 2.31263C2.65877 2.23729 2.70427 2.1688 2.76173 2.11109C2.81919 2.05338 2.88748 2.00759 2.96269 1.97634C3.03789 1.9451 3.11853 1.92902 3.19996 1.92902H19.7978C19.8792 1.92902 19.9598 1.94505 20.035 1.97619C20.1102 2.00734 20.1785 2.05299 20.236 2.11054C20.2936 2.16809 20.3392 2.23641 20.3704 2.3116C20.4015 2.38679 20.4176 2.46738 20.4176 2.54877V6.7985Z" fill="currentColor"/>
<path d="M11.1978 6.33203H20.4176V9.90299H11.1978C11.1164 9.90299 11.0358 9.88696 10.9606 9.85581C10.8855 9.82467 10.8171 9.77901 10.7596 9.72146C10.702 9.66392 10.6564 9.5956 10.6252 9.52041C10.5941 9.44521 10.5781 9.36462 10.5781 9.28324V6.95178C10.5781 6.78741 10.6434 6.62978 10.7596 6.51355C10.8758 6.39732 11.0334 6.33203 11.1978 6.33203Z" fill="currentColor"/>
<path d="M11.1978 13.4248H20.4176V16.9958H11.1978C11.0334 16.9958 10.8758 16.9305 10.7596 16.8142C10.6434 16.698 10.5781 16.5404 10.5781 16.376V14.0446C10.5781 13.8802 10.6434 13.7226 10.7596 13.6063C10.8758 13.4901 11.0334 13.4248 11.1978 13.4248Z" fill="currentColor"/>
<path d="M25.8303 19.5332C25.6657 19.5329 25.5048 19.5815 25.3679 19.6727C25.2309 19.7639 25.1241 19.8937 25.061 20.0457C24.9978 20.1976 24.9811 20.3649 25.0131 20.5263C25.045 20.6878 25.1241 20.8361 25.2404 20.9525C25.3566 21.069 25.5048 21.1483 25.6662 21.1805C25.8276 21.2127 25.9949 21.1963 26.1469 21.1334C26.299 21.0705 26.429 20.9639 26.5204 20.8271C26.6118 20.6903 26.6607 20.5295 26.6607 20.3649C26.6586 20.1452 26.5705 19.9351 26.4152 19.7796C26.26 19.6241 26.05 19.5357 25.8303 19.5332Z" fill="currentColor"/>
</svg>
